<svg xmlns="http://www.w3.org/2000/svg" xmlns:xlink="http://www.w3.org/1999/xlink" width="400" zoomAndPan="magnify" viewBox="0 0 300 299.999988" height="400" preserveAspectRatio="xMidYMid meet" version="1.2"><defs><clipPath id="4531745923"><path d="M 95 81 L 221.164062 81 L 221.164062 235.4375 L 95 235.4375 Z M 95 81 "/></clipPath><clipPath id="2b42b4377e"><path d="M 78.664062 64.4375 L 205 64.4375 L 205 219 L 78.664062 219 Z M 78.664062 64.4375 "/></clipPath><clipPath id="2e95345896"><path d="M 90 64.4375 L 205 64.4375 L 205 207 L 90 207 Z M 90 64.4375 "/></clipPath><clipPath id="71977faa5f"><path d="M 101 64.4375 L 205 64.4375 L 205 196 L 101 196 Z M 101 64.4375 "/></clipPath><clipPath id="8ea49a7513"><path d="M 78.664062 64.4375 L 205 64.4375 L 205 111 L 78.664062 111 Z M 78.664062 64.4375 "/></clipPath><clipPath id="1fb50a6d05"><path d="M 90 64.4375 L 205 64.4375 L 205 111 L 90 111 Z M 90 64.4375 "/></clipPath><clipPath id="a9db89e95c"><path d="M 169 64.4375 L 205 64.4375 L 205 99 L 169 99 Z M 169 64.4375 "/></clipPath></defs><g id="cdecf4bfea"><g clip-rule="nonzero" clip-path="url(#4531745923)"><path style=" stroke:none;fill-rule:nonzero;fill:#ffa733;fill-opacity:1;" d="M 95.789062 224.039062 C 95.789062 230.335938 100.890625 235.4375 107.183594 235.4375 L 209.734375 235.4375 C 216.027344 235.4375 221.128906 230.335938 221.128906 224.039062 L 221.128906 92.9375 C 221.128906 86.644531 216.027344 81.539062 209.734375 81.539062 L 107.183594 81.539062 C 100.890625 81.539062 95.789062 86.644531 95.789062 92.9375 Z M 95.789062 224.039062 "/></g><g clip-rule="nonzero" clip-path="url(#2b42b4377e)"><path style=" stroke:none;fill-rule:nonzero;fill:#efe7e4;fill-opacity:1;" d="M 204.039062 98.636719 L 204.039062 206.9375 C 204.039062 213.234375 198.9375 218.339844 192.644531 218.339844 L 90.089844 218.339844 C 83.796875 218.339844 78.695312 213.234375 78.695312 206.9375 L 78.695312 75.839844 C 78.695312 69.542969 83.796875 64.4375 90.089844 64.4375 L 169.855469 64.4375 Z M 204.039062 98.636719 "/></g><g clip-rule="nonzero" clip-path="url(#2e95345896)"><path style=" stroke:none;fill-rule:nonzero;fill:#f6f1f1;fill-opacity:1;" d="M 169.855469 64.4375 L 90.089844 64.4375 L 90.089844 195.539062 C 90.089844 201.835938 95.191406 206.9375 101.484375 206.9375 L 204.039062 206.9375 L 204.039062 98.636719 Z M 169.855469 64.4375 "/></g><g clip-rule="nonzero" clip-path="url(#71977faa5f)"><path style=" stroke:none;fill-rule:nonzero;fill:#faf7f7;fill-opacity:1;" d="M 101.484375 64.4375 L 101.484375 184.136719 C 101.484375 190.433594 106.585938 195.539062 112.878906 195.539062 L 204.039062 195.539062 L 204.039062 98.636719 L 169.855469 64.4375 Z M 101.484375 64.4375 "/></g><g clip-rule="nonzero" clip-path="url(#8ea49a7513)"><path style=" stroke:none;fill-rule:nonzero;fill:#ffa733;fill-opacity:1;" d="M 90.089844 64.4375 C 83.796875 64.4375 78.695312 69.542969 78.695312 75.839844 L 78.695312 110.039062 L 204.039062 110.039062 L 204.039062 98.636719 L 169.855469 64.4375 Z M 90.089844 64.4375 "/></g><g clip-rule="nonzero" clip-path="url(#1fb50a6d05)"><path style=" stroke:none;fill-rule:nonzero;fill:#ffb95c;fill-opacity:1;" d="M 90.089844 75.839844 L 90.089844 110.039062 L 204.039062 110.039062 L 204.039062 98.636719 L 169.855469 64.4375 L 101.484375 64.4375 C 95.191406 64.4375 90.089844 69.542969 90.089844 75.839844 Z M 90.089844 75.839844 "/></g><g clip-rule="nonzero" clip-path="url(#a9db89e95c)"><path style=" stroke:none;fill-rule:nonzero;fill:#ffc77d;fill-opacity:1;" d="M 204.039062 98.636719 L 181.25 98.636719 C 174.957031 98.636719 169.855469 93.535156 169.855469 87.238281 L 169.855469 64.4375 Z M 204.039062 98.636719 "/></g><path style=" stroke:none;fill-rule:nonzero;fill:#918b93;fill-opacity:1;" d="M 124.273438 158.488281 C 119.5625 158.488281 115.730469 154.652344 115.730469 149.9375 L 115.730469 148.269531 C 115.730469 146.457031 114.996094 144.683594 113.714844 143.402344 C 112.601562 142.289062 112.601562 140.488281 113.714844 139.375 C 114.996094 138.09375 115.730469 136.320312 115.730469 134.507812 L 115.730469 132.839844 C 115.730469 128.125 119.5625 124.289062 124.273438 124.289062 C 125.847656 124.289062 127.125 125.566406 127.125 127.136719 C 127.125 128.710938 125.847656 129.988281 124.273438 129.988281 C 122.707031 129.988281 121.425781 131.269531 121.425781 132.839844 L 121.425781 134.507812 C 121.425781 136.992188 120.714844 139.363281 119.382812 141.386719 C 120.714844 143.414062 121.425781 145.785156 121.425781 148.269531 L 121.425781 149.9375 C 121.425781 151.507812 122.707031 152.789062 124.273438 152.789062 C 125.847656 152.789062 127.125 154.066406 127.125 155.636719 C 127.125 157.210938 125.847656 158.488281 124.273438 158.488281 Z M 124.273438 158.488281 "/><path style=" stroke:none;fill-rule:nonzero;fill:#918b93;fill-opacity:1;" d="M 161.308594 158.488281 C 159.734375 158.488281 158.460938 157.210938 158.460938 155.636719 C 158.460938 154.066406 159.734375 152.789062 161.308594 152.789062 C 162.878906 152.789062 164.15625 151.507812 164.15625 149.9375 L 164.15625 148.269531 C 164.15625 145.785156 164.867188 143.414062 166.199219 141.386719 C 164.867188 139.363281 164.15625 136.992188 164.15625 134.507812 L 164.15625 132.839844 C 164.15625 131.269531 162.878906 129.988281 161.308594 129.988281 C 159.734375 129.988281 158.460938 128.710938 158.460938 127.136719 C 158.460938 125.566406 159.734375 124.289062 161.308594 124.289062 C 166.019531 124.289062 169.855469 128.125 169.855469 132.839844 L 169.855469 134.507812 C 169.855469 136.320312 170.589844 138.09375 171.867188 139.375 C 172.980469 140.488281 172.980469 142.289062 171.867188 143.402344 C 170.589844 144.683594 169.855469 146.457031 169.855469 148.269531 L 169.855469 149.9375 C 169.855469 154.652344 166.019531 158.488281 161.308594 158.488281 Z M 161.308594 158.488281 "/><path style=" stroke:none;fill-rule:nonzero;fill:#918b93;fill-opacity:1;" d="M 129.972656 148.511719 L 127.125 148.511719 C 125.550781 148.511719 124.273438 147.238281 124.273438 145.664062 C 124.273438 144.089844 125.550781 142.8125 127.125 142.8125 L 129.972656 142.8125 C 131.546875 142.8125 132.820312 144.089844 132.820312 145.664062 C 132.820312 147.238281 131.546875 148.511719 129.972656 148.511719 Z M 129.972656 148.511719 "/><path style=" stroke:none;fill-rule:nonzero;fill:#918b93;fill-opacity:1;" d="M 144.214844 148.511719 L 141.367188 148.511719 C 139.792969 148.511719 138.519531 147.238281 138.519531 145.664062 C 138.519531 144.089844 139.792969 142.8125 141.367188 142.8125 L 144.214844 142.8125 C 145.789062 142.8125 147.066406 144.089844 147.066406 145.664062 C 147.066406 147.238281 145.789062 148.511719 144.214844 148.511719 Z M 144.214844 148.511719 "/><path style=" stroke:none;fill-rule:nonzero;fill:#918b93;fill-opacity:1;" d="M 158.460938 148.511719 L 155.609375 148.511719 C 154.039062 148.511719 152.761719 147.238281 152.761719 145.664062 C 152.761719 144.089844 154.039062 142.8125 155.609375 142.8125 L 158.460938 142.8125 C 160.03125 142.8125 161.308594 144.089844 161.308594 145.664062 C 161.308594 147.238281 160.03125 148.511719 158.460938 148.511719 Z M 158.460938 148.511719 "/><path style=" stroke:none;fill-rule:nonzero;fill:#faf7f7;fill-opacity:1;" d="M 118.578125 101.488281 C 113.867188 101.488281 110.03125 97.652344 110.03125 92.9375 C 110.03125 91.367188 111.308594 90.089844 112.878906 90.089844 C 114.453125 90.089844 115.730469 91.367188 115.730469 92.9375 C 115.730469 94.507812 117.007812 95.789062 118.578125 95.789062 C 120.148438 95.789062 121.425781 94.507812 121.425781 92.9375 C 121.425781 91.367188 120.148438 90.089844 118.578125 90.089844 C 113.867188 90.089844 110.03125 86.253906 110.03125 81.539062 C 110.03125 76.824219 113.867188 72.988281 118.578125 72.988281 C 123.289062 72.988281 127.125 76.824219 127.125 81.539062 C 127.125 83.113281 125.847656 84.386719 124.273438 84.386719 C 122.703125 84.386719 121.425781 83.113281 121.425781 81.539062 C 121.425781 79.96875 120.148438 78.6875 118.578125 78.6875 C 117.007812 78.6875 115.730469 79.96875 115.730469 81.539062 C 115.730469 83.109375 117.007812 84.386719 118.578125 84.386719 C 123.289062 84.386719 127.125 88.226562 127.125 92.9375 C 127.125 97.652344 123.289062 101.488281 118.578125 101.488281 Z M 118.578125 101.488281 "/><path style=" stroke:none;fill-rule:nonzero;fill:#faf7f7;fill-opacity:1;" d="M 138.519531 101.488281 C 133.808594 101.488281 129.972656 97.652344 129.972656 92.9375 C 129.972656 91.367188 131.25 90.089844 132.820312 90.089844 C 134.394531 90.089844 135.667969 91.367188 135.667969 92.9375 C 135.667969 94.507812 136.949219 95.789062 138.519531 95.789062 C 140.089844 95.789062 141.367188 94.507812 141.367188 92.9375 C 141.367188 91.367188 140.089844 90.089844 138.519531 90.089844 C 133.808594 90.089844 129.972656 86.253906 129.972656 81.539062 C 129.972656 76.824219 133.808594 72.988281 138.519531 72.988281 C 143.230469 72.988281 147.066406 76.824219 147.066406 81.539062 C 147.066406 83.113281 145.789062 84.386719 144.214844 84.386719 C 142.644531 84.386719 141.367188 83.113281 141.367188 81.539062 C 141.367188 79.96875 140.089844 78.6875 138.519531 78.6875 C 136.949219 78.6875 135.667969 79.96875 135.667969 81.539062 C 135.667969 83.109375 136.949219 84.386719 138.519531 84.386719 C 143.230469 84.386719 147.066406 88.226562 147.066406 92.9375 C 147.066406 97.652344 143.230469 101.488281 138.519531 101.488281 Z M 138.519531 101.488281 "/><path style=" stroke:none;fill-rule:nonzero;fill:#faf7f7;fill-opacity:1;" d="M 98.636719 101.488281 L 95.789062 101.488281 C 91.078125 101.488281 87.242188 97.652344 87.242188 92.9375 L 87.242188 81.539062 C 87.242188 76.824219 91.078125 72.988281 95.789062 72.988281 L 98.636719 72.988281 C 103.347656 72.988281 107.183594 76.824219 107.183594 81.539062 C 107.183594 83.113281 105.90625 84.386719 104.335938 84.386719 C 102.761719 84.386719 101.484375 83.113281 101.484375 81.539062 C 101.484375 79.96875 100.207031 78.6875 98.636719 78.6875 L 95.789062 78.6875 C 94.21875 78.6875 92.941406 79.96875 92.941406 81.539062 L 92.941406 92.9375 C 92.941406 94.507812 94.21875 95.789062 95.789062 95.789062 L 98.636719 95.789062 C 100.207031 95.789062 101.484375 94.507812 101.484375 92.9375 C 101.484375 91.367188 102.761719 90.089844 104.335938 90.089844 C 105.90625 90.089844 107.183594 91.367188 107.183594 92.9375 C 107.183594 97.652344 103.347656 101.488281 98.636719 101.488281 Z M 98.636719 101.488281 "/><path style=" stroke:none;fill-rule:nonzero;fill:#918b93;fill-opacity:1;" d="M 169.855469 181.289062 L 95.789062 181.289062 C 94.214844 181.289062 92.941406 180.011719 92.941406 178.4375 C 92.941406 176.867188 94.214844 175.589844 95.789062 175.589844 L 169.855469 175.589844 C 171.425781 175.589844 172.703125 176.867188 172.703125 178.4375 C 172.703125 180.011719 171.425781 181.289062 169.855469 181.289062 Z M 169.855469 181.289062 "/><path style=" stroke:none;fill-rule:nonzero;fill:#918b93;fill-opacity:1;" d="M 186.945312 169.886719 L 107.183594 169.886719 C 105.609375 169.886719 104.335938 168.613281 104.335938 167.039062 C 104.335938 165.464844 105.609375 164.1875 107.183594 164.1875 L 186.945312 164.1875 C 188.519531 164.1875 189.792969 165.464844 189.792969 167.039062 C 189.792969 168.613281 188.519531 169.886719 186.945312 169.886719 Z M 186.945312 169.886719 "/><path style=" stroke:none;fill-rule:nonzero;fill:#918b93;fill-opacity:1;" d="M 169.855469 204.089844 L 95.789062 204.089844 C 94.214844 204.089844 92.941406 202.8125 92.941406 201.238281 C 92.941406 199.664062 94.214844 198.386719 95.789062 198.386719 L 169.855469 198.386719 C 171.425781 198.386719 172.703125 199.664062 172.703125 201.238281 C 172.703125 202.8125 171.425781 204.089844 169.855469 204.089844 Z M 169.855469 204.089844 "/><path style=" stroke:none;fill-rule:nonzero;fill:#918b93;fill-opacity:1;" d="M 186.945312 192.6875 L 95.789062 192.6875 C 94.214844 192.6875 92.941406 191.410156 92.941406 189.839844 C 92.941406 188.265625 94.214844 186.988281 95.789062 186.988281 L 186.945312 186.988281 C 188.519531 186.988281 189.792969 188.265625 189.792969 189.839844 C 189.792969 191.410156 188.519531 192.6875 186.945312 192.6875 Z M 186.945312 192.6875 "/><path style=" stroke:none;fill-rule:nonzero;fill:#918b93;fill-opacity:1;" d="M 186.945312 181.289062 L 181.25 181.289062 C 179.675781 181.289062 178.398438 180.011719 178.398438 178.4375 C 178.398438 176.867188 179.675781 175.589844 181.25 175.589844 L 186.945312 175.589844 C 188.519531 175.589844 189.792969 176.867188 189.792969 178.4375 C 189.792969 180.011719 188.519531 181.289062 186.945312 181.289062 Z M 186.945312 181.289062 "/><path style=" stroke:none;fill-rule:nonzero;fill:#918b93;fill-opacity:1;" d="M 186.945312 204.089844 L 181.25 204.089844 C 179.675781 204.089844 178.398438 202.8125 178.398438 201.238281 C 178.398438 199.664062 179.675781 198.386719 181.25 198.386719 L 186.945312 198.386719 C 188.519531 198.386719 189.792969 199.664062 189.792969 201.238281 C 189.792969 202.8125 188.519531 204.089844 186.945312 204.089844 Z M 186.945312 204.089844 "/></g></svg>