<svg xmlns="http://www.w3.org/2000/svg" xmlns:xlink="http://www.w3.org/1999/xlink" width="400" zoomAndPan="magnify" viewBox="0 0 300 299.999988" height="400" preserveAspectRatio="xMidYMid meet" version="1.2"><defs><clipPath id="1eb3b283b5"><path d="M 94 71.253906 L 206 71.253906 L 206 228.753906 L 94 228.753906 Z M 94 71.253906 "/></clipPath></defs><g id="b6aea52632"><g clip-rule="nonzero" clip-path="url(#1eb3b283b5)"><path style="fill:none;stroke-width:2;stroke-linecap:round;stroke-linejoin:round;stroke:#000000;stroke-opacity:1;stroke-miterlimit:4;" d="M 9.000153 15.000156 L 12.000153 15.000156 M 9.000153 15.000156 C 7.34291 15.000156 6.000152 16.342914 6.000152 18.000156 C 6.000152 19.656902 7.34291 21.000156 9.000153 21.000156 C 10.656899 21.000156 12.000153 19.656902 12.000153 18.000156 L 12.000153 15.000156 M 9.000153 15.000156 C 7.34291 15.000156 6.000152 13.656902 6.000152 12.000155 C 6.000152 10.342913 7.34291 9.000155 9.000153 9.000155 M 12.000153 15.000156 L 12.000153 12.000155 M 9.000153 9.000155 L 12.000153 9.000155 M 9.000153 9.000155 C 7.34291 9.000155 6.000152 7.656901 6.000152 6.000155 C 6.000152 4.342913 7.34291 3.000155 9.000153 3.000155 L 12.000153 3.000155 M 12.000153 9.000155 L 12.000153 12.000155 M 12.000153 9.000155 L 12.000153 3.000155 M 12.000153 9.000155 L 15.000153 9.000155 M 12.000153 12.000155 C 12.000153 13.656902 13.342911 15.000156 15.000153 15.000156 C 16.656899 15.000156 18.000153 13.656902 18.000153 12.000155 C 18.000153 10.342913 16.656899 9.000155 15.000153 9.000155 M 12.000153 12.000155 C 12.000153 10.342913 13.342911 9.000155 15.000153 9.000155 M 12.000153 3.000155 L 15.000153 3.000155 C 16.656899 3.000155 18.000153 4.342913 18.000153 6.000155 C 18.000153 7.656901 16.656899 9.000155 15.000153 9.000155 " transform="matrix(7.874999,0,0,7.874999,55.502711,55.502691)"/></g></g></svg>