<svg xmlns="http://www.w3.org/2000/svg" xmlns:xlink="http://www.w3.org/1999/xlink" width="400" zoomAndPan="magnify" viewBox="0 0 300 299.999988" height="400" preserveAspectRatio="xMidYMid meet" version="1.2"><defs><clipPath id="3cf7b34edd"><path d="M 71.601562 71.601562 L 228.351562 71.601562 L 228.351562 228.351562 L 71.601562 228.351562 Z M 71.601562 71.601562 "/></clipPath></defs><g id="a69e749fe4"><g clip-rule="nonzero" clip-path="url(#3cf7b34edd)"><path style=" stroke:none;fill-rule:nonzero;fill:#969696;fill-opacity:1;" d="M 149.976562 71.601562 C 106.691406 71.601562 71.601562 106.691406 71.601562 149.976562 C 71.601562 193.261719 106.691406 228.351562 149.976562 228.351562 C 193.261719 228.351562 228.351562 193.261719 228.351562 149.976562 C 228.351562 106.691406 193.261719 71.601562 149.976562 71.601562 Z M 149.976562 222.414062 C 109.96875 222.414062 77.535156 189.980469 77.535156 149.976562 C 77.535156 109.96875 109.96875 77.535156 149.976562 77.535156 C 189.980469 77.535156 222.414062 109.96875 222.414062 149.976562 C 222.414062 189.980469 189.980469 222.414062 149.976562 222.414062 Z M 149.976562 222.414062 "/></g><path style=" stroke:none;fill-rule:nonzero;fill:#969696;fill-opacity:1;" d="M 140.777344 188.390625 C 138.8125 188.582031 137.242188 188.796875 135.664062 188.871094 C 126.722656 189.292969 120.101562 185.769531 116.085938 177.546875 C 114.804688 174.929688 113.167969 172.457031 111.464844 170.085938 C 110.441406 168.664062 109.007812 167.519531 107.679688 166.332031 L 107.664062 166.316406 C 106.847656 165.597656 107.207031 164.246094 108.285156 164.066406 C 109.546875 163.855469 110.726562 164.082031 111.875 164.375 C 115.46875 165.289062 117.777344 167.839844 119.617188 170.886719 C 123.773438 177.78125 130.9375 180.660156 138.679688 178.605469 C 139.996094 178.253906 140.574219 177.691406 140.863281 176.257812 C 141.195312 174.582031 141.648438 172.933594 142.136719 171.253906 C 142.207031 171.007812 142.253906 170.753906 142.273438 170.496094 C 142.296875 170.242188 142.289062 169.984375 142.257812 169.730469 C 142.226562 169.472656 142.167969 169.222656 142.085938 168.980469 C 142.003906 168.734375 141.898438 168.5 141.769531 168.277344 C 141.640625 168.054688 141.488281 167.847656 141.316406 167.65625 C 141.144531 167.464844 140.953125 167.292969 140.746094 167.140625 C 140.539062 166.984375 140.320312 166.855469 140.085938 166.746094 C 139.851562 166.636719 139.609375 166.554688 139.359375 166.496094 L 139.316406 166.484375 C 131.28125 164.5625 124.339844 160.984375 119.867188 153.640625 C 117.472656 149.714844 116.289062 145.386719 116.351562 140.882812 C 116.421875 135.769531 116.871094 130.644531 117.460938 125.5625 C 117.875 121.980469 119.53125 118.8125 122.105469 116.238281 C 123.003906 115.339844 123.078125 114.589844 122.644531 113.425781 C 120.875 108.671875 121.179688 103.902344 122.753906 99.136719 C 123.199219 97.792969 123.828125 97.597656 125.113281 98.003906 C 129.097656 99.257812 132.066406 101.847656 134.675781 104.953125 L 134.703125 104.984375 C 135.03125 105.378906 135.410156 105.714844 135.839844 105.996094 C 136.269531 106.273438 136.730469 106.488281 137.222656 106.628906 C 137.714844 106.773438 138.21875 106.839844 138.730469 106.832031 C 139.242188 106.820312 139.742188 106.738281 140.230469 106.582031 C 148.492188 103.871094 161.027344 103.835938 168.820312 106.515625 C 169.308594 106.683594 169.8125 106.773438 170.332031 106.785156 C 170.847656 106.800781 171.355469 106.738281 171.851562 106.597656 C 172.351562 106.457031 172.816406 106.246094 173.25 105.964844 C 173.683594 105.683594 174.066406 105.34375 174.398438 104.949219 L 174.421875 104.917969 C 177.039062 101.816406 180.019531 99.246094 184 97.988281 C 185.335938 97.566406 185.902344 97.886719 186.328125 99.1875 C 187.878906 103.953125 188.144531 108.691406 186.464844 113.5 C 186.226562 114.175781 186.238281 115.351562 186.65625 115.78125 C 190.226562 119.398438 191.789062 123.890625 192.183594 128.757812 C 192.566406 133.460938 192.980469 138.242188 192.542969 142.914062 C 191.410156 155.054688 184.023438 162.128906 172.796875 165.644531 C 171.835938 165.945312 170.859375 166.199219 169.863281 166.433594 C 169.605469 166.496094 169.355469 166.582031 169.113281 166.695312 C 168.871094 166.808594 168.648438 166.949219 168.433594 167.109375 C 168.222656 167.269531 168.03125 167.453125 167.855469 167.652344 C 167.683594 167.855469 167.53125 168.070312 167.402344 168.304688 C 167.273438 168.539062 167.171875 168.78125 167.09375 169.039062 C 167.019531 169.292969 166.96875 169.554688 166.945312 169.816406 C 166.925781 170.082031 166.929688 170.347656 166.964844 170.613281 C 166.996094 170.875 167.058594 171.132812 167.144531 171.386719 C 168.671875 175.816406 168.441406 180.554688 168.417969 185.257812 C 168.410156 186.339844 168.40625 187.421875 168.40625 188.503906 C 168.402344 189.398438 168.3125 190.285156 168.136719 191.164062 C 167.960938 192.042969 167.699219 192.894531 167.355469 193.722656 C 167.011719 194.550781 166.589844 195.335938 166.09375 196.078125 C 165.59375 196.824219 165.027344 197.511719 164.394531 198.144531 C 163.757812 198.777344 163.070312 199.34375 162.324219 199.839844 C 161.578125 200.335938 160.792969 200.753906 159.964844 201.097656 C 159.136719 201.441406 158.285156 201.699219 157.40625 201.875 C 156.527344 202.046875 155.640625 202.132812 154.746094 202.132812 L 154.4375 202.132812 C 153.539062 202.132812 152.652344 202.046875 151.773438 201.871094 C 150.890625 201.695312 150.039062 201.4375 149.207031 201.09375 C 148.378906 200.75 147.59375 200.332031 146.847656 199.832031 C 146.101562 199.335938 145.410156 198.769531 144.777344 198.132812 C 144.144531 197.5 143.578125 196.808594 143.078125 196.0625 C 142.578125 195.316406 142.160156 194.53125 141.816406 193.703125 C 141.472656 192.871094 141.214844 192.019531 141.039062 191.140625 C 140.863281 190.257812 140.777344 189.371094 140.777344 188.472656 Z M 140.777344 188.390625 "/></g></svg>