<svg xmlns="http://www.w3.org/2000/svg" xmlns:xlink="http://www.w3.org/1999/xlink" width="400" zoomAndPan="magnify" viewBox="0 0 300 299.999988" height="400" preserveAspectRatio="xMidYMid meet" version="1.2"><defs><clipPath id="f7bf3c790d"><path d="M 82 77.128906 L 218 77.128906 L 218 222 L 82 222 Z M 82 77.128906 "/></clipPath></defs><g id="cfa1ac528e"><g clip-rule="nonzero" clip-path="url(#f7bf3c790d)"><path style=" stroke:none;fill-rule:nonzero;fill:#000000;fill-opacity:1;" d="M 181.273438 179.710938 C 183.777344 185.492188 183.09375 191.515625 183.132812 197.46875 C 183.171875 203.402344 183.167969 209.335938 183.128906 215.269531 C 183.09375 219.683594 179.535156 222.625 175.429688 221.726562 C 172.566406 221.097656 170.554688 218.609375 170.546875 215.539062 C 170.53125 207.152344 170.5 198.765625 170.585938 190.378906 C 170.628906 186.203125 169.394531 182.574219 166.566406 179.503906 C 164.746094 177.527344 164.082031 175.273438 165.058594 172.730469 C 166.003906 170.269531 167.933594 169.125 170.53125 168.644531 C 175.296875 167.761719 180.132812 166.996094 184.726562 165.527344 C 195.339844 162.128906 201.554688 154.566406 203.820312 143.785156 C 205.210938 137.175781 205.859375 130.5 204.160156 123.820312 C 203.066406 119.515625 201.019531 115.675781 197.984375 112.4375 C 195.761719 110.066406 195.230469 107.558594 196.328125 104.484375 C 197.96875 99.90625 198.136719 95.207031 196.929688 90.179688 C 195.277344 90.742188 193.632812 91.097656 192.183594 91.832031 C 188.515625 93.6875 184.84375 95.574219 181.339844 97.71875 C 178.992188 99.160156 176.753906 99.589844 174.082031 98.898438 C 161.226562 95.578125 148.359375 95.585938 135.480469 98.914062 C 132.871094 99.589844 130.617188 99.257812 128.367188 97.738281 C 123.96875 94.765625 119.34375 92.191406 114.207031 90.671875 C 113.746094 90.535156 113.273438 90.445312 112.695312 90.308594 C 111.742188 93.816406 111.664062 97.253906 112.316406 100.699219 C 112.605469 102.230469 113.066406 103.738281 113.539062 105.230469 C 114.304688 107.628906 113.984375 109.828125 112.273438 111.671875 C 106.667969 117.714844 104.179688 124.847656 104.503906 133.039062 C 104.730469 138.703125 105.417969 144.273438 107.535156 149.582031 C 110.964844 158.183594 117.503906 163.40625 126.152344 166.03125 C 130.21875 167.265625 134.445312 168.011719 138.644531 168.730469 C 142.90625 169.457031 145.425781 172.070312 144.863281 175.925781 C 144.683594 177.15625 144.046875 178.488281 143.21875 179.421875 C 140.230469 182.804688 138.953125 186.652344 139.023438 191.144531 C 139.144531 199.234375 139.082031 207.328125 139.050781 215.421875 C 139.039062 219.132812 136.371094 221.875 132.855469 221.921875 C 129.316406 221.96875 126.578125 219.164062 126.542969 215.382812 C 126.511719 211.859375 126.535156 208.335938 126.535156 205 C 123.324219 205 120.238281 205.164062 117.175781 204.964844 C 109.875 204.492188 103.792969 201.316406 98.835938 196.039062 C 96.589844 193.648438 94.574219 191.039062 92.476562 188.507812 C 90.746094 186.417969 88.945312 184.5625 86.210938 183.617188 C 83.175781 182.570312 81.785156 178.96875 82.832031 175.925781 C 83.90625 172.804688 87.15625 171.085938 90.378906 171.910156 C 94.542969 172.976562 97.789062 175.441406 100.539062 178.609375 C 102.53125 180.90625 104.445312 183.277344 106.328125 185.667969 C 111.597656 192.355469 118.472656 193.742188 126.355469 191.859375 C 126.503906 189.769531 126.523438 187.707031 126.828125 185.6875 C 127.125 183.714844 127.710938 181.785156 128.183594 179.792969 C 125.9375 179.109375 123.582031 178.476562 121.28125 177.679688 C 104.472656 171.839844 95.34375 159.742188 92.746094 142.457031 C 91.722656 135.644531 91.371094 128.800781 92.949219 121.992188 C 94.203125 116.570312 96.449219 111.605469 99.765625 107.140625 C 100.335938 106.371094 100.539062 105.6875 100.320312 104.730469 C 98.550781 96.949219 99.195312 89.351562 102.167969 81.949219 C 103.402344 78.878906 105.445312 77.640625 108.738281 77.488281 C 116.503906 77.125 123.289062 80.101562 129.671875 83.921875 C 132.730469 85.75 135.433594 86.082031 138.847656 85.40625 C 150.503906 83.09375 162.195312 83.429688 173.804688 85.925781 C 175.144531 86.214844 176.175781 86.082031 177.359375 85.355469 C 183.121094 81.835938 189.117188 78.800781 195.875 77.734375 C 197.941406 77.40625 200.101562 77.40625 202.1875 77.59375 C 204.675781 77.820312 206.398438 79.324219 207.34375 81.65625 C 210.40625 89.1875 211.097656 96.914062 209.34375 104.867188 C 209.207031 105.480469 209.359375 106.351562 209.726562 106.851562 C 215.871094 115.257812 218.265625 124.6875 217.636719 134.984375 C 217.21875 141.824219 216.164062 148.523438 213.476562 154.882812 C 208.402344 166.90625 199.191406 174.253906 186.941406 178.117188 C 185.125 178.6875 183.277344 179.148438 181.273438 179.710938 Z M 181.273438 179.710938 "/></g></g></svg>