<svg xmlns="http://www.w3.org/2000/svg" xmlns:xlink="http://www.w3.org/1999/xlink" width="400" zoomAndPan="magnify" viewBox="0 0 300 299.999988" height="400" preserveAspectRatio="xMidYMid meet" version="1.2"><defs><clipPath id="1ec891705c"><path d="M 92.582031 100 L 207.332031 100 L 207.332031 231 L 92.582031 231 Z M 92.582031 100 "/></clipPath><clipPath id="cca3e15f7b"><path d="M 103 69.023438 L 125 69.023438 L 125 91 L 103 91 Z M 103 69.023438 "/></clipPath><clipPath id="85e2857007"><path d="M 127 69.023438 L 148 69.023438 L 148 91 L 127 91 Z M 127 69.023438 "/></clipPath><clipPath id="18fec8c200"><path d="M 151 69.023438 L 176 69.023438 L 176 91 L 151 91 Z M 151 69.023438 "/></clipPath><clipPath id="db2aa5d4d0"><path d="M 179 69.023438 L 197 69.023438 L 197 91 L 179 91 Z M 179 69.023438 "/></clipPath></defs><g id="1a8e77c751"><g clip-rule="nonzero" clip-path="url(#1ec891705c)"><path style=" stroke:none;fill-rule:nonzero;fill:#4d4d4d;fill-opacity:1;" d="M 207.296875 100.824219 L 196.855469 217.828125 L 149.90625 230.84375 L 103.089844 217.847656 L 92.65625 100.824219 L 207.300781 100.824219 Z M 207.296875 100.824219 "/></g><path style=" stroke:none;fill-rule:nonzero;fill:#4d4d4d;fill-opacity:1;" d="M 149.976562 220.894531 L 187.914062 210.378906 L 196.839844 110.394531 L 149.976562 110.394531 Z M 149.976562 220.894531 "/><path style=" stroke:none;fill-rule:nonzero;fill:#ebebeb;fill-opacity:1;" d="M 129.675781 139.097656 L 149.976562 139.097656 L 149.976562 124.742188 L 113.988281 124.742188 L 114.332031 128.59375 L 117.859375 168.144531 L 149.976562 168.144531 L 149.976562 153.796875 L 130.984375 153.796875 Z M 129.675781 139.097656 "/><path style=" stroke:none;fill-rule:nonzero;fill:#ebebeb;fill-opacity:1;" d="M 132.910156 175.324219 L 118.5 175.324219 L 120.511719 197.859375 L 149.910156 206.019531 L 149.976562 206.003906 L 149.976562 191.070312 L 149.914062 191.085938 L 133.929688 186.769531 Z M 132.910156 175.324219 "/><g clip-rule="nonzero" clip-path="url(#cca3e15f7b)"><path style=" stroke:none;fill-rule:nonzero;fill:#000000;fill-opacity:1;" d="M 103.324219 69.023438 L 110.617188 69.023438 L 110.617188 76.230469 L 117.289062 76.230469 L 117.289062 69.023438 L 124.582031 69.023438 L 124.582031 90.84375 L 117.289062 90.84375 L 117.289062 83.539062 L 110.617188 83.539062 L 110.617188 90.84375 L 103.324219 90.84375 Z M 103.324219 69.023438 "/></g><g clip-rule="nonzero" clip-path="url(#85e2857007)"><path style=" stroke:none;fill-rule:nonzero;fill:#000000;fill-opacity:1;" d="M 134.171875 76.261719 L 127.753906 76.261719 L 127.753906 69.023438 L 147.894531 69.023438 L 147.894531 76.261719 L 141.464844 76.261719 L 141.464844 90.84375 L 134.171875 90.84375 Z M 134.171875 76.261719 "/></g><g clip-rule="nonzero" clip-path="url(#18fec8c200)"><path style=" stroke:none;fill-rule:nonzero;fill:#000000;fill-opacity:1;" d="M 151.089844 69.023438 L 158.691406 69.023438 L 163.371094 76.691406 L 168.042969 69.023438 L 175.652344 69.023438 L 175.652344 90.84375 L 168.390625 90.84375 L 168.390625 80.03125 L 163.371094 87.789062 L 163.242188 87.789062 L 158.222656 80.03125 L 158.222656 90.84375 L 151.089844 90.84375 Z M 151.089844 69.023438 "/></g><g clip-rule="nonzero" clip-path="url(#db2aa5d4d0)"><path style=" stroke:none;fill-rule:nonzero;fill:#000000;fill-opacity:1;" d="M 179.28125 69.023438 L 186.578125 69.023438 L 186.578125 83.632812 L 196.835938 83.632812 L 196.835938 90.84375 L 179.28125 90.84375 Z M 179.28125 69.023438 "/></g><path style=" stroke:none;fill-rule:nonzero;fill:#ffffff;fill-opacity:1;" d="M 149.929688 168.144531 L 167.601562 168.144531 L 165.9375 186.757812 L 149.929688 191.082031 L 149.929688 206.011719 L 179.351562 197.859375 L 179.566406 195.433594 L 182.941406 157.648438 L 183.292969 153.796875 L 149.929688 153.796875 Z M 149.929688 168.144531 "/><path style=" stroke:none;fill-rule:nonzero;fill:#ffffff;fill-opacity:1;" d="M 149.929688 139.0625 L 149.929688 139.097656 L 184.59375 139.097656 L 184.882812 135.871094 L 185.539062 128.59375 L 185.878906 124.742188 L 149.929688 124.742188 Z M 149.929688 139.0625 "/></g></svg>