<svg xmlns="http://www.w3.org/2000/svg" xmlns:xlink="http://www.w3.org/1999/xlink" width="400" zoomAndPan="magnify" viewBox="0 0 300 299.999988" height="400" preserveAspectRatio="xMidYMid meet" version="1.2"><defs><clipPath id="dda1262e52"><path d="M 92.582031 100 L 207.332031 100 L 207.332031 231.023438 L 92.582031 231.023438 Z M 92.582031 100 "/></clipPath><clipPath id="43e170da55"><path d="M 103 69.023438 L 125 69.023438 L 125 91 L 103 91 Z M 103 69.023438 "/></clipPath><clipPath id="c299b5b152"><path d="M 127 69.023438 L 148 69.023438 L 148 91 L 127 91 Z M 127 69.023438 "/></clipPath><clipPath id="0bc2d25a15"><path d="M 151 69.023438 L 176 69.023438 L 176 91 L 151 91 Z M 151 69.023438 "/></clipPath><clipPath id="eecfcd569c"><path d="M 179 69.023438 L 197 69.023438 L 197 91 L 179 91 Z M 179 69.023438 "/></clipPath></defs><g id="f970727ef7"><g clip-rule="nonzero" clip-path="url(#dda1262e52)"><path style=" stroke:none;fill-rule:nonzero;fill:#e44d26;fill-opacity:1;" d="M 207.296875 100.859375 L 196.855469 217.988281 L 149.90625 231.015625 L 103.089844 218.007812 L 92.65625 100.859375 L 207.300781 100.859375 Z M 207.296875 100.859375 "/></g><path style=" stroke:none;fill-rule:nonzero;fill:#f16529;fill-opacity:1;" d="M 149.976562 221.058594 L 187.914062 210.53125 L 196.839844 110.4375 L 149.976562 110.4375 Z M 149.976562 221.058594 "/><path style=" stroke:none;fill-rule:nonzero;fill:#ebebeb;fill-opacity:1;" d="M 129.675781 139.171875 L 149.976562 139.171875 L 149.976562 124.804688 L 113.988281 124.804688 L 114.332031 128.660156 L 117.859375 168.253906 L 149.976562 168.253906 L 149.976562 153.886719 L 130.984375 153.886719 Z M 129.675781 139.171875 "/><path style=" stroke:none;fill-rule:nonzero;fill:#ebebeb;fill-opacity:1;" d="M 132.910156 175.4375 L 118.5 175.4375 L 120.511719 198 L 149.910156 206.167969 L 149.976562 206.148438 L 149.976562 191.199219 L 149.914062 191.21875 L 133.929688 186.894531 Z M 132.910156 175.4375 "/><g clip-rule="nonzero" clip-path="url(#43e170da55)"><path style=" stroke:none;fill-rule:nonzero;fill:#000000;fill-opacity:1;" d="M 103.324219 69.023438 L 110.617188 69.023438 L 110.617188 76.238281 L 117.289062 76.238281 L 117.289062 69.023438 L 124.582031 69.023438 L 124.582031 90.867188 L 117.289062 90.867188 L 117.289062 83.554688 L 110.617188 83.554688 L 110.617188 90.867188 L 103.324219 90.867188 Z M 103.324219 69.023438 "/></g><g clip-rule="nonzero" clip-path="url(#c299b5b152)"><path style=" stroke:none;fill-rule:nonzero;fill:#000000;fill-opacity:1;" d="M 134.171875 76.269531 L 127.753906 76.269531 L 127.753906 69.023438 L 147.894531 69.023438 L 147.894531 76.269531 L 141.464844 76.269531 L 141.464844 90.867188 L 134.171875 90.867188 Z M 134.171875 76.269531 "/></g><g clip-rule="nonzero" clip-path="url(#0bc2d25a15)"><path style=" stroke:none;fill-rule:nonzero;fill:#000000;fill-opacity:1;" d="M 151.089844 69.023438 L 158.691406 69.023438 L 163.371094 76.699219 L 168.042969 69.023438 L 175.652344 69.023438 L 175.652344 90.867188 L 168.390625 90.867188 L 168.390625 80.042969 L 163.371094 87.808594 L 163.242188 87.808594 L 158.222656 80.042969 L 158.222656 90.867188 L 151.089844 90.867188 Z M 151.089844 69.023438 "/></g><g clip-rule="nonzero" clip-path="url(#eecfcd569c)"><path style=" stroke:none;fill-rule:nonzero;fill:#000000;fill-opacity:1;" d="M 179.28125 69.023438 L 186.578125 69.023438 L 186.578125 83.648438 L 196.835938 83.648438 L 196.835938 90.867188 L 179.28125 90.867188 Z M 179.28125 69.023438 "/></g><path style=" stroke:none;fill-rule:nonzero;fill:#ffffff;fill-opacity:1;" d="M 149.929688 168.253906 L 167.601562 168.253906 L 165.9375 186.886719 L 149.929688 191.214844 L 149.929688 206.160156 L 179.351562 198 L 179.566406 195.570312 L 182.941406 157.742188 L 183.292969 153.886719 L 149.929688 153.886719 Z M 149.929688 168.253906 "/><path style=" stroke:none;fill-rule:nonzero;fill:#ffffff;fill-opacity:1;" d="M 149.929688 139.136719 L 149.929688 139.171875 L 184.59375 139.171875 L 184.882812 135.941406 L 185.539062 128.660156 L 185.878906 124.804688 L 149.929688 124.804688 Z M 149.929688 139.136719 "/></g></svg>