<svg xmlns="http://www.w3.org/2000/svg" xmlns:xlink="http://www.w3.org/1999/xlink" width="400" zoomAndPan="magnify" viewBox="0 0 300 299.999988" height="400" preserveAspectRatio="xMidYMid meet" version="1.2"><defs><clipPath id="e4397c09e5"><path d="M 90 92.546875 L 209 92.546875 L 209 160 L 90 160 Z M 90 92.546875 "/></clipPath><clipPath id="4d3bb33b13"><path d="M 86.164062 178 L 213 178 L 213 207 L 86.164062 207 Z M 86.164062 178 "/></clipPath><clipPath id="8b2fb0218c"><path d="M 86.164062 169 L 213.664062 169 L 213.664062 207.296875 L 86.164062 207.296875 Z M 86.164062 169 "/></clipPath></defs><g id="95519ff949"><g clip-rule="nonzero" clip-path="url(#e4397c09e5)"><path style=" stroke:none;fill-rule:nonzero;fill:#727171;fill-opacity:1;" d="M 98.859375 134.839844 C 98.859375 132.734375 98.144531 131.230469 96.707031 130.34375 C 95.269531 129.453125 93.230469 129.007812 90.511719 129.007812 L 90.511719 121.21875 C 91.863281 121.21875 93.058594 121.121094 94.101562 120.921875 C 95.164062 120.707031 96.054688 120.367188 96.773438 119.910156 C 97.488281 119.433594 98.023438 118.824219 98.371094 118.085938 C 98.738281 117.347656 98.902344 116.457031 98.859375 115.414062 L 98.859375 105.046875 C 98.859375 103.4375 99.066406 102.070312 99.496094 100.941406 C 99.921875 99.757812 100.660156 98.820312 101.714844 98.136719 C 102.800781 97.398438 104.265625 96.851562 106.117188 96.507812 C 107.96875 96.160156 110.316406 95.984375 113.160156 95.984375 L 113.160156 103.320312 C 112.289062 103.34375 111.496094 103.417969 110.78125 103.550781 C 110.085938 103.679688 109.488281 103.917969 108.988281 104.265625 C 108.511719 104.589844 108.140625 105.046875 107.878906 105.632812 C 107.617188 106.214844 107.488281 106.980469 107.488281 107.914062 L 107.488281 117.664062 C 107.359375 121.726562 104.8125 124.140625 99.859375 124.898438 L 99.859375 125.292969 C 102.355469 125.660156 104.269531 126.445312 105.582031 127.640625 C 106.890625 128.835938 107.535156 130.453125 107.488281 132.496094 L 107.488281 142.246094 C 107.488281 143.179688 107.617188 143.941406 107.878906 144.527344 C 108.140625 145.117188 108.507812 145.570312 108.988281 145.894531 C 109.488281 146.246094 110.101562 146.484375 110.78125 146.609375 C 111.566406 146.75 112.359375 146.824219 113.160156 146.839844 L 113.160156 154.207031 C 110.300781 154.207031 107.964844 154.050781 106.117188 153.6875 C 104.269531 153.324219 102.804688 152.796875 101.714844 152.058594 C 100.660156 151.371094 99.921875 150.4375 99.496094 149.253906 C 99.082031 148.101562 98.859375 146.722656 98.859375 145.113281 L 98.859375 134.84375 M 117.414062 138.980469 C 117.414062 137.960938 117.570312 137.101562 117.835938 136.40625 C 118.15625 135.691406 118.550781 135.113281 119.078125 134.679688 C 119.601562 134.242188 120.191406 133.929688 120.902344 133.734375 C 121.636719 133.53125 122.386719 133.433594 123.152344 133.4375 C 123.882812 133.433594 124.601562 133.53125 125.304688 133.734375 C 126 133.929688 126.609375 134.242188 127.128906 134.679688 C 127.652344 135.117188 128.0625 135.691406 128.367188 136.40625 C 128.6875 137.101562 128.824219 137.960938 128.824219 138.980469 C 128.824219 139.960938 128.671875 140.796875 128.367188 141.492188 C 128.066406 142.191406 127.652344 142.765625 127.128906 143.222656 C 126.59375 143.6875 125.988281 144.011719 125.304688 144.199219 C 124.628906 144.417969 123.914062 144.523438 123.152344 144.523438 C 122.347656 144.523438 121.597656 144.417969 120.902344 144.199219 C 120.21875 144.011719 119.609375 143.6875 119.078125 143.222656 C 118.535156 142.738281 118.121094 142.164062 117.835938 141.492188 C 117.554688 140.800781 117.414062 139.960938 117.414062 138.980469 M 135.804688 159.699219 C 134.722656 159.695312 133.648438 159.621094 132.578125 159.46875 C 131.46875 159.316406 130.546875 159.121094 129.804688 158.882812 L 129.804688 151.058594 C 130.421875 151.261719 131.054688 151.414062 131.695312 151.515625 C 132.285156 151.621094 132.945312 151.675781 133.683594 151.675781 C 134.210938 151.679688 134.71875 151.59375 135.214844 151.414062 C 135.734375 151.257812 136.15625 150.960938 136.488281 150.535156 C 136.855469 150.121094 137.152344 149.558594 137.367188 148.839844 C 137.585938 148.144531 137.695312 147.242188 137.695312 146.132812 L 137.695312 107.195312 L 147.636719 107.195312 L 147.636719 147.574219 C 147.636719 149.246094 147.421875 150.8125 147.003906 152.265625 C 146.589844 153.746094 145.890625 155.027344 144.949219 156.113281 C 144.011719 157.222656 142.796875 158.09375 141.296875 158.722656 C 139.796875 159.351562 137.972656 159.667969 135.820312 159.667969 M 137.289062 97.757812 C 137.289062 96.824219 137.445312 96.050781 137.710938 95.441406 C 137.96875 94.851562 138.351562 94.351562 138.851562 93.945312 C 139.367188 93.542969 139.945312 93.273438 140.582031 93.128906 C 141.277344 92.972656 141.984375 92.898438 142.699219 92.898438 C 143.40625 92.894531 144.101562 92.972656 144.789062 93.128906 C 145.421875 93.28125 146.003906 93.554688 146.480469 93.945312 C 146.980469 94.3125 147.371094 94.8125 147.65625 95.441406 C 147.972656 96.050781 148.113281 96.824219 148.113281 97.757812 C 148.113281 98.671875 147.960938 99.441406 147.65625 100.074219 C 147.371094 100.703125 146.980469 101.214844 146.480469 101.605469 C 146.003906 101.972656 145.4375 102.246094 144.789062 102.421875 C 144.152344 102.574219 143.441406 102.648438 142.703125 102.648438 C 141.988281 102.652344 141.28125 102.574219 140.582031 102.421875 C 139.953125 102.257812 139.378906 101.988281 138.855469 101.605469 C 138.378906 101.214844 137.996094 100.703125 137.714844 100.074219 C 137.429688 99.441406 137.289062 98.671875 137.289062 97.757812 M 182.183594 132.820312 C 182.183594 134.734375 181.832031 136.40625 181.140625 137.839844 C 180.445312 139.28125 179.457031 140.476562 178.171875 141.425781 C 176.890625 142.378906 175.335938 143.101562 173.511719 143.578125 C 171.683594 144.054688 169.640625 144.292969 167.382812 144.292969 C 166.1875 144.292969 165.078125 144.25 164.054688 144.164062 C 163.082031 144.105469 162.113281 143.984375 161.15625 143.804688 L 158.515625 143.167969 C 157.636719 142.894531 156.777344 142.570312 155.941406 142.191406 L 155.941406 133.945312 C 156.855469 134.402344 157.808594 134.816406 158.808594 135.1875 L 161.84375 136.164062 L 164.742188 136.800781 C 165.699219 136.953125 166.578125 137.027344 167.382812 137.027344 C 168.273438 137.027344 169.035156 136.953125 169.664062 136.800781 C 170.21875 136.671875 170.730469 136.441406 171.199219 136.117188 C 171.585938 135.847656 171.878906 135.5 172.078125 135.074219 C 172.273438 134.660156 172.371094 134.226562 172.371094 133.769531 C 172.371094 133.3125 172.296875 132.910156 172.144531 132.5625 C 172.011719 132.191406 171.699219 131.8125 171.199219 131.417969 C 170.699219 131.007812 169.957031 130.550781 168.980469 130.050781 L 165.101562 128.144531 L 160.960938 126.027344 C 159.808594 125.308594 158.851562 124.515625 158.09375 123.644531 C 157.351562 122.777344 156.800781 121.785156 156.429688 120.679688 C 156.058594 119.574219 155.871094 118.210938 155.871094 116.671875 C 155.871094 114.976562 156.199219 113.496094 156.851562 112.21875 C 157.484375 110.9375 158.441406 109.871094 159.621094 109.039062 C 160.800781 108.207031 162.25 107.5625 163.925781 107.132812 C 165.621094 106.699219 167.5 106.496094 169.566406 106.496094 C 171.738281 106.496094 173.804688 106.746094 175.757812 107.246094 C 177.714844 107.746094 179.726562 108.496094 181.789062 109.496094 L 178.773438 116.617188 C 177.238281 115.882812 175.660156 115.242188 174.046875 114.695312 C 172.546875 114.195312 171.046875 113.945312 169.546875 113.945312 C 168.199219 113.945312 167.222656 114.183594 166.613281 114.660156 C 166.023438 115.136719 165.730469 115.773438 165.730469 116.613281 C 165.730469 117.046875 165.808594 117.441406 165.960938 117.789062 C 166.113281 118.113281 166.417969 118.460938 166.875 118.832031 C 167.328125 119.179688 167.984375 119.570312 168.78125 120.003906 L 172.007812 121.535156 L 176.179688 123.554688 C 177.421875 124.191406 178.484375 124.957031 179.359375 125.804688 C 180.234375 126.652344 180.949219 127.640625 181.414062 128.769531 C 181.878906 129.902344 182.128906 131.269531 182.128906 132.878906 M 199.875 145.109375 C 199.875 146.71875 199.667969 148.097656 199.238281 149.25 C 198.8125 150.402344 198.078125 151.339844 196.992188 152.054688 C 195.925781 152.796875 194.46875 153.339844 192.621094 153.683594 C 190.773438 154.03125 188.425781 154.207031 185.578125 154.207031 L 185.578125 146.824219 C 186.367188 146.808594 187.152344 146.730469 187.925781 146.59375 C 188.621094 146.464844 189.210938 146.226562 189.6875 145.878906 C 190.207031 145.535156 190.585938 145.082031 190.828125 144.507812 C 191.113281 143.921875 191.253906 143.160156 191.253906 142.226562 L 191.253906 132.480469 C 191.191406 130.4375 191.816406 128.816406 193.160156 127.621094 C 194.503906 126.425781 196.386719 125.644531 198.882812 125.273438 L 198.882812 124.882812 C 193.949219 124.117188 191.417969 121.707031 191.289062 117.644531 L 191.289062 107.894531 C 191.289062 106.960938 191.128906 106.199219 190.863281 105.613281 C 190.621094 105.042969 190.242188 104.585938 189.722656 104.242188 C 189.246094 103.894531 188.65625 103.65625 187.960938 103.527344 C 187.1875 103.390625 186.402344 103.316406 185.613281 103.300781 L 185.613281 95.964844 C 188.476562 95.964844 190.808594 96.125 192.65625 96.484375 C 194.503906 96.847656 195.960938 97.375 197.027344 98.117188 C 198.113281 98.832031 198.863281 99.769531 199.273438 100.917969 C 199.6875 102.03125 199.910156 103.417969 199.910156 105.027344 L 199.910156 115.390625 C 199.886719 116.433594 200.070312 117.328125 200.402344 118.066406 C 200.730469 118.804688 201.28125 119.414062 202 119.890625 C 202.714844 120.347656 203.597656 120.6875 204.636719 120.902344 C 205.703125 121.097656 206.910156 121.195312 208.253906 121.195312 L 208.253906 128.984375 C 205.554688 128.984375 203.460938 129.429688 202.027344 130.320312 C 200.597656 131.210938 199.910156 132.710938 199.910156 134.820312 L 199.910156 145.089844 "/></g><g clip-rule="nonzero" clip-path="url(#4d3bb33b13)"><path style=" stroke:none;fill-rule:nonzero;fill:#727171;fill-opacity:1;" d="M 89.097656 204.71875 C 88.621094 204.71875 88.207031 204.6875 87.855469 204.621094 C 87.5 204.566406 87.191406 204.484375 86.933594 204.382812 L 86.933594 202.144531 C 87.265625 202.230469 87.609375 202.296875 87.953125 202.339844 C 88.339844 202.398438 88.730469 202.425781 89.125 202.425781 C 89.476562 202.421875 89.820312 202.375 90.160156 202.285156 C 90.511719 202.203125 90.832031 202.042969 91.109375 201.808594 C 91.398438 201.574219 91.628906 201.253906 91.808594 200.84375 C 91.988281 200.4375 92.074219 199.914062 92.074219 199.28125 L 92.074219 178.855469 L 94.6875 178.855469 L 94.6875 199.003906 C 94.6875 199.980469 94.546875 200.828125 94.269531 201.546875 C 94.023438 202.226562 93.640625 202.820312 93.121094 203.320312 C 92.617188 203.808594 92.03125 204.160156 91.363281 204.367188 C 90.683594 204.601562 89.753906 204.71875 88.925781 204.71875 M 107.671875 197.160156 L 107.5625 197.160156 C 107.28125 197.546875 106.972656 197.910156 106.640625 198.25 C 106.339844 198.542969 106.003906 198.789062 105.632812 198.992188 C 105.25 199.195312 104.84375 199.339844 104.417969 199.425781 C 103.96875 199.519531 103.453125 199.5625 102.867188 199.5625 C 102.222656 199.5625 101.632812 199.46875 101.089844 199.285156 C 100.554688 199.121094 100.085938 198.847656 99.679688 198.457031 C 99.289062 198.078125 98.980469 197.597656 98.757812 197.035156 C 98.535156 196.457031 98.441406 195.761719 98.441406 194.992188 C 98.441406 193.46875 98.976562 192.292969 100.03125 191.472656 C 101.109375 190.652344 102.730469 190.207031 104.949219 190.132812 L 107.519531 190.03125 L 107.519531 189.070312 C 107.519531 188.445312 107.449219 187.925781 107.308594 187.503906 C 107.179688 187.085938 106.984375 186.75 106.71875 186.5 C 106.453125 186.226562 106.136719 186.039062 105.769531 185.9375 C 105.347656 185.820312 104.921875 185.765625 104.484375 185.773438 C 103.742188 185.765625 103.023438 185.878906 102.320312 186.105469 C 101.660156 186.328125 101.023438 186.597656 100.40625 186.917969 L 99.511719 185.003906 C 100.199219 184.628906 100.96875 184.3125 101.816406 184.050781 C 102.6875 183.789062 103.574219 183.65625 104.484375 183.660156 C 105.4375 183.660156 106.253906 183.757812 106.945312 183.953125 C 107.644531 184.140625 108.214844 184.445312 108.660156 184.859375 C 109.136719 185.300781 109.476562 185.824219 109.683594 186.441406 C 109.90625 187.082031 110 187.859375 110 188.773438 L 110 199.28125 L 108.179688 199.28125 Z M 103.539062 197.5 C 104.082031 197.503906 104.609375 197.417969 105.117188 197.234375 C 105.597656 197.066406 106.015625 196.800781 106.375 196.441406 C 106.726562 196.078125 107.003906 195.625 107.199219 195.085938 C 107.40625 194.535156 107.507812 193.894531 107.507812 193.15625 L 107.507812 191.773438 L 105.507812 191.875 C 104.671875 191.910156 103.96875 192.003906 103.398438 192.152344 C 102.832031 192.300781 102.375 192.511719 102.03125 192.78125 C 101.714844 193.042969 101.457031 193.363281 101.304688 193.746094 C 101.148438 194.15625 101.074219 194.578125 101.082031 195.019531 C 101.082031 195.875 101.304688 196.503906 101.753906 196.90625 C 102.207031 197.304688 102.804688 197.503906 103.539062 197.503906 M 112.15625 183.941406 L 114.785156 183.941406 L 117.566406 192.480469 L 117.929688 193.667969 L 118.351562 195.148438 L 118.726562 196.574219 L 118.964844 197.59375 L 119.066406 197.59375 L 119.304688 196.574219 L 119.679688 195.148438 L 120.097656 193.667969 L 120.464844 192.480469 L 123.246094 183.941406 L 125.875 183.941406 L 120.621094 199.28125 L 117.394531 199.28125 Z M 136.253906 197.160156 L 136.140625 197.160156 C 135.863281 197.546875 135.554688 197.910156 135.21875 198.25 C 134.59375 198.855469 133.851562 199.246094 132.996094 199.425781 C 132.546875 199.519531 132.035156 199.5625 131.445312 199.5625 C 130.804688 199.5625 130.210938 199.46875 129.671875 199.285156 C 129.132812 199.121094 128.664062 198.847656 128.257812 198.457031 C 127.867188 198.078125 127.558594 197.597656 127.335938 197.035156 C 127.113281 196.457031 127.019531 195.761719 127.019531 194.992188 C 127.019531 193.46875 127.554688 192.292969 128.609375 191.472656 C 129.691406 190.652344 131.3125 190.207031 133.527344 190.132812 L 136.097656 190.03125 L 136.097656 189.070312 C 136.097656 188.445312 136.027344 187.925781 135.886719 187.503906 C 135.757812 187.085938 135.5625 186.75 135.300781 186.5 C 135.035156 186.226562 134.71875 186.039062 134.347656 185.9375 C 133.929688 185.820312 133.5 185.765625 133.0625 185.773438 C 132.324219 185.765625 131.601562 185.878906 130.898438 186.105469 C 130.238281 186.328125 129.601562 186.597656 128.984375 186.917969 L 128.089844 185.003906 C 128.78125 184.628906 129.546875 184.3125 130.394531 184.050781 C 131.265625 183.785156 132.15625 183.65625 133.066406 183.660156 C 134.015625 183.660156 134.835938 183.757812 135.527344 183.953125 C 136.226562 184.140625 136.796875 184.445312 137.242188 184.859375 C 137.71875 185.300781 138.058594 185.824219 138.261719 186.441406 C 138.488281 187.082031 138.582031 187.859375 138.582031 188.773438 L 138.582031 199.28125 L 136.753906 199.28125 Z M 132.121094 197.507812 C 132.660156 197.515625 133.1875 197.425781 133.699219 197.242188 C 134.175781 197.074219 134.59375 196.808594 134.953125 196.449219 C 135.308594 196.082031 135.582031 195.632812 135.78125 195.09375 C 135.988281 194.542969 136.085938 193.902344 136.085938 193.164062 L 136.085938 191.78125 L 134.089844 191.882812 C 133.25 191.917969 132.546875 192.011719 131.980469 192.160156 C 131.410156 192.308594 130.953125 192.519531 130.613281 192.789062 C 130.292969 193.050781 130.035156 193.371094 129.886719 193.753906 C 129.730469 194.164062 129.652344 194.585938 129.660156 195.027344 C 129.660156 195.882812 129.882812 196.511719 130.332031 196.914062 C 130.789062 197.3125 131.382812 197.511719 132.121094 197.511719 M 154.269531 193.820312 C 154.269531 194.722656 154.105469 195.535156 153.78125 196.253906 C 153.464844 196.960938 153.011719 197.5625 152.410156 198.054688 C 151.816406 198.53125 151.089844 198.925781 150.234375 199.1875 C 149.375 199.4375 148.414062 199.5625 147.339844 199.5625 C 146.363281 199.570312 145.394531 199.484375 144.433594 199.3125 C 143.539062 199.152344 142.789062 198.914062 142.183594 198.601562 L 142.183594 196.113281 L 143.261719 196.558594 L 144.535156 196.9375 L 145.917969 197.214844 C 146.382812 197.28125 146.855469 197.3125 147.328125 197.316406 C 148.816406 197.316406 149.917969 197.035156 150.625 196.476562 C 151.339844 195.917969 151.703125 195.117188 151.703125 194.074219 C 151.710938 193.625 151.640625 193.183594 151.492188 192.761719 C 151.359375 192.386719 151.125 192.046875 150.777344 191.738281 C 150.460938 191.421875 149.992188 191.105469 149.421875 190.832031 C 148.726562 190.46875 148.007812 190.148438 147.269531 189.871094 C 146.515625 189.582031 145.796875 189.226562 145.105469 188.808594 C 144.5 188.417969 143.996094 187.980469 143.59375 187.496094 C 143.203125 187.011719 142.910156 186.460938 142.714844 185.847656 C 142.527344 185.230469 142.433594 184.535156 142.433594 183.75 C 142.433594 182.929688 142.585938 182.203125 142.878906 181.558594 C 143.171875 180.917969 143.589844 180.378906 144.136719 179.9375 C 144.710938 179.46875 145.355469 179.128906 146.066406 178.914062 C 146.820312 178.683594 147.648438 178.566406 148.550781 178.566406 C 149.660156 178.566406 150.65625 178.671875 151.539062 178.886719 C 152.425781 179.09375 153.214844 179.359375 153.902344 179.683594 L 152.949219 181.859375 C 152.34375 181.589844 151.652344 181.355469 150.882812 181.160156 C 150.101562 180.953125 149.3125 180.851562 148.507812 180.851562 C 147.371094 180.851562 146.488281 181.117188 145.867188 181.648438 C 145.554688 181.910156 145.3125 182.226562 145.144531 182.601562 C 144.976562 182.972656 144.898438 183.363281 144.914062 183.773438 C 144.914062 184.304688 144.984375 184.765625 145.125 185.15625 C 145.273438 185.558594 145.507812 185.90625 145.820312 186.203125 C 146.148438 186.507812 146.574219 186.804688 147.09375 187.082031 C 147.632812 187.355469 148.292969 187.644531 149.078125 187.949219 C 149.839844 188.246094 150.582031 188.589844 151.296875 188.984375 C 151.894531 189.300781 152.429688 189.703125 152.90625 190.183594 C 153.335938 190.632812 153.660156 191.148438 153.867188 191.738281 C 154.089844 192.324219 154.210938 193.042969 154.210938 193.84375 M 163.671875 199.5625 C 162.730469 199.5625 161.851562 199.402344 161.035156 199.128906 C 160.210938 198.832031 159.496094 198.367188 158.894531 197.730469 C 158.292969 197.085938 157.816406 196.273438 157.472656 195.285156 C 157.125 194.289062 156.957031 193.089844 156.957031 191.691406 C 156.957031 190.230469 157.113281 188.988281 157.484375 187.976562 C 157.839844 186.949219 158.324219 186.121094 158.9375 185.488281 C 159.554688 184.851562 160.28125 184.382812 161.117188 184.089844 C 161.945312 183.800781 162.835938 183.65625 163.789062 183.65625 C 164.503906 183.65625 165.210938 183.734375 165.910156 183.894531 C 166.515625 184.019531 167.101562 184.214844 167.660156 184.480469 L 166.902344 186.632812 C 166.6875 186.535156 166.453125 186.449219 166.191406 186.367188 C 165.929688 186.273438 165.664062 186.195312 165.398438 186.128906 C 165.117188 186.054688 164.839844 185.996094 164.570312 185.960938 C 164.316406 185.917969 164.058594 185.894531 163.800781 185.890625 C 162.339844 185.890625 161.257812 186.363281 160.601562 187.304688 C 159.929688 188.234375 159.597656 189.6875 159.597656 191.660156 C 159.597656 193.625 159.914062 195.066406 160.601562 195.980469 C 161.28125 196.882812 162.3125 197.332031 163.6875 197.332031 C 164.378906 197.34375 165.058594 197.257812 165.730469 197.082031 C 166.304688 196.921875 166.863281 196.714844 167.40625 196.46875 L 167.40625 198.730469 C 166.890625 199.007812 166.351562 199.210938 165.785156 199.347656 C 165.21875 199.488281 164.480469 199.554688 163.652344 199.554688 M 177.59375 183.664062 L 178.5 183.703125 C 178.789062 183.71875 179.078125 183.75 179.367188 183.800781 L 179.046875 186.148438 L 178.253906 186.039062 C 177.980469 186 177.726562 185.984375 177.484375 185.984375 C 176.898438 185.984375 176.363281 186.105469 175.894531 186.347656 C 175.394531 186.589844 174.976562 186.929688 174.636719 187.367188 C 174.269531 187.84375 174.003906 188.375 173.84375 188.960938 C 173.648438 189.628906 173.554688 190.316406 173.5625 191.011719 L 173.5625 199.28125 L 171.019531 199.28125 L 171.019531 183.941406 L 173.085938 183.941406 L 173.394531 186.75 L 173.503906 186.75 L 174.246094 185.589844 C 174.503906 185.230469 174.800781 184.902344 175.140625 184.613281 C 175.476562 184.324219 175.847656 184.09375 176.257812 183.929688 C 176.71875 183.742188 177.199219 183.65625 177.699219 183.664062 M 184.726562 199.28125 L 182.183594 199.28125 L 182.183594 183.941406 L 184.726562 183.941406 L 184.726562 199.28125 M 182.40625 178.578125 C 182.710938 178.3125 183.0625 178.1875 183.46875 178.199219 C 183.664062 178.199219 183.855469 178.230469 184.039062 178.296875 C 184.222656 178.351562 184.378906 178.445312 184.515625 178.578125 C 184.660156 178.71875 184.769531 178.886719 184.835938 179.082031 C 184.917969 179.277344 184.960938 179.515625 184.960938 179.792969 C 184.960938 180.332031 184.8125 180.738281 184.519531 181.007812 C 184.226562 181.269531 183.882812 181.398438 183.46875 181.398438 C 183.054688 181.398438 182.683594 181.203125 182.394531 180.941406 C 182.117188 180.683594 181.980469 180.273438 181.984375 179.757812 C 181.988281 179.234375 182.144531 178.828125 182.40625 178.578125 Z M 196.402344 199.5625 C 195.894531 199.566406 195.398438 199.507812 194.90625 199.378906 C 194.460938 199.257812 194.054688 199.101562 193.691406 198.902344 C 193.347656 198.703125 193.027344 198.46875 192.742188 198.191406 C 192.476562 197.925781 192.234375 197.640625 192.015625 197.339844 L 191.847656 197.339844 L 191.933594 198.246094 L 191.988281 199 L 192.015625 199.601562 L 192.015625 206.152344 L 189.472656 206.152344 L 189.472656 183.941406 L 191.539062 183.941406 L 191.90625 186.007812 L 192.015625 186.007812 C 192.230469 185.683594 192.472656 185.382812 192.742188 185.101562 C 193.019531 184.808594 193.332031 184.5625 193.679688 184.359375 C 194.0625 184.136719 194.46875 183.96875 194.894531 183.859375 C 195.390625 183.722656 195.890625 183.65625 196.402344 183.664062 C 197.277344 183.664062 198.078125 183.828125 198.792969 184.164062 C 199.511719 184.5 200.121094 185.003906 200.621094 185.675781 C 201.132812 186.335938 201.527344 187.160156 201.808594 188.148438 C 202.089844 189.136719 202.230469 190.28125 202.230469 191.585938 C 202.230469 192.898438 202.089844 194.054688 201.808594 195.050781 C 201.527344 196.035156 201.132812 196.867188 200.621094 197.539062 C 200.117188 198.207031 199.507812 198.714844 198.792969 199.058594 C 198.078125 199.378906 197.101562 199.5625 196.226562 199.5625 M 195.914062 185.773438 C 195.207031 185.773438 194.605469 185.878906 194.113281 186.09375 C 193.625 186.308594 193.230469 186.632812 192.925781 187.070312 C 192.617188 187.507812 192.402344 188.054688 192.253906 188.703125 C 192.101562 189.464844 192.023438 190.234375 192.015625 191.011719 L 192.015625 191.582031 C 192.007812 192.425781 192.070312 193.265625 192.199219 194.097656 C 192.328125 194.824219 192.542969 195.4375 192.839844 195.941406 C 193.140625 196.433594 193.546875 196.808594 194.054688 197.074219 C 194.558594 197.324219 195.1875 197.449219 195.941406 197.449219 C 197.214844 197.449219 198.121094 196.941406 198.710938 195.925781 C 199.296875 194.914062 199.601562 193.453125 199.605469 191.554688 C 199.605469 189.617188 199.304688 188.167969 198.710938 187.210938 C 198.117188 186.253906 197.191406 185.773438 195.914062 185.773438 M 210.699219 197.480469 C 210.867188 197.480469 211.054688 197.464844 211.257812 197.453125 L 211.875 197.382812 L 212.40625 197.28125 L 212.78125 197.183594 L 212.78125 199.113281 C 212.660156 199.167969 212.507812 199.222656 212.304688 199.28125 C 212.105469 199.339844 211.898438 199.386719 211.691406 199.417969 C 211.46875 199.46875 211.234375 199.5 210.992188 199.519531 C 210.753906 199.546875 210.515625 199.558594 210.277344 199.558594 C 209.703125 199.558594 209.167969 199.484375 208.6875 199.335938 C 208.195312 199.191406 207.765625 198.933594 207.402344 198.570312 C 207.046875 198.203125 206.769531 197.71875 206.5625 197.101562 C 206.355469 196.476562 206.257812 195.695312 206.257812 194.753906 L 206.257812 185.851562 L 204.089844 185.851562 L 204.089844 184.71875 L 206.257812 183.628906 L 207.347656 180.414062 L 208.816406 180.414062 L 208.816406 183.9375 L 212.703125 183.9375 L 212.703125 185.851562 L 208.847656 185.851562 L 208.847656 194.753906 C 208.847656 195.65625 209.007812 196.335938 209.28125 196.792969 C 209.554688 197.25 210.0625 197.476562 210.734375 197.476562 "/></g><g clip-rule="nonzero" clip-path="url(#8b2fb0218c)"><path style="fill:none;stroke-width:1;stroke-linecap:butt;stroke-linejoin:miter;stroke:#000000;stroke-opacity:1;stroke-miterlimit:4;" d="M 6.745502 83.419375 C 6.445722 83.419375 6.185258 83.399718 5.964109 83.357945 C 5.740503 83.323544 5.546384 83.271943 5.384208 83.208055 L 5.384208 81.800075 C 5.593071 81.854134 5.809305 81.895906 6.02554 81.922936 C 6.268803 81.959794 6.514524 81.976994 6.762702 81.976994 C 6.983851 81.974537 7.200085 81.94505 7.413862 81.888535 C 7.635011 81.836933 7.836502 81.736188 8.010964 81.588755 C 8.192797 81.441323 8.337772 81.239832 8.450804 80.981825 C 8.563836 80.726275 8.617894 80.397009 8.617894 79.998942 L 8.617894 67.1502 L 10.261766 67.1502 L 10.261766 79.82448 C 10.261766 80.438782 10.173307 80.971996 9.998845 81.424122 C 9.844041 81.851677 9.603235 82.225172 9.276426 82.539695 C 8.959446 82.846846 8.590865 83.067995 8.170682 83.198227 C 7.743128 83.345659 7.158313 83.419375 6.637384 83.419375 M 18.429526 78.664678 L 18.360724 78.664678 C 18.183805 78.907941 17.989686 79.136462 17.780823 79.350239 C 17.591618 79.534529 17.380298 79.689333 17.146864 79.817108 C 16.906057 79.944883 16.650508 80.0358 16.382672 80.089858 C 16.100093 80.148831 15.775742 80.175861 15.40716 80.175861 C 15.001721 80.175861 14.630683 80.116888 14.289131 80.001399 C 13.952493 79.898196 13.657628 79.726192 13.402078 79.480471 C 13.156358 79.242122 12.962238 78.939885 12.822177 78.586047 C 12.682116 78.22238 12.623143 77.784997 12.623143 77.300927 C 12.623143 76.342616 12.959781 75.602996 13.623227 75.086983 C 14.301417 74.570969 15.321158 74.290847 16.716852 74.24416 L 18.333695 74.180273 L 18.333695 73.5758 C 18.333695 73.182646 18.289465 72.855838 18.201006 72.590459 C 18.119918 72.327538 17.997058 72.116218 17.829968 71.958957 C 17.662877 71.786952 17.463843 71.669006 17.232866 71.605119 C 16.967487 71.531402 16.699652 71.497001 16.424444 71.501916 C 15.957575 71.497001 15.505449 71.56826 15.063151 71.710779 C 14.647883 71.850839 14.247358 72.020387 13.859119 72.221878 L 13.296418 71.017846 C 13.728887 70.781954 14.212957 70.58292 14.746171 70.418287 C 15.294129 70.253654 15.851915 70.170109 16.424444 70.172566 C 17.024003 70.172566 17.53756 70.233996 17.972486 70.356857 C 18.412326 70.474803 18.771078 70.666465 19.0512 70.926929 C 19.350979 71.204594 19.564756 71.53386 19.694988 71.922098 C 19.835049 72.325081 19.894022 72.814065 19.894022 73.389052 L 19.894022 79.998942 L 18.748963 79.998942 Z M 15.8298 78.878455 C 16.171352 78.880912 16.503075 78.826853 16.822512 78.711365 C 17.124749 78.605705 17.38767 78.438614 17.613733 78.212551 C 17.834882 77.984031 18.009344 77.698995 18.132204 77.3599 C 18.262436 77.013434 18.326324 76.610452 18.326324 76.146039 L 18.326324 75.276188 L 17.068233 75.340075 C 16.54239 75.36219 16.100093 75.421163 15.741341 75.514537 C 15.385045 75.607911 15.097552 75.7406 14.881318 75.910147 C 14.682284 76.07478 14.520108 76.276271 14.424277 76.517078 C 14.325989 76.775085 14.279302 77.040463 14.284216 77.318128 C 14.284216 77.856256 14.424277 78.251867 14.706856 78.504959 C 14.991892 78.755594 15.367845 78.880912 15.8298 78.880912 M 21.250401 70.349485 L 22.904102 70.349485 L 24.653635 75.720942 L 24.882155 76.467934 L 25.147533 77.399215 L 25.383425 78.296096 L 25.533315 78.937428 L 25.597202 78.937428 L 25.747092 78.296096 L 25.982984 77.399215 L 26.245905 76.467934 L 26.476883 75.720942 L 28.226415 70.349485 L 29.880116 70.349485 L 26.575171 79.998942 L 24.545517 79.998942 Z M 36.408918 78.664678 L 36.337659 78.664678 C 36.163197 78.907941 35.969078 79.136462 35.757758 79.350239 C 35.364605 79.731106 34.897735 79.976827 34.359607 80.089858 C 34.077028 80.148831 33.755133 80.175861 33.384095 80.175861 C 32.981113 80.175861 32.607617 80.116888 32.268523 80.001399 C 31.929428 79.898196 31.634563 79.726192 31.379013 79.480471 C 31.133292 79.242122 30.939173 78.939885 30.799112 78.586047 C 30.659051 78.22238 30.600078 77.784997 30.600078 77.300927 C 30.600078 76.342616 30.936716 75.602996 31.600162 75.086983 C 32.280809 74.570969 33.30055 74.290847 34.693787 74.24416 L 36.31063 74.180273 L 36.31063 73.5758 C 36.31063 73.182646 36.2664 72.855838 36.177941 72.590459 C 36.096853 72.327538 35.973992 72.116218 35.809359 71.958957 C 35.642269 71.786952 35.443235 71.669006 35.209801 71.605119 C 34.946879 71.531402 34.676587 71.497001 34.401379 71.501916 C 33.936967 71.497001 33.482383 71.56826 33.040086 71.710779 C 32.624818 71.850839 32.224293 72.020387 31.836054 72.221878 L 31.273353 71.017846 C 31.708279 70.781954 32.189892 70.58292 32.723106 70.418287 C 33.271063 70.251197 33.831307 70.170109 34.403836 70.172566 C 35.000938 70.172566 35.516952 70.233996 35.951878 70.356857 C 36.391718 70.474803 36.75047 70.666465 37.030592 70.926929 C 37.330371 71.204594 37.544148 71.53386 37.671923 71.922098 C 37.814441 72.325081 37.873414 72.814065 37.873414 73.389052 L 37.873414 79.998942 L 36.723441 79.998942 Z M 33.809192 78.883369 C 34.148287 78.888284 34.48001 78.831768 34.801904 78.716279 C 35.101684 78.610619 35.364605 78.443529 35.590668 78.217466 C 35.814274 77.986488 35.986278 77.703909 36.111596 77.364814 C 36.241828 77.018348 36.303258 76.615366 36.303258 76.150954 L 36.303258 75.281102 L 35.047625 75.344989 C 34.519325 75.367104 34.077028 75.426077 33.720733 75.519451 C 33.36198 75.612825 33.074487 75.745514 32.86071 75.915062 C 32.659219 76.079695 32.497043 76.281186 32.403669 76.521992 C 32.305381 76.779999 32.256237 77.045377 32.261151 77.323042 C 32.261151 77.861171 32.401212 78.256781 32.683791 78.509873 C 32.971284 78.760509 33.34478 78.885826 33.809192 78.885826 M 47.741562 76.563765 C 47.741562 77.13138 47.638359 77.642479 47.434411 78.094605 C 47.235377 78.53936 46.950341 78.91777 46.571931 79.227378 C 46.198435 79.527158 45.741395 79.775336 45.203266 79.939969 C 44.66268 80.09723 44.058207 80.175861 43.382475 80.175861 C 42.768173 80.180775 42.158785 80.126716 41.554312 80.018599 C 40.991611 79.917854 40.519827 79.767964 40.13896 79.571387 L 40.13896 78.006146 L 40.81715 78.286268 L 41.6182 78.524617 L 42.488051 78.699079 C 42.780459 78.740851 43.077781 78.760509 43.375103 78.762966 C 44.3113 78.762966 45.004232 78.586047 45.448987 78.234666 C 45.898656 77.883285 46.127176 77.379558 46.127176 76.723483 C 46.132091 76.440904 46.087861 76.16324 45.994487 75.897861 C 45.910942 75.661969 45.76351 75.448192 45.544818 75.254073 C 45.345784 75.055039 45.050919 74.856005 44.692167 74.684 C 44.254784 74.45548 43.802658 74.253989 43.338245 74.079527 C 42.864004 73.897694 42.411878 73.674088 41.976952 73.411167 C 41.596085 73.165446 41.279105 72.890238 41.026012 72.585545 C 40.780292 72.280851 40.596001 71.934384 40.473141 71.548603 C 40.355195 71.160364 40.296222 70.722981 40.296222 70.229082 C 40.296222 69.713068 40.392053 69.256028 40.576343 68.850588 C 40.760634 68.447606 41.023555 68.108511 41.367564 67.830847 C 41.728774 67.535982 42.134213 67.322205 42.581425 67.187058 C 43.055666 67.042083 43.576594 66.968367 44.144209 66.968367 C 44.842057 66.968367 45.468645 67.034711 46.023974 67.169858 C 46.58176 67.30009 47.078116 67.46718 47.510585 67.671128 L 46.911026 69.039793 C 46.530159 68.870246 46.095233 68.722813 45.611163 68.599953 C 45.119721 68.469721 44.623365 68.405834 44.11718 68.405834 C 43.402133 68.405834 42.846804 68.572924 42.456107 68.907104 C 42.259531 69.071737 42.107184 69.270771 42.001524 69.506663 C 41.895864 69.740098 41.84672 69.985818 41.856549 70.243825 C 41.856549 70.578006 41.900778 70.867956 41.989238 71.113677 C 42.082612 71.366769 42.230044 71.585461 42.426621 71.772209 C 42.633026 71.963871 42.900862 72.150619 43.227671 72.325081 C 43.566766 72.497085 43.982034 72.678919 44.475933 72.870581 C 44.955088 73.057329 45.421958 73.273563 45.871627 73.521741 C 46.24758 73.720775 46.584217 73.973867 46.883997 74.276104 C 47.154289 74.558683 47.358238 74.883034 47.48847 75.254073 C 47.628531 75.622654 47.704704 76.07478 47.704704 76.578508 M 53.656062 80.175861 C 53.063875 80.175861 52.511003 80.075115 51.997447 79.90311 C 51.478976 79.716363 51.029307 79.423955 50.650897 79.02343 C 50.272487 78.617991 49.972707 78.106891 49.756473 77.485218 C 49.537781 76.85863 49.432121 76.104267 49.432121 75.224586 C 49.432121 74.30559 49.53041 73.524198 49.763845 72.887781 C 49.98745 72.241536 50.292144 71.720607 50.677926 71.32254 C 51.066165 70.922015 51.523206 70.62715 52.049048 70.442859 C 52.569976 70.261026 53.13022 70.170109 53.729778 70.170109 C 54.179448 70.170109 54.624202 70.219253 55.064042 70.319999 C 55.44491 70.398629 55.813491 70.52149 56.164872 70.68858 L 55.688173 72.042502 C 55.553027 71.981071 55.405594 71.927013 55.240961 71.875412 C 55.076329 71.816439 54.909238 71.767294 54.742148 71.725522 C 54.565229 71.678835 54.390767 71.641977 54.22122 71.619862 C 54.061502 71.592833 53.899326 71.578089 53.73715 71.575632 C 52.818154 71.575632 52.137508 71.872954 51.724697 72.465141 C 51.302057 73.049957 51.093194 73.964038 51.093194 75.204929 C 51.093194 76.440904 51.292228 77.347614 51.724697 77.922601 C 52.152251 78.490216 52.800954 78.772795 53.665891 78.772795 C 54.100817 78.780166 54.528371 78.726108 54.951011 78.615533 C 55.31222 78.514788 55.663601 78.384556 56.005153 78.229752 L 56.005153 79.652475 C 55.680802 79.826937 55.341707 79.954712 54.985412 80.040714 C 54.629117 80.129174 54.164704 80.170946 53.643776 80.170946 M 62.413552 70.175023 L 62.983624 70.199596 C 63.165458 70.209424 63.347291 70.229082 63.529125 70.261026 L 63.327633 71.737808 L 62.82882 71.669006 C 62.656816 71.644434 62.497097 71.634605 62.34475 71.634605 C 61.976169 71.634605 61.639531 71.710779 61.344666 71.863125 C 61.030144 72.015472 60.767223 72.229249 60.553445 72.504457 C 60.322468 72.804236 60.155378 73.138416 60.054632 73.506998 C 59.931772 73.92718 59.872799 74.359649 59.877713 74.797032 L 59.877713 79.998942 L 58.278071 79.998942 L 58.278071 70.349485 L 59.577934 70.349485 L 59.772053 72.116218 L 59.840855 72.116218 L 60.307725 71.386427 C 60.4699 71.160364 60.656648 70.953958 60.870425 70.772125 C 61.081745 70.590292 61.31518 70.445316 61.573187 70.342114 C 61.863137 70.224168 62.165374 70.170109 62.479897 70.175023 M 66.900414 79.998942 L 65.300772 79.998942 L 65.300772 70.349485 L 66.900414 70.349485 L 66.900414 79.998942 M 65.440832 66.975738 C 65.632495 66.808648 65.853643 66.730018 66.109193 66.737389 C 66.232053 66.737389 66.352457 66.757047 66.467945 66.798819 C 66.583434 66.83322 66.681723 66.892193 66.767725 66.975738 C 66.858642 67.064198 66.927443 67.169858 66.969216 67.292718 C 67.020817 67.415579 67.047847 67.565468 67.047847 67.73993 C 67.047847 68.079025 66.954473 68.334575 66.770182 68.504122 C 66.585891 68.668755 66.369657 68.749843 66.109193 68.749843 C 65.848729 68.749843 65.615294 68.626982 65.433461 68.462349 C 65.258999 68.300174 65.172997 68.042167 65.175454 67.717815 C 65.177911 67.388549 65.276199 67.133 65.440832 66.975738 Z M 74.245009 80.175861 C 73.925572 80.178318 73.613507 80.14146 73.303898 80.060372 C 73.023777 79.984198 72.768227 79.88591 72.539707 79.760592 C 72.323472 79.635275 72.121981 79.487842 71.942605 79.313381 C 71.775515 79.14629 71.623168 78.966914 71.485564 78.777709 L 71.379905 78.777709 L 71.433963 79.347781 L 71.468364 79.822023 L 71.485564 80.200433 L 71.485564 84.321171 L 69.885922 84.321171 L 69.885922 70.349485 L 71.185785 70.349485 L 71.416763 71.649348 L 71.485564 71.649348 C 71.620711 71.4454 71.773058 71.256195 71.942605 71.079276 C 72.117067 70.894985 72.313644 70.740181 72.532335 70.612407 C 72.773142 70.472346 73.028691 70.366686 73.296527 70.297884 C 73.608592 70.211882 73.923115 70.170109 74.245009 70.175023 C 74.795424 70.175023 75.299152 70.278226 75.748821 70.489546 C 76.200947 70.700866 76.584271 71.017846 76.898794 71.440486 C 77.220688 71.855754 77.468866 72.374225 77.645785 72.995898 C 77.822704 73.617572 77.911164 74.337534 77.911164 75.158242 C 77.911164 75.983864 77.822704 76.711197 77.645785 77.337785 C 77.468866 77.957002 77.220688 78.480387 76.898794 78.903027 C 76.581814 79.323209 76.19849 79.642646 75.748821 79.858881 C 75.299152 80.060372 74.684849 80.175861 74.134435 80.175861 M 73.937858 71.501916 C 73.493104 71.501916 73.114693 71.56826 72.805085 71.703407 C 72.497934 71.838553 72.249756 72.042502 72.058094 72.317709 C 71.863975 72.592916 71.728828 72.936925 71.635454 73.344822 C 71.539623 73.823978 71.490479 74.308048 71.485564 74.797032 L 71.485564 75.155784 C 71.48065 75.686541 71.519965 76.214841 71.601053 76.738226 C 71.682141 77.195267 71.817288 77.581049 72.004035 77.898029 C 72.19324 78.207637 72.44879 78.443529 72.768227 78.610619 C 73.085207 78.76788 73.480817 78.846511 73.955059 78.846511 C 74.756109 78.846511 75.326181 78.527074 75.697219 77.8882 C 76.0658 77.251783 76.257463 76.332787 76.25992 75.138584 C 76.25992 73.919809 76.070715 73.008184 75.697219 72.406168 C 75.323724 71.804152 74.741365 71.501916 73.937858 71.501916 M 83.238391 78.866169 C 83.344051 78.866169 83.461997 78.85634 83.589772 78.848968 L 83.978011 78.804738 L 84.312191 78.740851 L 84.548083 78.679421 L 84.548083 79.893282 C 84.471909 79.927683 84.376078 79.962083 84.248304 79.998942 C 84.122986 80.0358 83.992754 80.065286 83.862522 80.084944 C 83.722461 80.116888 83.575029 80.136545 83.422682 80.148831 C 83.272792 80.166032 83.122902 80.173403 82.973013 80.173403 C 82.611803 80.173403 82.275165 80.126716 81.972929 80.033343 C 81.663321 79.942426 81.393028 79.78025 81.164507 79.55173 C 80.940901 79.320752 80.76644 79.016058 80.636208 78.627819 C 80.505976 78.234666 80.444545 77.743225 80.444545 77.151037 L 80.444545 71.55106 L 79.080795 71.55106 L 79.080795 70.83847 L 80.444545 70.152909 L 81.130106 68.130626 L 82.054017 68.130626 L 82.054017 70.347028 L 84.498939 70.347028 L 84.498939 71.55106 L 82.073674 71.55106 L 82.073674 77.151037 C 82.073674 77.718652 82.17442 78.146207 82.346424 78.4337 C 82.518429 78.721193 82.837866 78.863711 83.260506 78.863711 " transform="matrix(1.589711,0,0,1.589711,78.37426,72.106079)"/></g></g></svg>