<svg xmlns="http://www.w3.org/2000/svg" xmlns:xlink="http://www.w3.org/1999/xlink" width="400" zoomAndPan="magnify" viewBox="0 0 300 299.999988" height="400" preserveAspectRatio="xMidYMid meet" version="1.2"><defs><clipPath id="aecbe46989"><path d="M 90 92.546875 L 209 92.546875 L 209 160 L 90 160 Z M 90 92.546875 "/></clipPath><clipPath id="9c25b706a4"><path d="M 86.164062 178 L 213 178 L 213 207 L 86.164062 207 Z M 86.164062 178 "/></clipPath><clipPath id="48b6b2ed78"><path d="M 86.164062 169 L 213.664062 169 L 213.664062 207.296875 L 86.164062 207.296875 Z M 86.164062 169 "/></clipPath></defs><g id="7ab08e8d99"><g clip-rule="nonzero" clip-path="url(#aecbe46989)"><path style=" stroke:none;fill-rule:nonzero;fill:#555588;fill-opacity:1;" d="M 98.859375 134.839844 C 98.859375 132.734375 98.144531 131.230469 96.707031 130.34375 C 95.269531 129.453125 93.230469 129.007812 90.511719 129.007812 L 90.511719 121.21875 C 91.863281 121.21875 93.058594 121.121094 94.101562 120.921875 C 95.164062 120.707031 96.054688 120.367188 96.773438 119.910156 C 97.488281 119.433594 98.023438 118.824219 98.371094 118.085938 C 98.742188 117.347656 98.90625 116.457031 98.863281 115.414062 L 98.863281 105.046875 C 98.863281 103.4375 99.066406 102.070312 99.496094 100.941406 C 99.921875 99.757812 100.660156 98.820312 101.714844 98.136719 C 102.800781 97.398438 104.269531 96.851562 106.117188 96.507812 C 107.96875 96.160156 110.316406 95.984375 113.160156 95.984375 L 113.160156 103.320312 C 112.292969 103.34375 111.5 103.417969 110.78125 103.550781 C 110.085938 103.679688 109.488281 103.917969 108.988281 104.265625 C 108.511719 104.589844 108.140625 105.046875 107.878906 105.632812 C 107.621094 106.214844 107.488281 106.980469 107.488281 107.914062 L 107.488281 117.664062 C 107.359375 121.726562 104.816406 124.140625 99.859375 124.898438 L 99.859375 125.292969 C 102.355469 125.660156 104.269531 126.445312 105.582031 127.640625 C 106.894531 128.835938 107.535156 130.453125 107.488281 132.496094 L 107.488281 142.246094 C 107.488281 143.179688 107.621094 143.941406 107.878906 144.527344 C 108.140625 145.117188 108.507812 145.570312 108.988281 145.894531 C 109.488281 146.246094 110.101562 146.484375 110.78125 146.609375 C 111.570312 146.75 112.363281 146.824219 113.160156 146.839844 L 113.160156 154.207031 C 110.300781 154.207031 107.964844 154.050781 106.117188 153.6875 C 104.269531 153.324219 102.804688 152.796875 101.714844 152.058594 C 100.660156 151.371094 99.921875 150.4375 99.496094 149.253906 C 99.082031 148.101562 98.863281 146.722656 98.863281 145.113281 L 98.863281 134.84375 M 117.414062 138.980469 C 117.414062 137.960938 117.574219 137.101562 117.839844 136.40625 C 118.15625 135.691406 118.554688 135.113281 119.078125 134.679688 C 119.601562 134.242188 120.191406 133.929688 120.902344 133.734375 C 121.640625 133.53125 122.390625 133.433594 123.152344 133.4375 C 123.882812 133.433594 124.601562 133.53125 125.304688 133.734375 C 126 133.929688 126.609375 134.242188 127.128906 134.679688 C 127.652344 135.117188 128.066406 135.691406 128.371094 136.40625 C 128.6875 137.101562 128.828125 137.960938 128.828125 138.980469 C 128.828125 139.960938 128.675781 140.796875 128.371094 141.492188 C 128.066406 142.191406 127.65625 142.765625 127.128906 143.222656 C 126.597656 143.6875 125.988281 144.011719 125.304688 144.199219 C 124.632812 144.417969 123.914062 144.523438 123.152344 144.523438 C 122.347656 144.523438 121.597656 144.417969 120.902344 144.199219 C 120.222656 144.011719 119.613281 143.6875 119.078125 143.222656 C 118.535156 142.738281 118.121094 142.164062 117.839844 141.492188 C 117.554688 140.800781 117.414062 139.960938 117.414062 138.980469 M 135.804688 159.699219 C 134.726562 159.695312 133.648438 159.621094 132.578125 159.46875 C 131.472656 159.316406 130.546875 159.121094 129.808594 158.882812 L 129.808594 151.058594 C 130.425781 151.261719 131.054688 151.414062 131.699219 151.515625 C 132.285156 151.621094 132.949219 151.675781 133.683594 151.675781 C 134.210938 151.679688 134.722656 151.59375 135.21875 151.414062 C 135.734375 151.257812 136.160156 150.960938 136.488281 150.535156 C 136.859375 150.121094 137.152344 149.558594 137.371094 148.839844 C 137.589844 148.144531 137.695312 147.242188 137.695312 146.132812 L 137.695312 107.195312 L 147.640625 107.195312 L 147.640625 147.574219 C 147.640625 149.246094 147.421875 150.8125 147.003906 152.265625 C 146.589844 153.746094 145.890625 155.027344 144.949219 156.113281 C 144.015625 157.222656 142.796875 158.09375 141.300781 158.722656 C 139.800781 159.351562 137.972656 159.667969 135.820312 159.667969 M 137.289062 97.757812 C 137.289062 96.824219 137.449219 96.050781 137.714844 95.441406 C 137.972656 94.851562 138.351562 94.351562 138.855469 93.945312 C 139.371094 93.542969 139.945312 93.273438 140.582031 93.128906 C 141.28125 92.972656 141.988281 92.898438 142.703125 92.898438 C 143.40625 92.894531 144.101562 92.972656 144.789062 93.128906 C 145.425781 93.28125 146.007812 93.554688 146.484375 93.945312 C 146.984375 94.3125 147.375 94.8125 147.65625 95.441406 C 147.976562 96.050781 148.113281 96.824219 148.113281 97.757812 C 148.113281 98.671875 147.960938 99.441406 147.65625 100.074219 C 147.375 100.703125 146.984375 101.214844 146.484375 101.605469 C 146.007812 101.972656 145.441406 102.246094 144.789062 102.421875 C 144.152344 102.574219 143.441406 102.648438 142.703125 102.648438 C 141.988281 102.652344 141.28125 102.574219 140.585938 102.421875 C 139.957031 102.257812 139.378906 101.988281 138.855469 101.605469 C 138.378906 101.214844 138 100.703125 137.714844 100.074219 C 137.433594 99.441406 137.292969 98.671875 137.292969 97.757812 M 182.1875 132.820312 C 182.1875 134.734375 181.835938 136.40625 181.144531 137.839844 C 180.449219 139.28125 179.460938 140.476562 178.175781 141.425781 C 176.894531 142.378906 175.339844 143.101562 173.515625 143.578125 C 171.6875 144.054688 169.644531 144.292969 167.386719 144.292969 C 166.191406 144.292969 165.082031 144.25 164.058594 144.164062 C 163.085938 144.105469 162.117188 143.984375 161.160156 143.804688 L 158.519531 143.167969 C 157.640625 142.894531 156.78125 142.570312 155.945312 142.191406 L 155.945312 133.945312 C 156.855469 134.402344 157.8125 134.816406 158.8125 135.1875 L 161.84375 136.164062 L 164.746094 136.800781 C 165.703125 136.953125 166.582031 137.027344 167.386719 137.027344 C 168.277344 137.027344 169.039062 136.953125 169.667969 136.800781 C 170.222656 136.671875 170.734375 136.441406 171.199219 136.117188 C 171.585938 135.847656 171.882812 135.5 172.082031 135.074219 C 172.277344 134.660156 172.375 134.226562 172.375 133.769531 C 172.375 133.3125 172.300781 132.910156 172.148438 132.5625 C 172.015625 132.191406 171.703125 131.8125 171.199219 131.417969 C 170.703125 131.007812 169.960938 130.550781 168.984375 130.050781 L 165.105469 128.144531 L 160.964844 126.027344 C 159.8125 125.308594 158.855469 124.515625 158.09375 123.644531 C 157.355469 122.777344 156.800781 121.785156 156.433594 120.679688 C 156.0625 119.574219 155.875 118.210938 155.875 116.671875 C 155.875 114.976562 156.203125 113.496094 156.851562 112.21875 C 157.488281 110.9375 158.441406 109.871094 159.625 109.039062 C 160.804688 108.207031 162.253906 107.5625 163.925781 107.132812 C 165.621094 106.699219 167.503906 106.496094 169.566406 106.496094 C 171.742188 106.496094 173.804688 106.746094 175.761719 107.246094 C 177.71875 107.746094 179.726562 108.496094 181.792969 109.496094 L 178.777344 116.617188 C 177.242188 115.882812 175.664062 115.242188 174.050781 114.695312 C 172.550781 114.195312 171.050781 113.945312 169.550781 113.945312 C 168.203125 113.945312 167.226562 114.183594 166.617188 114.660156 C 166.027344 115.136719 165.734375 115.773438 165.734375 116.613281 C 165.734375 117.046875 165.8125 117.441406 165.964844 117.789062 C 166.117188 118.113281 166.421875 118.460938 166.875 118.832031 C 167.332031 119.179688 167.988281 119.570312 168.785156 120.003906 L 172.011719 121.535156 L 176.183594 123.554688 C 177.425781 124.191406 178.488281 124.957031 179.363281 125.804688 C 180.238281 126.652344 180.953125 127.640625 181.417969 128.769531 C 181.882812 129.902344 182.132812 131.269531 182.132812 132.878906 M 199.878906 145.109375 C 199.878906 146.71875 199.675781 148.097656 199.246094 149.25 C 198.816406 150.402344 198.085938 151.339844 196.996094 152.054688 C 195.929688 152.796875 194.472656 153.339844 192.625 153.683594 C 190.777344 154.03125 188.429688 154.207031 185.582031 154.207031 L 185.582031 146.824219 C 186.371094 146.808594 187.15625 146.730469 187.933594 146.59375 C 188.625 146.464844 189.214844 146.226562 189.691406 145.878906 C 190.210938 145.535156 190.589844 145.082031 190.832031 144.507812 C 191.117188 143.921875 191.257812 143.160156 191.257812 142.226562 L 191.257812 132.480469 C 191.195312 130.4375 191.820312 128.816406 193.164062 127.621094 C 194.507812 126.425781 196.390625 125.644531 198.886719 125.273438 L 198.886719 124.882812 C 193.953125 124.117188 191.421875 121.707031 191.292969 117.644531 L 191.292969 107.894531 C 191.292969 106.960938 191.132812 106.199219 190.867188 105.613281 C 190.625 105.042969 190.246094 104.585938 189.726562 104.242188 C 189.25 103.894531 188.660156 103.65625 187.964844 103.527344 C 187.191406 103.390625 186.40625 103.316406 185.617188 103.300781 L 185.617188 95.964844 C 188.480469 95.964844 190.8125 96.125 192.660156 96.484375 C 194.507812 96.847656 195.964844 97.375 197.03125 98.117188 C 198.117188 98.832031 198.867188 99.769531 199.28125 100.917969 C 199.691406 102.03125 199.914062 103.417969 199.914062 105.027344 L 199.914062 115.390625 C 199.894531 116.433594 200.074219 117.328125 200.40625 118.066406 C 200.734375 118.804688 201.285156 119.414062 202.003906 119.890625 C 202.71875 120.347656 203.601562 120.6875 204.640625 120.902344 C 205.707031 121.097656 206.914062 121.195312 208.261719 121.195312 L 208.261719 128.984375 C 205.558594 128.984375 203.46875 129.429688 202.03125 130.320312 C 200.601562 131.210938 199.914062 132.710938 199.914062 134.820312 L 199.914062 145.089844 "/></g><g clip-rule="nonzero" clip-path="url(#9c25b706a4)"><path style=" stroke:none;fill-rule:nonzero;fill:#000000;fill-opacity:1;" d="M 89.097656 204.71875 C 88.621094 204.71875 88.207031 204.6875 87.855469 204.621094 C 87.5 204.566406 87.191406 204.484375 86.933594 204.382812 L 86.933594 202.144531 C 87.265625 202.230469 87.609375 202.296875 87.953125 202.339844 C 88.339844 202.398438 88.730469 202.425781 89.125 202.425781 C 89.476562 202.421875 89.820312 202.375 90.160156 202.285156 C 90.511719 202.203125 90.832031 202.042969 91.109375 201.808594 C 91.398438 201.574219 91.632812 201.253906 91.808594 200.84375 C 91.988281 200.4375 92.074219 199.914062 92.074219 199.28125 L 92.074219 178.855469 L 94.6875 178.855469 L 94.6875 199.003906 C 94.6875 199.980469 94.546875 200.828125 94.269531 201.546875 C 94.023438 202.226562 93.640625 202.820312 93.121094 203.320312 C 92.617188 203.808594 92.03125 204.160156 91.363281 204.367188 C 90.683594 204.601562 89.753906 204.71875 88.925781 204.71875 M 107.671875 197.160156 L 107.5625 197.160156 C 107.28125 197.546875 106.976562 197.910156 106.640625 198.25 C 106.339844 198.542969 106.003906 198.789062 105.632812 198.992188 C 105.25 199.195312 104.84375 199.339844 104.417969 199.425781 C 103.96875 199.519531 103.453125 199.5625 102.867188 199.5625 C 102.222656 199.5625 101.632812 199.46875 101.09375 199.285156 C 100.554688 199.121094 100.085938 198.847656 99.679688 198.457031 C 99.289062 198.078125 98.980469 197.597656 98.757812 197.035156 C 98.535156 196.457031 98.441406 195.761719 98.441406 194.992188 C 98.441406 193.46875 98.976562 192.292969 100.03125 191.472656 C 101.109375 190.652344 102.734375 190.207031 104.949219 190.132812 L 107.519531 190.03125 L 107.519531 189.070312 C 107.519531 188.445312 107.449219 187.925781 107.308594 187.503906 C 107.179688 187.085938 106.984375 186.75 106.722656 186.5 C 106.453125 186.226562 106.136719 186.039062 105.769531 185.9375 C 105.351562 185.820312 104.921875 185.765625 104.484375 185.773438 C 103.746094 185.765625 103.023438 185.878906 102.320312 186.105469 C 101.660156 186.328125 101.023438 186.597656 100.40625 186.917969 L 99.511719 185.003906 C 100.203125 184.628906 100.96875 184.3125 101.816406 184.050781 C 102.6875 183.789062 103.578125 183.65625 104.484375 183.660156 C 105.4375 183.660156 106.253906 183.757812 106.945312 183.953125 C 107.644531 184.140625 108.21875 184.445312 108.664062 184.859375 C 109.140625 185.300781 109.480469 185.824219 109.683594 186.441406 C 109.910156 187.082031 110 187.859375 110 188.773438 L 110 199.28125 L 108.183594 199.28125 Z M 103.539062 197.5 C 104.082031 197.503906 104.609375 197.417969 105.117188 197.234375 C 105.597656 197.066406 106.015625 196.800781 106.375 196.441406 C 106.730469 196.078125 107.003906 195.625 107.203125 195.085938 C 107.40625 194.535156 107.507812 193.894531 107.507812 193.15625 L 107.507812 191.773438 L 105.511719 191.875 C 104.671875 191.910156 103.96875 192.003906 103.398438 192.152344 C 102.832031 192.300781 102.375 192.511719 102.03125 192.78125 C 101.714844 193.042969 101.457031 193.363281 101.304688 193.746094 C 101.148438 194.15625 101.074219 194.578125 101.082031 195.019531 C 101.082031 195.875 101.304688 196.503906 101.753906 196.90625 C 102.210938 197.304688 102.804688 197.503906 103.542969 197.503906 M 112.160156 183.941406 L 114.785156 183.941406 L 117.566406 192.480469 L 117.933594 193.667969 L 118.351562 195.148438 L 118.730469 196.574219 L 118.96875 197.59375 L 119.066406 197.59375 L 119.304688 196.574219 L 119.679688 195.148438 L 120.101562 193.667969 L 120.464844 192.480469 L 123.25 183.941406 L 125.875 183.941406 L 120.621094 199.28125 L 117.394531 199.28125 Z M 136.253906 197.160156 L 136.144531 197.160156 C 135.863281 197.546875 135.554688 197.910156 135.222656 198.25 C 134.59375 198.855469 133.851562 199.246094 133 199.425781 C 132.550781 199.519531 132.035156 199.5625 131.445312 199.5625 C 130.804688 199.5625 130.214844 199.46875 129.671875 199.285156 C 129.136719 199.121094 128.664062 198.847656 128.261719 198.457031 C 127.871094 198.078125 127.5625 197.597656 127.339844 197.035156 C 127.117188 196.457031 127.019531 195.761719 127.019531 194.992188 C 127.019531 193.46875 127.558594 192.292969 128.609375 191.472656 C 129.691406 190.652344 131.3125 190.207031 133.53125 190.132812 L 136.101562 190.03125 L 136.101562 189.070312 C 136.101562 188.445312 136.03125 187.925781 135.890625 187.503906 C 135.761719 187.085938 135.566406 186.75 135.300781 186.5 C 135.035156 186.226562 134.71875 186.039062 134.351562 185.9375 C 133.929688 185.820312 133.503906 185.765625 133.066406 185.773438 C 132.324219 185.765625 131.605469 185.878906 130.898438 186.105469 C 130.242188 186.328125 129.605469 186.597656 128.984375 186.917969 L 128.09375 185.003906 C 128.78125 184.628906 129.550781 184.3125 130.398438 184.050781 C 131.269531 183.785156 132.160156 183.65625 133.070312 183.660156 C 134.019531 183.660156 134.839844 183.757812 135.527344 183.953125 C 136.226562 184.140625 136.800781 184.445312 137.246094 184.859375 C 137.722656 185.300781 138.0625 185.824219 138.265625 186.441406 C 138.492188 187.082031 138.582031 187.859375 138.582031 188.773438 L 138.582031 199.28125 L 136.753906 199.28125 Z M 132.121094 197.507812 C 132.664062 197.515625 133.1875 197.425781 133.699219 197.242188 C 134.179688 197.074219 134.597656 196.808594 134.957031 196.449219 C 135.308594 196.082031 135.585938 195.632812 135.78125 195.09375 C 135.988281 194.542969 136.089844 193.902344 136.089844 193.164062 L 136.089844 191.78125 L 134.089844 191.882812 C 133.253906 191.917969 132.546875 192.011719 131.980469 192.160156 C 131.414062 192.308594 130.957031 192.519531 130.613281 192.789062 C 130.296875 193.050781 130.035156 193.371094 129.886719 193.753906 C 129.730469 194.164062 129.65625 194.585938 129.664062 195.027344 C 129.664062 195.882812 129.886719 196.511719 130.335938 196.914062 C 130.789062 197.3125 131.386719 197.511719 132.121094 197.511719 M 154.273438 193.820312 C 154.273438 194.722656 154.109375 195.535156 153.785156 196.253906 C 153.46875 196.960938 153.011719 197.5625 152.414062 198.054688 C 151.820312 198.53125 151.09375 198.925781 150.238281 199.1875 C 149.378906 199.4375 148.414062 199.5625 147.34375 199.5625 C 146.367188 199.570312 145.398438 199.484375 144.4375 199.3125 C 143.542969 199.152344 142.792969 198.914062 142.1875 198.601562 L 142.1875 196.113281 L 143.265625 196.558594 L 144.535156 196.9375 L 145.917969 197.214844 C 146.386719 197.28125 146.859375 197.3125 147.332031 197.316406 C 148.820312 197.316406 149.921875 197.035156 150.628906 196.476562 C 151.34375 195.917969 151.703125 195.117188 151.703125 194.074219 C 151.714844 193.625 151.644531 193.183594 151.492188 192.761719 C 151.363281 192.386719 151.128906 192.046875 150.78125 191.738281 C 150.464844 191.421875 149.996094 191.105469 149.425781 190.832031 C 148.726562 190.46875 148.011719 190.148438 147.273438 189.871094 C 146.519531 189.582031 145.796875 189.226562 145.109375 188.808594 C 144.503906 188.417969 144 187.980469 143.597656 187.496094 C 143.207031 187.011719 142.914062 186.460938 142.71875 185.847656 C 142.53125 185.230469 142.4375 184.535156 142.4375 183.75 C 142.4375 182.929688 142.585938 182.203125 142.882812 181.558594 C 143.175781 180.917969 143.59375 180.378906 144.140625 179.9375 C 144.714844 179.46875 145.359375 179.128906 146.066406 178.914062 C 146.824219 178.683594 147.652344 178.566406 148.554688 178.566406 C 149.664062 178.566406 150.660156 178.671875 151.542969 178.886719 C 152.429688 179.09375 153.214844 179.359375 153.902344 179.683594 L 152.949219 181.859375 C 152.347656 181.589844 151.65625 181.355469 150.882812 181.160156 C 150.105469 180.953125 149.3125 180.851562 148.507812 180.851562 C 147.371094 180.851562 146.488281 181.117188 145.871094 181.648438 C 145.554688 181.910156 145.316406 182.226562 145.148438 182.601562 C 144.980469 182.972656 144.902344 183.363281 144.914062 183.773438 C 144.914062 184.304688 144.984375 184.765625 145.125 185.15625 C 145.277344 185.558594 145.511719 185.90625 145.824219 186.203125 C 146.148438 186.507812 146.578125 186.804688 147.09375 187.082031 C 147.636719 187.355469 148.296875 187.644531 149.078125 187.949219 C 149.84375 188.246094 150.582031 188.589844 151.300781 188.984375 C 151.898438 189.300781 152.433594 189.703125 152.90625 190.183594 C 153.339844 190.632812 153.660156 191.148438 153.871094 191.738281 C 154.09375 192.324219 154.210938 193.042969 154.210938 193.84375 M 163.675781 199.5625 C 162.734375 199.5625 161.855469 199.402344 161.039062 199.128906 C 160.214844 198.832031 159.5 198.367188 158.898438 197.730469 C 158.296875 197.085938 157.816406 196.273438 157.476562 195.285156 C 157.128906 194.289062 156.957031 193.089844 156.957031 191.691406 C 156.957031 190.230469 157.117188 188.988281 157.488281 187.976562 C 157.84375 186.949219 158.328125 186.121094 158.941406 185.488281 C 159.558594 184.851562 160.285156 184.382812 161.121094 184.089844 C 161.945312 183.800781 162.835938 183.65625 163.789062 183.65625 C 164.507812 183.65625 165.214844 183.734375 165.914062 183.894531 C 166.519531 184.019531 167.101562 184.214844 167.660156 184.480469 L 166.90625 186.632812 C 166.691406 186.535156 166.457031 186.449219 166.195312 186.367188 C 165.933594 186.273438 165.667969 186.195312 165.398438 186.128906 C 165.121094 186.054688 164.84375 185.996094 164.574219 185.960938 C 164.320312 185.917969 164.0625 185.894531 163.804688 185.890625 C 162.34375 185.890625 161.261719 186.363281 160.605469 187.304688 C 159.933594 188.234375 159.597656 189.6875 159.597656 191.660156 C 159.597656 193.625 159.917969 195.066406 160.605469 195.980469 C 161.285156 196.882812 162.3125 197.332031 163.691406 197.332031 C 164.382812 197.34375 165.0625 197.257812 165.730469 197.082031 C 166.308594 196.921875 166.867188 196.714844 167.410156 196.46875 L 167.410156 198.730469 C 166.894531 199.007812 166.355469 199.210938 165.789062 199.347656 C 165.21875 199.488281 164.484375 199.554688 163.652344 199.554688 M 177.597656 183.664062 L 178.503906 183.703125 C 178.792969 183.71875 179.082031 183.75 179.371094 183.800781 L 179.050781 186.148438 L 178.257812 186.039062 C 177.984375 186 177.730469 185.984375 177.488281 185.984375 C 176.898438 185.984375 176.367188 186.105469 175.898438 186.347656 C 175.398438 186.589844 174.980469 186.929688 174.640625 187.367188 C 174.273438 187.84375 174.007812 188.375 173.847656 188.960938 C 173.652344 189.628906 173.558594 190.316406 173.566406 191.011719 L 173.566406 199.28125 L 171.023438 199.28125 L 171.023438 183.941406 L 173.089844 183.941406 L 173.394531 186.75 L 173.507812 186.75 L 174.25 185.589844 C 174.507812 185.230469 174.804688 184.902344 175.144531 184.613281 C 175.480469 184.324219 175.851562 184.09375 176.261719 183.929688 C 176.722656 183.742188 177.203125 183.65625 177.703125 183.664062 M 184.730469 199.28125 L 182.1875 199.28125 L 182.1875 183.941406 L 184.730469 183.941406 L 184.730469 199.28125 M 182.410156 178.578125 C 182.714844 178.3125 183.066406 178.1875 183.472656 178.199219 C 183.667969 178.199219 183.859375 178.230469 184.042969 178.296875 C 184.226562 178.351562 184.382812 178.445312 184.519531 178.578125 C 184.664062 178.71875 184.773438 178.886719 184.839844 179.082031 C 184.925781 179.277344 184.96875 179.515625 184.96875 179.792969 C 184.96875 180.332031 184.816406 180.738281 184.523438 181.007812 C 184.230469 181.269531 183.886719 181.398438 183.472656 181.398438 C 183.058594 181.398438 182.6875 181.203125 182.398438 180.941406 C 182.121094 180.683594 181.984375 180.273438 181.988281 179.757812 C 181.992188 179.234375 182.148438 178.828125 182.410156 178.578125 Z M 196.40625 199.5625 C 195.902344 199.566406 195.402344 199.507812 194.914062 199.378906 C 194.46875 199.257812 194.058594 199.101562 193.695312 198.902344 C 193.351562 198.703125 193.035156 198.46875 192.746094 198.191406 C 192.480469 197.925781 192.238281 197.640625 192.019531 197.339844 L 191.851562 197.339844 L 191.9375 198.246094 L 191.992188 199 L 192.019531 199.601562 L 192.019531 206.152344 L 189.476562 206.152344 L 189.476562 183.941406 L 191.542969 183.941406 L 191.910156 186.007812 L 192.019531 186.007812 C 192.234375 185.683594 192.476562 185.382812 192.746094 185.101562 C 193.023438 184.808594 193.335938 184.5625 193.683594 184.359375 C 194.066406 184.136719 194.472656 183.96875 194.898438 183.859375 C 195.394531 183.722656 195.894531 183.65625 196.410156 183.664062 C 197.28125 183.664062 198.082031 183.828125 198.796875 184.164062 C 199.515625 184.5 200.125 185.003906 200.625 185.675781 C 201.136719 186.335938 201.53125 187.160156 201.8125 188.148438 C 202.09375 189.136719 202.234375 190.28125 202.234375 191.585938 C 202.234375 192.898438 202.09375 194.054688 201.8125 195.050781 C 201.535156 196.035156 201.136719 196.867188 200.625 197.539062 C 200.125 198.207031 199.511719 198.714844 198.796875 199.058594 C 198.082031 199.378906 197.109375 199.5625 196.230469 199.5625 M 195.917969 185.773438 C 195.210938 185.773438 194.609375 185.878906 194.117188 186.09375 C 193.632812 186.308594 193.234375 186.632812 192.929688 187.070312 C 192.621094 187.507812 192.40625 188.054688 192.257812 188.703125 C 192.105469 189.464844 192.027344 190.234375 192.019531 191.011719 L 192.019531 191.582031 C 192.011719 192.425781 192.074219 193.265625 192.203125 194.097656 C 192.332031 194.824219 192.546875 195.4375 192.84375 195.941406 C 193.144531 196.433594 193.550781 196.808594 194.058594 197.074219 C 194.5625 197.324219 195.191406 197.449219 195.949219 197.449219 C 197.21875 197.449219 198.125 196.941406 198.714844 195.925781 C 199.300781 194.914062 199.605469 193.453125 199.609375 191.554688 C 199.609375 189.617188 199.308594 188.167969 198.714844 187.210938 C 198.121094 186.253906 197.195312 185.773438 195.921875 185.773438 M 210.707031 197.480469 C 210.871094 197.480469 211.058594 197.464844 211.265625 197.453125 L 211.878906 197.382812 L 212.410156 197.28125 L 212.789062 197.183594 L 212.789062 199.113281 C 212.667969 199.167969 212.511719 199.222656 212.3125 199.28125 C 212.109375 199.339844 211.902344 199.386719 211.695312 199.417969 C 211.472656 199.46875 211.238281 199.5 210.996094 199.519531 C 210.757812 199.546875 210.523438 199.558594 210.285156 199.558594 C 209.707031 199.558594 209.171875 199.484375 208.695312 199.335938 C 208.199219 199.191406 207.769531 198.933594 207.40625 198.570312 C 207.050781 198.203125 206.773438 197.71875 206.570312 197.101562 C 206.363281 196.476562 206.261719 195.695312 206.261719 194.753906 L 206.261719 185.851562 L 204.097656 185.851562 L 204.097656 184.71875 L 206.261719 183.628906 L 207.351562 180.414062 L 208.820312 180.414062 L 208.820312 183.9375 L 212.710938 183.9375 L 212.710938 185.851562 L 208.851562 185.851562 L 208.851562 194.753906 C 208.851562 195.65625 209.011719 196.335938 209.285156 196.792969 C 209.558594 197.25 210.066406 197.476562 210.738281 197.476562 "/></g><g clip-rule="nonzero" clip-path="url(#48b6b2ed78)"><path style="fill:none;stroke-width:1;stroke-linecap:butt;stroke-linejoin:miter;stroke:#000000;stroke-opacity:1;stroke-miterlimit:4;" d="M 6.745425 83.419375 C 6.445658 83.419375 6.185204 83.399718 5.964065 83.357945 C 5.740468 83.323544 5.546356 83.271943 5.384187 83.208055 L 5.384187 81.800075 C 5.593041 81.854134 5.809267 81.895906 6.025492 81.922936 C 6.268746 81.959794 6.514457 81.976994 6.762625 81.976994 C 6.983765 81.974537 7.19999 81.94505 7.413758 81.888535 C 7.634898 81.836933 7.836381 81.736188 8.010836 81.588755 C 8.192662 81.441323 8.340088 81.239832 8.450658 80.981825 C 8.563685 80.726275 8.617741 80.397009 8.617741 79.998942 L 8.617741 67.1502 L 10.261547 67.1502 L 10.261547 79.82448 C 10.261547 80.438782 10.173091 80.971996 9.998636 81.424122 C 9.843838 81.851677 9.603042 82.225172 9.276246 82.539695 C 8.95928 82.846846 8.590713 83.067995 8.170548 83.198227 C 7.743011 83.345659 7.158219 83.419375 6.637312 83.419375 M 18.428975 78.664678 L 18.360176 78.664678 C 18.183264 78.907941 17.991609 79.136462 17.780298 79.350239 C 17.591101 79.534529 17.379789 79.689333 17.146364 79.817108 C 16.905567 79.944883 16.650028 80.0358 16.382203 80.089858 C 16.099636 80.148831 15.775298 80.175861 15.406731 80.175861 C 15.001309 80.175861 14.630285 80.116888 14.291204 80.001399 C 13.952123 79.898196 13.65727 79.726192 13.401731 79.480471 C 13.15602 79.242122 12.961909 78.939885 12.821854 78.586047 C 12.681798 78.22238 12.622828 77.784997 12.622828 77.300927 C 12.622828 76.342616 12.959452 75.602996 13.622871 75.086983 C 14.301033 74.570969 15.32319 74.290847 16.71637 74.24416 L 18.333147 74.180273 L 18.333147 73.5758 C 18.333147 73.182646 18.288919 72.855838 18.200463 72.590459 C 18.119379 72.327538 17.996523 72.116218 17.831897 71.958957 C 17.662357 71.786952 17.463331 71.669006 17.232363 71.605119 C 16.969452 71.531402 16.69917 71.497001 16.423974 71.501916 C 15.959581 71.497001 15.505016 71.56826 15.062736 71.710779 C 14.647485 71.850839 14.246976 72.020387 13.858753 72.221878 L 13.296075 71.017846 C 13.730984 70.781954 14.212577 70.58292 14.745769 70.418287 C 15.293704 70.253654 15.853925 70.170109 16.423974 70.172566 C 17.023509 70.172566 17.537044 70.233996 17.971952 70.356857 C 18.411775 70.474803 18.77297 70.666465 19.05308 70.926929 C 19.352847 71.204594 19.566616 71.53386 19.694385 71.922098 C 19.836898 72.325081 19.893411 72.814065 19.893411 73.389052 L 19.893411 79.998942 L 18.750856 79.998942 Z M 15.829354 78.878455 C 16.170892 78.880912 16.502602 78.826853 16.822026 78.711365 C 17.12425 78.605705 17.387161 78.438614 17.613215 78.212551 C 17.836811 77.984031 18.008809 77.698995 18.134122 77.3599 C 18.261891 77.013434 18.325776 76.610452 18.325776 76.146039 L 18.325776 75.276188 L 17.070194 75.340075 C 16.541915 75.36219 16.099636 75.421163 15.740898 75.514537 C 15.384617 75.607911 15.097136 75.7406 14.88091 75.910147 C 14.681885 76.07478 14.519715 76.276271 14.423888 76.517078 C 14.325604 76.775085 14.278919 77.040463 14.283833 77.318128 C 14.283833 77.856256 14.423888 78.251867 14.706456 78.504959 C 14.993937 78.755594 15.367418 78.880912 15.831811 78.880912 M 21.252192 70.349485 L 22.903369 70.349485 L 24.65283 75.720942 L 24.883798 76.467934 L 25.146708 77.399215 L 25.385048 78.296096 L 25.534931 78.937428 L 25.596359 78.937428 L 25.746243 78.296096 L 25.982125 77.399215 L 26.247493 76.467934 L 26.476004 75.720942 L 28.227922 70.349485 L 29.879099 70.349485 L 26.574288 79.998942 L 24.544717 79.998942 Z M 36.407635 78.664678 L 36.338836 78.664678 C 36.161924 78.907941 35.967813 79.136462 35.758959 79.350239 C 35.363364 79.731106 34.896514 79.976827 34.360864 80.089858 C 34.078297 80.148831 33.753958 80.175861 33.382935 80.175861 C 32.979969 80.175861 32.608946 80.116888 32.267408 80.001399 C 31.930784 79.898196 31.633474 79.726192 31.380392 79.480471 C 31.134681 79.242122 30.94057 78.939885 30.800514 78.586047 C 30.660459 78.22238 30.599031 77.784997 30.599031 77.300927 C 30.599031 76.342616 30.938112 75.602996 31.599075 75.086983 C 32.279693 74.570969 33.299393 74.290847 34.695031 74.24416 L 36.311808 74.180273 L 36.311808 73.5758 C 36.311808 73.182646 36.26758 72.855838 36.179124 72.590459 C 36.09804 72.327538 35.975184 72.116218 35.808101 71.958957 C 35.641018 71.786952 35.441992 71.669006 35.211024 71.605119 C 34.945656 71.531402 34.677831 71.497001 34.402635 71.501916 C 33.935784 71.497001 33.483677 71.56826 33.03894 71.710779 C 32.626146 71.850839 32.225637 72.020387 31.834957 72.221878 L 31.274736 71.017846 C 31.707187 70.781954 32.191238 70.58292 32.72443 70.418287 C 33.272365 70.251197 33.832586 70.170109 34.405092 70.172566 C 35.002169 70.172566 35.518162 70.233996 35.950613 70.356857 C 36.390436 70.474803 36.75163 70.666465 37.031741 70.926929 C 37.331508 71.204594 37.545276 71.53386 37.673046 71.922098 C 37.815558 72.325081 37.872072 72.814065 37.872072 73.389052 L 37.872072 79.998942 L 36.722145 79.998942 Z M 33.808015 78.883369 C 34.149553 78.888284 34.478805 78.831768 34.800687 78.716279 C 35.102911 78.610619 35.365821 78.443529 35.591875 78.217466 C 35.813015 77.986488 35.98747 77.703909 36.110325 77.364814 C 36.240552 77.018348 36.304437 76.615366 36.304437 76.150954 L 36.304437 75.281102 L 35.046397 75.344989 C 34.520576 75.367104 34.07584 75.426077 33.719559 75.519451 C 33.363278 75.612825 33.075797 75.745514 32.859571 75.915062 C 32.660545 76.079695 32.495919 76.281186 32.402549 76.521992 C 32.304265 76.779999 32.25758 77.045377 32.262494 77.323042 C 32.262494 77.861171 32.402549 78.256781 32.685116 78.509873 C 32.970141 78.760509 33.346078 78.885826 33.808015 78.885826 M 47.742275 76.563765 C 47.742275 77.13138 47.639077 77.642479 47.435137 78.094605 C 47.236111 78.53936 46.948629 78.91777 46.572692 79.227378 C 46.199211 79.527158 45.742189 79.775336 45.204083 79.939969 C 44.663519 80.09723 44.056613 80.175861 43.383365 80.175861 C 42.769088 80.180775 42.159726 80.126716 41.555277 80.018599 C 40.992599 79.917854 40.520834 79.767964 40.139983 79.571387 L 40.139983 78.006146 L 40.818145 78.286268 L 41.616705 78.524617 L 42.486521 78.699079 C 42.781374 78.740851 43.078684 78.760509 43.375994 78.762966 C 44.312152 78.762966 45.005057 78.586047 45.449793 78.234666 C 45.899444 77.883285 46.125498 77.379558 46.125498 76.723483 C 46.13287 76.440904 46.088642 76.16324 45.992814 75.897861 C 45.91173 75.661969 45.764303 75.448192 45.545621 75.254073 C 45.346595 75.055039 45.051742 74.856005 44.693004 74.684 C 44.253182 74.45548 43.803531 74.253989 43.339138 74.079527 C 42.864916 73.897694 42.410351 73.674088 41.9779 73.411167 C 41.597048 73.165446 41.280081 72.890238 41.026999 72.585545 C 40.781288 72.280851 40.597005 71.934384 40.474149 71.548603 C 40.356208 71.160364 40.297238 70.722981 40.297238 70.229082 C 40.297238 69.713068 40.390608 69.256028 40.577348 68.850588 C 40.761631 68.447606 41.024542 68.108511 41.368537 67.830847 C 41.729732 67.535982 42.135155 67.322205 42.579891 67.187058 C 43.05657 67.042083 43.577477 66.968367 44.145069 66.968367 C 44.842888 66.968367 45.46945 67.034711 46.024757 67.169858 C 46.58252 67.30009 47.076399 67.46718 47.50885 67.671128 L 46.909316 69.039793 C 46.530921 68.870246 46.096013 68.722813 45.609506 68.599953 C 45.120541 68.469721 44.621748 68.405834 44.115584 68.405834 C 43.400565 68.405834 42.845259 68.572924 42.457036 68.907104 C 42.25801 69.071737 42.108126 69.270771 42.002471 69.506663 C 41.896815 69.740098 41.847673 69.985818 41.855044 70.243825 C 41.855044 70.578006 41.899272 70.867956 41.987728 71.113677 C 42.083555 71.366769 42.230982 71.585461 42.42755 71.772209 C 42.63149 71.963871 42.901772 72.150619 43.226111 72.325081 C 43.567649 72.497085 43.9829 72.678919 44.474322 72.870581 C 44.955915 73.057329 45.420308 73.273563 45.872416 73.521741 C 46.248354 73.720775 46.584977 73.973867 46.882288 74.276104 C 47.155027 74.558683 47.356509 74.883034 47.489193 75.254073 C 47.629248 75.622654 47.702962 76.07478 47.702962 76.578508 M 53.656535 80.175861 C 53.064372 80.175861 52.511522 80.075115 51.997987 79.90311 C 51.479537 79.716363 51.029886 79.423955 50.651492 79.02343 C 50.273097 78.617991 49.970873 78.106891 49.757104 77.485218 C 49.538422 76.85863 49.430309 76.104267 49.430309 75.224586 C 49.430309 74.30559 49.53105 73.524198 49.764475 72.887781 C 49.988072 72.241536 50.292754 71.720607 50.67852 71.32254 C 51.066743 70.922015 51.523765 70.62715 52.049586 70.442859 C 52.568036 70.261026 53.128257 70.170109 53.727791 70.170109 C 54.179899 70.170109 54.624636 70.219253 55.064458 70.319999 C 55.44531 70.398629 55.811419 70.52149 56.162785 70.68858 L 55.688563 72.042502 C 55.553422 71.981071 55.405996 71.927013 55.24137 71.875412 C 55.076743 71.816439 54.90966 71.767294 54.74012 71.725522 C 54.565665 71.678835 54.39121 71.641977 54.22167 71.619862 C 54.061958 71.592833 53.899789 71.578089 53.737619 71.575632 C 52.818661 71.575632 52.138042 71.872954 51.725248 72.465141 C 51.302625 73.049957 51.091314 73.964038 51.091314 75.204929 C 51.091314 76.440904 51.292797 77.347614 51.725248 77.922601 C 52.152785 78.490216 52.799004 78.772795 53.666363 78.772795 C 54.101271 78.780166 54.528808 78.726108 54.948974 78.615533 C 55.312626 78.514788 55.663992 78.384556 56.00553 78.229752 L 56.00553 79.652475 C 55.681192 79.826937 55.342111 79.954712 54.98583 80.040714 C 54.627093 80.129174 54.165156 80.170946 53.641792 80.170946 M 62.413669 70.175023 L 62.983718 70.199596 C 63.165544 70.209424 63.34737 70.229082 63.529196 70.261026 L 63.327713 71.737808 L 62.82892 71.669006 C 62.656922 71.644434 62.49721 71.634605 62.34487 71.634605 C 61.973846 71.634605 61.639679 71.710779 61.344826 71.863125 C 61.030317 72.015472 60.767406 72.229249 60.553638 72.504457 C 60.322669 72.804236 60.155586 73.138416 60.054845 73.506998 C 59.931989 73.92718 59.873019 74.359649 59.877933 74.797032 L 59.877933 79.998942 L 58.278355 79.998942 L 58.278355 70.349485 L 59.578166 70.349485 L 59.76982 72.116218 L 59.841076 72.116218 L 60.307927 71.386427 C 60.470096 71.160364 60.656836 70.953958 60.870605 70.772125 C 61.081916 70.590292 61.315341 70.445316 61.573338 70.342114 C 61.863276 70.224168 62.165501 70.170109 62.48001 70.175023 M 66.900348 79.998942 L 65.300771 79.998942 L 65.300771 70.349485 L 66.900348 70.349485 L 66.900348 79.998942 M 65.440826 66.975738 C 65.63248 66.808648 65.85362 66.730018 66.109159 66.737389 C 66.232015 66.737389 66.352413 66.757047 66.467897 66.798819 C 66.583381 66.83322 66.681665 66.892193 66.767664 66.975738 C 66.858577 67.064198 66.927376 67.169858 66.969147 67.292718 C 67.023204 67.415579 67.050232 67.565468 67.050232 67.73993 C 67.050232 68.079025 66.954404 68.334575 66.770121 68.504122 C 66.585838 68.668755 66.369613 68.749843 66.109159 68.749843 C 65.848706 68.749843 65.615281 68.626982 65.433455 68.462349 C 65.259 68.300174 65.173001 68.042167 65.175458 67.717815 C 65.177915 67.388549 65.2762 67.133 65.440826 66.975738 Z M 74.244645 80.175861 C 73.927678 80.178318 73.613168 80.14146 73.306029 80.060372 C 73.025919 79.984198 72.767923 79.88591 72.539411 79.760592 C 72.323186 79.635275 72.12416 79.487842 71.942334 79.313381 C 71.775251 79.14629 71.62291 78.966914 71.485312 78.777709 L 71.379656 78.777709 L 71.433713 79.347781 L 71.468112 79.822023 L 71.485312 80.200433 L 71.485312 84.321171 L 69.885735 84.321171 L 69.885735 70.349485 L 71.185545 70.349485 L 71.416513 71.649348 L 71.485312 71.649348 C 71.620453 71.4454 71.772794 71.256195 71.942334 71.079276 C 72.116789 70.894985 72.313357 70.740181 72.53204 70.612407 C 72.772837 70.472346 73.028376 70.366686 73.296201 70.297884 C 73.608254 70.211882 73.922763 70.170109 74.247102 70.175023 C 74.795037 70.175023 75.298744 70.278226 75.748395 70.489546 C 76.200503 70.700866 76.583812 71.017846 76.898321 71.440486 C 77.220203 71.855754 77.468371 72.374225 77.645282 72.995898 C 77.822194 73.617572 77.91065 74.337534 77.91065 75.158242 C 77.91065 75.983864 77.822194 76.711197 77.645282 77.337785 C 77.470828 77.957002 77.220203 78.480387 76.898321 78.903027 C 76.583812 79.323209 76.198046 79.642646 75.748395 79.858881 C 75.298744 80.060372 74.686924 80.175861 74.134075 80.175861 M 73.937506 71.501916 C 73.492769 71.501916 73.114375 71.56826 72.804779 71.703407 C 72.500098 71.838553 72.249473 72.042502 72.057818 72.317709 C 71.863707 72.592916 71.728566 72.936925 71.635196 73.344822 C 71.539368 73.823978 71.490226 74.308048 71.485312 74.797032 L 71.485312 75.155784 C 71.480398 75.686541 71.519712 76.214841 71.600796 76.738226 C 71.681881 77.195267 71.817022 77.581049 72.003762 77.898029 C 72.192959 78.207637 72.448498 78.443529 72.767923 78.610619 C 73.084889 78.76788 73.480484 78.846511 73.957163 78.846511 C 74.755723 78.846511 75.325772 78.527074 75.696795 77.8882 C 76.065362 77.251783 76.257016 76.332787 76.259473 75.138584 C 76.259473 73.919809 76.070276 73.008184 75.696795 72.406168 C 75.323315 71.804152 74.74098 71.501916 73.939963 71.501916 M 83.240118 78.866169 C 83.343316 78.866169 83.461257 78.85634 83.591484 78.848968 L 83.97725 78.804738 L 84.311417 78.740851 L 84.549756 78.679421 L 84.549756 79.893282 C 84.473586 79.927683 84.375302 79.962083 84.249989 79.998942 C 84.12222 80.0358 83.991993 80.065286 83.861766 80.084944 C 83.721711 80.116888 83.574284 80.136545 83.421944 80.148831 C 83.27206 80.166032 83.124634 80.173403 82.97475 80.173403 C 82.611098 80.173403 82.274474 80.126716 81.974707 80.033343 C 81.662654 79.942426 81.392372 79.78025 81.163861 79.55173 C 80.940264 79.320752 80.76581 79.016058 80.63804 78.627819 C 80.507813 78.234666 80.443929 77.743225 80.443929 77.151037 L 80.443929 71.55106 L 79.082691 71.55106 L 79.082691 70.83847 L 80.443929 70.152909 L 81.129462 68.130626 L 82.053334 68.130626 L 82.053334 70.347028 L 84.500614 70.347028 L 84.500614 71.55106 L 82.072991 71.55106 L 82.072991 77.151037 C 82.072991 77.718652 82.173733 78.146207 82.34573 78.4337 C 82.517728 78.721193 82.837152 78.863711 83.259775 78.863711 " transform="matrix(1.589775,0,0,1.589711,78.373946,72.106079)"/></g></g></svg>