<svg xmlns="http://www.w3.org/2000/svg" xmlns:xlink="http://www.w3.org/1999/xlink" width="400" zoomAndPan="magnify" viewBox="0 0 300 299.999988" height="400" preserveAspectRatio="xMidYMid meet" version="1.2"><defs><clipPath id="ef8d062ca3"><path d="M 60 121 L 144 121 L 144 179 L 60 179 Z M 60 121 "/></clipPath><clipPath id="7ea6d73d12"><path d="M 60 118.582031 L 131 118.582031 L 131 181.582031 L 60 181.582031 Z M 60 118.582031 "/></clipPath></defs><g id="d51ec13f1e"><path style=" stroke:none;fill-rule:nonzero;fill:#00d8ff;fill-opacity:1;" d="M 100.644531 150.027344 C 100.644531 150.421875 100.605469 150.816406 100.527344 151.207031 C 100.449219 151.59375 100.335938 151.972656 100.183594 152.339844 C 100.035156 152.707031 99.847656 153.054688 99.628906 153.386719 C 99.40625 153.714844 99.15625 154.023438 98.878906 154.304688 C 98.597656 154.582031 98.292969 154.835938 97.964844 155.054688 C 97.632812 155.277344 97.285156 155.460938 96.921875 155.613281 C 96.554688 155.765625 96.175781 155.882812 95.789062 155.957031 C 95.398438 156.035156 95.007812 156.074219 94.613281 156.074219 C 94.214844 156.074219 93.824219 156.035156 93.433594 155.957031 C 93.046875 155.882812 92.667969 155.765625 92.300781 155.613281 C 91.9375 155.460938 91.589844 155.277344 91.257812 155.054688 C 90.929688 154.835938 90.625 154.582031 90.34375 154.304688 C 90.066406 154.023438 89.816406 153.714844 89.59375 153.386719 C 89.375 153.054688 89.1875 152.707031 89.039062 152.339844 C 88.886719 151.972656 88.773438 151.59375 88.695312 151.207031 C 88.617188 150.816406 88.578125 150.421875 88.578125 150.027344 C 88.578125 149.628906 88.617188 149.234375 88.695312 148.847656 C 88.773438 148.457031 88.886719 148.078125 89.039062 147.710938 C 89.1875 147.34375 89.375 146.996094 89.59375 146.664062 C 89.816406 146.335938 90.066406 146.03125 90.34375 145.75 C 90.625 145.46875 90.929688 145.21875 91.257812 144.996094 C 91.589844 144.777344 91.9375 144.589844 92.300781 144.4375 C 92.667969 144.285156 93.046875 144.171875 93.433594 144.09375 C 93.824219 144.015625 94.214844 143.976562 94.613281 143.976562 C 95.007812 143.976562 95.398438 144.015625 95.789062 144.09375 C 96.175781 144.171875 96.554688 144.285156 96.921875 144.4375 C 97.285156 144.589844 97.632812 144.777344 97.964844 144.996094 C 98.292969 145.21875 98.597656 145.46875 98.878906 145.75 C 99.15625 146.03125 99.40625 146.335938 99.628906 146.664062 C 99.847656 146.996094 100.035156 147.34375 100.183594 147.710938 C 100.335938 148.078125 100.449219 148.457031 100.527344 148.847656 C 100.605469 149.234375 100.644531 149.628906 100.644531 150.027344 Z M 100.644531 150.027344 "/><g clip-rule="nonzero" clip-path="url(#ef8d062ca3)"><path style="fill:none;stroke-width:24;stroke-linecap:butt;stroke-linejoin:miter;stroke:#00d8ff;stroke-opacity:1;stroke-miterlimit:4;" d="M 269.545567 135.618505 C 336.882282 135.618505 399.444036 145.305551 446.641454 161.537023 C 503.486245 181.105505 538.437671 210.782208 538.437671 237.640273 C 538.437671 265.632273 501.40735 297.123273 440.339803 317.372116 C 394.214315 332.664042 333.471595 340.633986 269.545567 340.633986 C 203.962919 340.633986 141.888406 333.150014 95.243195 317.177727 C 36.189577 296.993681 0.620979 265.081505 0.620979 237.640273 C 0.620979 210.976597 33.980751 181.559079 90.045957 162.022995 C 137.405789 145.49994 201.494231 135.618505 269.513084 135.618505 Z M 269.545567 135.618505 " transform="matrix(0.120256,0,0,0.12057,62.198761,121.375017)"/></g><g clip-rule="nonzero" clip-path="url(#7ea6d73d12)"><path style="fill:none;stroke-width:24;stroke-linecap:butt;stroke-linejoin:miter;stroke:#00d8ff;stroke-opacity:1;stroke-miterlimit:4;" d="M 180.737761 186.904773 C 214.389878 128.588107 254.018818 79.213329 291.666311 46.426403 C 337.012213 6.965458 380.149289 -8.488458 403.439412 4.924375 C 427.671535 18.920375 436.474357 66.740042 423.481262 129.722042 C 413.703958 177.34732 390.251421 233.946884 358.320889 289.347718 C 325.57829 346.109273 288.060727 396.164412 250.932958 428.594958 C 203.962919 469.67581 158.552051 484.54656 134.774687 470.809745 C 111.67946 457.526505 102.844155 413.886199 113.920769 355.601931 C 123.275798 306.324347 146.760817 245.837005 180.737761 186.937171 Z M 180.737761 186.904773 " transform="matrix(0.120256,0,0,0.12057,62.198761,121.375017)"/><path style="fill:none;stroke-width:24;stroke-linecap:butt;stroke-linejoin:miter;stroke:#00d8ff;stroke-opacity:1;stroke-miterlimit:4;" d="M 180.835209 289.47731 C 147.085645 231.193042 124.087866 172.196014 114.505458 123.242412 C 102.974086 64.245384 111.127254 19.114764 134.384894 5.669533 C 158.584534 -8.358866 204.417677 7.905005 252.524612 50.605764 C 288.872796 82.87432 326.195462 131.439144 358.223441 186.775181 C 391.063489 243.504338 415.685405 300.978653 425.267812 349.349088 C 437.383874 410.54919 427.574087 457.332116 403.829205 471.101329 C 380.766461 484.449366 338.571385 470.291375 293.582793 431.575588 C 255.577989 398.885856 214.909601 348.344745 180.802727 289.47731 Z M 180.835209 289.47731 " transform="matrix(0.120256,0,0,0.12057,62.198761,121.375017)"/></g><path style=" stroke:none;fill-rule:evenodd;fill:#00d8ff;fill-opacity:1;" d="M 161.578125 165.480469 L 154.183594 154.28125 C 157.921875 153.949219 161.289062 151.234375 161.289062 146.273438 C 161.289062 141.226562 157.714844 137.996094 152.703125 137.996094 L 141.699219 137.996094 L 141.699219 165.460938 L 145.109375 165.460938 L 145.109375 154.546875 L 150.570312 154.546875 L 157.550781 165.460938 Z M 152.296875 151.5625 L 145.109375 151.5625 L 145.109375 141.0625 L 152.296875 141.0625 C 155.542969 141.0625 157.757812 143.203125 157.757812 146.292969 C 157.757812 149.382812 155.539062 151.566406 152.296875 151.566406 Z M 174.269531 165.972656 C 177.515625 165.972656 180.183594 164.902344 182.152344 162.925781 L 180.675781 160.910156 C 179.113281 162.515625 176.816406 163.417969 174.554688 163.417969 C 170.285156 163.417969 167.65625 160.289062 167.410156 156.546875 L 183.464844 156.546875 L 183.464844 155.761719 C 183.464844 149.792969 179.933594 145.097656 173.9375 145.097656 C 168.269531 145.097656 164.164062 149.75 164.164062 155.515625 C 164.164062 161.734375 168.394531 165.957031 174.265625 165.957031 Z M 180.429688 154.277344 L 167.410156 154.277344 C 167.578125 151.230469 169.667969 147.648438 173.898438 147.648438 C 178.417969 147.648438 180.386719 151.3125 180.429688 154.277344 Z M 203.921875 165.476562 L 203.921875 151.808594 C 203.921875 146.992188 200.433594 145.097656 196.242188 145.097656 C 192.996094 145.097656 190.453125 146.167969 188.316406 148.390625 L 189.753906 150.53125 C 191.519531 148.636719 193.453125 147.773438 195.832031 147.773438 C 198.707031 147.773438 200.84375 149.296875 200.84375 151.972656 L 200.84375 155.554688 C 199.242188 153.699219 196.984375 152.835938 194.273438 152.835938 C 190.90625 152.835938 187.332031 154.9375 187.332031 159.382812 C 187.332031 163.707031 190.902344 165.972656 194.273438 165.972656 C 196.941406 165.972656 199.203125 165.023438 200.84375 163.210938 L 200.84375 165.476562 Z M 195.382812 163.75 C 192.507812 163.75 190.496094 161.9375 190.496094 159.425781 C 190.496094 156.871094 192.507812 155.0625 195.382812 155.0625 C 197.558594 155.0625 199.652344 155.882812 200.84375 157.53125 L 200.84375 161.277344 C 199.652344 162.925781 197.558594 163.75 195.382812 163.75 Z M 218.816406 165.972656 C 222.429688 165.972656 224.566406 164.488281 226.085938 162.515625 L 224.03125 160.621094 C 222.71875 162.390625 221.035156 163.214844 218.996094 163.214844 C 214.769531 163.214844 212.140625 159.917969 212.140625 155.515625 C 212.140625 151.109375 214.769531 147.859375 218.996094 147.859375 C 221.050781 147.859375 222.734375 148.640625 224.03125 150.449219 L 226.085938 148.558594 C 224.566406 146.582031 222.429688 145.097656 218.816406 145.097656 C 212.902344 145.097656 208.917969 149.628906 208.917969 155.515625 C 208.917969 161.445312 212.902344 165.957031 218.816406 165.957031 Z M 235.410156 165.972656 C 237.214844 165.972656 238.324219 165.4375 239.105469 164.695312 L 238.203125 162.390625 C 237.792969 162.84375 236.988281 163.214844 236.109375 163.214844 C 234.753906 163.214844 234.097656 162.144531 234.097656 160.660156 L 234.097656 148.308594 L 238.121094 148.308594 L 238.121094 145.589844 L 234.097656 145.589844 L 234.097656 140.15625 L 231.015625 140.15625 L 231.015625 145.589844 L 227.730469 145.589844 L 227.730469 148.308594 L 231.015625 148.308594 L 231.015625 161.324219 C 231.015625 164.289062 232.492188 165.976562 235.410156 165.976562 Z M 235.410156 165.972656 "/></g></svg>