<svg xmlns="http://www.w3.org/2000/svg" xmlns:xlink="http://www.w3.org/1999/xlink" width="400" zoomAndPan="magnify" viewBox="0 0 300 299.999988" height="400" preserveAspectRatio="xMidYMid meet" version="1.2"><defs><clipPath id="b2c0845063"><path d="M 60 121 L 144 121 L 144 179 L 60 179 Z M 60 121 "/></clipPath><clipPath id="d6c0e3400f"><path d="M 60 118.582031 L 131 118.582031 L 131 181.582031 L 60 181.582031 Z M 60 118.582031 "/></clipPath></defs><g id="8695f6d595"><path style=" stroke:none;fill-rule:nonzero;fill:#727171;fill-opacity:1;" d="M 100.644531 149.945312 C 100.644531 150.339844 100.605469 150.734375 100.527344 151.121094 C 100.449219 151.507812 100.335938 151.886719 100.183594 152.253906 C 100.035156 152.617188 99.847656 152.964844 99.628906 153.296875 C 99.40625 153.625 99.15625 153.929688 98.878906 154.210938 C 98.597656 154.488281 98.292969 154.742188 97.964844 154.960938 C 97.632812 155.179688 97.285156 155.367188 96.921875 155.519531 C 96.554688 155.667969 96.175781 155.785156 95.789062 155.859375 C 95.398438 155.9375 95.007812 155.976562 94.613281 155.976562 C 94.214844 155.976562 93.824219 155.9375 93.433594 155.859375 C 93.046875 155.785156 92.667969 155.667969 92.300781 155.519531 C 91.9375 155.367188 91.589844 155.179688 91.257812 154.960938 C 90.929688 154.742188 90.625 154.488281 90.34375 154.210938 C 90.066406 153.929688 89.816406 153.625 89.59375 153.296875 C 89.375 152.964844 89.1875 152.617188 89.039062 152.253906 C 88.886719 151.886719 88.773438 151.507812 88.695312 151.121094 C 88.617188 150.734375 88.578125 150.339844 88.578125 149.945312 C 88.578125 149.546875 88.617188 149.15625 88.695312 148.765625 C 88.773438 148.378906 88.886719 148 89.039062 147.636719 C 89.1875 147.269531 89.375 146.921875 89.59375 146.59375 C 89.816406 146.261719 90.066406 145.957031 90.34375 145.679688 C 90.625 145.398438 90.929688 145.148438 91.257812 144.929688 C 91.589844 144.707031 91.9375 144.523438 92.300781 144.371094 C 92.667969 144.21875 93.046875 144.105469 93.433594 144.027344 C 93.824219 143.949219 94.214844 143.910156 94.613281 143.910156 C 95.007812 143.910156 95.398438 143.949219 95.789062 144.027344 C 96.175781 144.105469 96.554688 144.21875 96.921875 144.371094 C 97.285156 144.523438 97.632812 144.707031 97.964844 144.929688 C 98.292969 145.148438 98.597656 145.398438 98.878906 145.679688 C 99.15625 145.957031 99.40625 146.261719 99.628906 146.59375 C 99.847656 146.921875 100.035156 147.269531 100.183594 147.636719 C 100.335938 148 100.449219 148.378906 100.527344 148.765625 C 100.605469 149.15625 100.644531 149.546875 100.644531 149.945312 Z M 100.644531 149.945312 "/><g clip-rule="nonzero" clip-path="url(#b2c0845063)"><path style="fill:none;stroke-width:24;stroke-linecap:butt;stroke-linejoin:miter;stroke:#00d8ff;stroke-opacity:1;stroke-miterlimit:4;" d="M 269.545567 135.643295 C 336.882282 135.643295 399.444036 145.290668 446.641454 161.532037 C 503.486245 181.119128 538.437671 210.775868 538.437671 237.639092 C 538.437671 265.60673 501.40735 297.147468 440.339803 317.351731 C 394.214315 332.651101 333.471595 340.641854 269.545567 340.641854 C 203.962919 340.641854 141.888406 333.138342 95.243195 317.189318 C 36.189577 297.017537 0.620979 265.087006 0.620979 237.639092 C 0.620979 211.003247 33.980751 181.541404 90.045957 162.019278 C 137.405789 145.518048 201.494231 135.643295 269.513084 135.643295 Z M 269.545567 135.643295 " transform="matrix(0.120256,0,0,0.120256,62.198761,121.367743)"/></g><g clip-rule="nonzero" clip-path="url(#d6c0e3400f)"><path style="fill:none;stroke-width:24;stroke-linecap:butt;stroke-linejoin:miter;stroke:#00d8ff;stroke-opacity:1;stroke-miterlimit:4;" d="M 180.737761 186.933538 C 214.389878 128.562058 254.018818 79.188297 291.666311 46.445697 C 337.012213 6.97917 380.149289 -8.482613 403.439412 4.932758 C 427.671535 18.932818 436.474357 66.747408 423.481262 129.731437 C 413.703958 177.351131 390.251421 233.93606 358.320889 289.351611 C 325.57829 346.131437 288.060727 396.154854 250.932958 428.605109 C 203.962919 469.66329 158.552051 484.540384 134.774687 470.832668 C 111.67946 457.514746 102.844155 413.890429 113.920769 355.583914 C 123.275798 306.3076 146.760817 245.857225 180.737761 186.933538 Z M 180.737761 186.933538 " transform="matrix(0.120256,0,0,0.120256,62.198761,121.367743)"/><path style="fill:none;stroke-width:24;stroke-linecap:butt;stroke-linejoin:miter;stroke:#00d8ff;stroke-opacity:1;stroke-miterlimit:4;" d="M 180.835209 289.481542 C 147.085645 231.20751 124.087866 172.186375 114.505458 123.234889 C 102.974086 64.246237 111.127254 19.127714 134.384894 5.647378 C 158.584534 -8.352682 204.417677 7.888687 252.524612 50.603487 C 288.872796 82.891329 326.195462 131.453022 358.223441 186.771125 C 391.063489 243.518468 415.685405 300.980431 425.267812 349.347228 C 437.383874 410.577189 427.574087 457.319849 403.829205 471.09253 C 380.766461 484.442935 338.571385 470.312944 293.582793 431.593521 C 255.577989 398.883404 214.909601 348.340263 180.802727 289.481542 Z M 180.835209 289.481542 " transform="matrix(0.120256,0,0,0.120256,62.198761,121.367743)"/></g><path style=" stroke:none;fill-rule:evenodd;fill:#727171;fill-opacity:1;" d="M 161.578125 165.359375 L 154.183594 154.1875 C 157.921875 153.855469 161.289062 151.148438 161.289062 146.203125 C 161.289062 141.167969 157.714844 137.945312 152.703125 137.945312 L 141.699219 137.945312 L 141.699219 165.335938 L 145.109375 165.335938 L 145.109375 154.453125 L 150.570312 154.453125 L 157.550781 165.335938 Z M 152.296875 151.476562 L 145.109375 151.476562 L 145.109375 141.003906 L 152.296875 141.003906 C 155.542969 141.003906 157.757812 143.140625 157.757812 146.222656 C 157.757812 149.300781 155.539062 151.480469 152.296875 151.480469 Z M 174.269531 165.847656 C 177.515625 165.847656 180.183594 164.78125 182.152344 162.8125 L 180.675781 160.796875 C 179.113281 162.398438 176.816406 163.304688 174.554688 163.304688 C 170.285156 163.304688 167.65625 160.183594 167.410156 156.445312 L 183.464844 156.445312 L 183.464844 155.664062 C 183.464844 149.710938 179.933594 145.027344 173.9375 145.027344 C 168.269531 145.027344 164.164062 149.671875 164.164062 155.417969 C 164.164062 161.621094 168.394531 165.832031 174.265625 165.832031 Z M 180.429688 154.183594 L 167.410156 154.183594 C 167.578125 151.148438 169.667969 147.570312 173.898438 147.570312 C 178.417969 147.570312 180.386719 151.226562 180.429688 154.183594 Z M 203.921875 165.355469 L 203.921875 151.722656 C 203.921875 146.917969 200.433594 145.027344 196.242188 145.027344 C 192.996094 145.027344 190.453125 146.09375 188.316406 148.3125 L 189.753906 150.449219 C 191.519531 148.558594 193.453125 147.695312 195.832031 147.695312 C 198.707031 147.695312 200.84375 149.214844 200.84375 151.886719 L 200.84375 155.457031 C 199.242188 153.609375 196.984375 152.746094 194.273438 152.746094 C 190.90625 152.746094 187.332031 154.839844 187.332031 159.277344 C 187.332031 163.585938 190.902344 165.847656 194.273438 165.847656 C 196.941406 165.847656 199.203125 164.902344 200.84375 163.097656 L 200.84375 165.351562 Z M 195.382812 163.632812 C 192.507812 163.632812 190.496094 161.824219 190.496094 159.320312 C 190.496094 156.773438 192.507812 154.964844 195.382812 154.964844 C 197.558594 154.964844 199.652344 155.785156 200.84375 157.429688 L 200.84375 161.167969 C 199.652344 162.808594 197.558594 163.632812 195.382812 163.632812 Z M 218.816406 165.847656 C 222.429688 165.847656 224.566406 164.371094 226.085938 162.398438 L 224.03125 160.511719 C 222.71875 162.277344 221.035156 163.097656 218.996094 163.097656 C 214.769531 163.097656 212.140625 159.8125 212.140625 155.417969 C 212.140625 151.027344 214.769531 147.78125 218.996094 147.78125 C 221.050781 147.78125 222.734375 148.5625 224.03125 150.367188 L 226.085938 148.480469 C 224.566406 146.507812 222.429688 145.03125 218.816406 145.03125 C 212.902344 145.03125 208.917969 149.546875 208.917969 155.421875 C 208.917969 161.335938 212.902344 165.835938 218.816406 165.835938 Z M 235.410156 165.847656 C 237.214844 165.847656 238.324219 165.316406 239.105469 164.578125 L 238.203125 162.277344 C 237.792969 162.726562 236.988281 163.097656 236.109375 163.097656 C 234.753906 163.097656 234.097656 162.03125 234.097656 160.550781 L 234.097656 148.230469 L 238.121094 148.230469 L 238.121094 145.519531 L 234.097656 145.519531 L 234.097656 140.101562 L 231.015625 140.101562 L 231.015625 145.519531 L 227.730469 145.519531 L 227.730469 148.234375 L 231.015625 148.234375 L 231.015625 161.210938 C 231.015625 164.167969 232.492188 165.851562 235.410156 165.851562 Z M 235.410156 165.847656 "/></g></svg>