<svg xmlns="http://www.w3.org/2000/svg" xmlns:xlink="http://www.w3.org/1999/xlink" width="400" zoomAndPan="magnify" viewBox="0 0 300 299.999988" height="400" preserveAspectRatio="xMidYMid meet" version="1.2"><defs/><g id="b9b8c09f25"><g style="fill:#000000;fill-opacity:1;"><g transform="translate(55.078127, 160.874987)"><path style="stroke:none" d="M 13.40625 -0.828125 C 12.914062 -0.460938 12.3125 -0.191406 11.59375 -0.015625 C 10.882812 0.160156 10.132812 0.25 9.34375 0.25 C 7.289062 0.25 5.703125 -0.269531 4.578125 -1.3125 C 3.460938 -2.351562 2.90625 -3.890625 2.90625 -5.921875 L 2.90625 -12.984375 L 0.25 -12.984375 L 0.25 -16.828125 L 2.90625 -16.828125 L 2.90625 -21.03125 L 7.90625 -21.03125 L 7.90625 -16.828125 L 12.1875 -16.828125 L 12.1875 -12.984375 L 7.90625 -12.984375 L 7.90625 -5.984375 C 7.90625 -5.253906 8.09375 -4.691406 8.46875 -4.296875 C 8.84375 -3.910156 9.367188 -3.71875 10.046875 -3.71875 C 10.835938 -3.71875 11.507812 -3.929688 12.0625 -4.359375 Z M 13.40625 -0.828125 "/></g></g><g style="fill:#000000;fill-opacity:1;"><g transform="translate(68.994702, 160.874987)"><path style="stroke:none" d="M 9.25 -17.46875 C 11.914062 -17.46875 13.960938 -16.832031 15.390625 -15.5625 C 16.816406 -14.289062 17.53125 -12.378906 17.53125 -9.828125 L 17.53125 0 L 12.859375 0 L 12.859375 -2.140625 C 11.921875 -0.546875 10.171875 0.25 7.609375 0.25 C 6.285156 0.25 5.140625 0.0234375 4.171875 -0.421875 C 3.203125 -0.867188 2.460938 -1.484375 1.953125 -2.265625 C 1.441406 -3.054688 1.1875 -3.953125 1.1875 -4.953125 C 1.1875 -6.554688 1.785156 -7.816406 2.984375 -8.734375 C 4.191406 -9.648438 6.054688 -10.109375 8.578125 -10.109375 L 12.546875 -10.109375 C 12.546875 -11.203125 12.210938 -12.039062 11.546875 -12.625 C 10.890625 -13.207031 9.898438 -13.5 8.578125 -13.5 C 7.660156 -13.5 6.757812 -13.351562 5.875 -13.0625 C 4.988281 -12.78125 4.234375 -12.394531 3.609375 -11.90625 L 1.828125 -15.390625 C 2.765625 -16.054688 3.890625 -16.566406 5.203125 -16.921875 C 6.515625 -17.285156 7.863281 -17.46875 9.25 -17.46875 Z M 8.859375 -3.109375 C 9.710938 -3.109375 10.46875 -3.300781 11.125 -3.6875 C 11.789062 -4.082031 12.265625 -4.664062 12.546875 -5.4375 L 12.546875 -7.203125 L 9.125 -7.203125 C 7.070312 -7.203125 6.046875 -6.53125 6.046875 -5.1875 C 6.046875 -4.539062 6.296875 -4.03125 6.796875 -3.65625 C 7.296875 -3.289062 7.984375 -3.109375 8.859375 -3.109375 Z M 8.859375 -3.109375 "/></g></g><g style="fill:#000000;fill-opacity:1;"><g transform="translate(88.733847, 160.874987)"><path style="stroke:none" d="M 2.296875 -17.21875 L 7.296875 -17.21875 L 7.296875 0 L 2.296875 0 Z M 4.8125 -19.609375 C 3.894531 -19.609375 3.144531 -19.875 2.5625 -20.40625 C 1.988281 -20.945312 1.703125 -21.613281 1.703125 -22.40625 C 1.703125 -23.1875 1.988281 -23.84375 2.5625 -24.375 C 3.144531 -24.914062 3.894531 -25.1875 4.8125 -25.1875 C 5.726562 -25.1875 6.472656 -24.925781 7.046875 -24.40625 C 7.617188 -23.894531 7.90625 -23.257812 7.90625 -22.5 C 7.90625 -21.664062 7.617188 -20.972656 7.046875 -20.421875 C 6.472656 -19.878906 5.726562 -19.609375 4.8125 -19.609375 Z M 4.8125 -19.609375 "/></g></g><g style="fill:#000000;fill-opacity:1;"><g transform="translate(98.363478, 160.874987)"><path style="stroke:none" d="M 2.296875 -23.75 L 7.296875 -23.75 L 7.296875 0 L 2.296875 0 Z M 2.296875 -23.75 "/></g></g><g style="fill:#000000;fill-opacity:1;"><g transform="translate(107.993108, 160.874987)"><path style="stroke:none" d="M 29.953125 -17.21875 L 23.71875 0 L 18.90625 0 L 15.046875 -10.6875 L 11.046875 0 L 6.234375 0 L 0.03125 -17.21875 L 4.734375 -17.21875 L 8.796875 -5.5625 L 13.03125 -17.21875 L 17.25 -17.21875 L 21.34375 -5.5625 L 25.53125 -17.21875 Z M 29.953125 -17.21875 "/></g></g><g style="fill:#000000;fill-opacity:1;"><g transform="translate(137.969737, 160.874987)"><path style="stroke:none" d="M 2.296875 -17.21875 L 7.296875 -17.21875 L 7.296875 0 L 2.296875 0 Z M 4.8125 -19.609375 C 3.894531 -19.609375 3.144531 -19.875 2.5625 -20.40625 C 1.988281 -20.945312 1.703125 -21.613281 1.703125 -22.40625 C 1.703125 -23.1875 1.988281 -23.84375 2.5625 -24.375 C 3.144531 -24.914062 3.894531 -25.1875 4.8125 -25.1875 C 5.726562 -25.1875 6.472656 -24.925781 7.046875 -24.40625 C 7.617188 -23.894531 7.90625 -23.257812 7.90625 -22.5 C 7.90625 -21.664062 7.617188 -20.972656 7.046875 -20.421875 C 6.472656 -19.878906 5.726562 -19.609375 4.8125 -19.609375 Z M 4.8125 -19.609375 "/></g></g><g style="fill:#000000;fill-opacity:1;"><g transform="translate(147.599367, 160.874987)"><path style="stroke:none" d="M 12.765625 -17.46875 C 14.898438 -17.46875 16.625 -16.828125 17.9375 -15.546875 C 19.25 -14.265625 19.90625 -12.367188 19.90625 -9.859375 L 19.90625 0 L 14.90625 0 L 14.90625 -9.09375 C 14.90625 -10.457031 14.609375 -11.472656 14.015625 -12.140625 C 13.421875 -12.816406 12.554688 -13.15625 11.421875 -13.15625 C 10.160156 -13.15625 9.15625 -12.765625 8.40625 -11.984375 C 7.664062 -11.203125 7.296875 -10.046875 7.296875 -8.515625 L 7.296875 0 L 2.296875 0 L 2.296875 -17.21875 L 7.078125 -17.21875 L 7.078125 -15.203125 C 7.734375 -15.921875 8.550781 -16.476562 9.53125 -16.875 C 10.519531 -17.269531 11.597656 -17.46875 12.765625 -17.46875 Z M 12.765625 -17.46875 "/></g></g><g style="fill:#000000;fill-opacity:1;"><g transform="translate(169.897904, 160.874987)"><path style="stroke:none" d="M 19.84375 -23.75 L 19.84375 0 L 15.078125 0 L 15.078125 -1.984375 C 13.835938 -0.492188 12.046875 0.25 9.703125 0.25 C 8.078125 0.25 6.609375 -0.109375 5.296875 -0.828125 C 3.984375 -1.554688 2.953125 -2.59375 2.203125 -3.9375 C 1.460938 -5.28125 1.09375 -6.835938 1.09375 -8.609375 C 1.09375 -10.378906 1.460938 -11.9375 2.203125 -13.28125 C 2.953125 -14.625 3.984375 -15.65625 5.296875 -16.375 C 6.609375 -17.101562 8.078125 -17.46875 9.703125 -17.46875 C 11.890625 -17.46875 13.601562 -16.773438 14.84375 -15.390625 L 14.84375 -23.75 Z M 10.5625 -3.84375 C 11.820312 -3.84375 12.863281 -4.273438 13.6875 -5.140625 C 14.519531 -6.003906 14.9375 -7.160156 14.9375 -8.609375 C 14.9375 -10.054688 14.519531 -11.210938 13.6875 -12.078125 C 12.863281 -12.941406 11.820312 -13.375 10.5625 -13.375 C 9.28125 -13.375 8.222656 -12.941406 7.390625 -12.078125 C 6.554688 -11.210938 6.140625 -10.054688 6.140625 -8.609375 C 6.140625 -7.160156 6.554688 -6.003906 7.390625 -5.140625 C 8.222656 -4.273438 9.28125 -3.84375 10.5625 -3.84375 Z M 10.5625 -3.84375 "/></g></g><g style="fill:#000000;fill-opacity:1;"><g transform="translate(192.036463, 160.874987)"><path style="stroke:none" d="M 10.625 0.25 C 8.789062 0.25 7.140625 -0.125 5.671875 -0.875 C 4.210938 -1.632812 3.070312 -2.6875 2.25 -4.03125 C 1.4375 -5.375 1.03125 -6.898438 1.03125 -8.609375 C 1.03125 -10.316406 1.4375 -11.84375 2.25 -13.1875 C 3.070312 -14.53125 4.210938 -15.578125 5.671875 -16.328125 C 7.140625 -17.085938 8.789062 -17.46875 10.625 -17.46875 C 12.4375 -17.46875 14.019531 -17.085938 15.375 -16.328125 C 16.726562 -15.578125 17.71875 -14.5 18.34375 -13.09375 L 14.46875 -11.015625 C 13.570312 -12.585938 12.28125 -13.375 10.59375 -13.375 C 9.289062 -13.375 8.210938 -12.945312 7.359375 -12.09375 C 6.503906 -11.238281 6.078125 -10.078125 6.078125 -8.609375 C 6.078125 -7.140625 6.503906 -5.976562 7.359375 -5.125 C 8.210938 -4.269531 9.289062 -3.84375 10.59375 -3.84375 C 12.300781 -3.84375 13.59375 -4.628906 14.46875 -6.203125 L 18.34375 -4.09375 C 17.71875 -2.726562 16.726562 -1.660156 15.375 -0.890625 C 14.019531 -0.128906 12.4375 0.25 10.625 0.25 Z M 10.625 0.25 "/></g></g><g style="fill:#000000;fill-opacity:1;"><g transform="translate(210.943818, 160.874987)"><path style="stroke:none" d="M 8.09375 0.25 C 6.664062 0.25 5.269531 0.078125 3.90625 -0.265625 C 2.539062 -0.617188 1.453125 -1.0625 0.640625 -1.59375 L 2.296875 -5.1875 C 3.066406 -4.695312 3.992188 -4.296875 5.078125 -3.984375 C 6.171875 -3.671875 7.238281 -3.515625 8.28125 -3.515625 C 10.394531 -3.515625 11.453125 -4.039062 11.453125 -5.09375 C 11.453125 -5.582031 11.164062 -5.929688 10.59375 -6.140625 C 10.019531 -6.359375 9.132812 -6.539062 7.9375 -6.6875 C 6.53125 -6.90625 5.367188 -7.148438 4.453125 -7.421875 C 3.535156 -7.703125 2.738281 -8.191406 2.0625 -8.890625 C 1.394531 -9.597656 1.0625 -10.601562 1.0625 -11.90625 C 1.0625 -12.988281 1.375 -13.953125 2 -14.796875 C 2.625 -15.640625 3.539062 -16.296875 4.75 -16.765625 C 5.957031 -17.234375 7.382812 -17.46875 9.03125 -17.46875 C 10.238281 -17.46875 11.445312 -17.332031 12.65625 -17.0625 C 13.863281 -16.800781 14.859375 -16.4375 15.640625 -15.96875 L 13.984375 -12.421875 C 12.472656 -13.273438 10.820312 -13.703125 9.03125 -13.703125 C 7.957031 -13.703125 7.15625 -13.550781 6.625 -13.25 C 6.09375 -12.945312 5.828125 -12.5625 5.828125 -12.09375 C 5.828125 -11.5625 6.113281 -11.1875 6.6875 -10.96875 C 7.257812 -10.757812 8.175781 -10.5625 9.4375 -10.375 C 10.84375 -10.132812 11.992188 -9.878906 12.890625 -9.609375 C 13.785156 -9.347656 14.5625 -8.863281 15.21875 -8.15625 C 15.882812 -7.457031 16.21875 -6.476562 16.21875 -5.21875 C 16.21875 -4.144531 15.894531 -3.191406 15.25 -2.359375 C 14.613281 -1.535156 13.679688 -0.894531 12.453125 -0.4375 C 11.234375 0.0195312 9.78125 0.25 8.09375 0.25 Z M 8.09375 0.25 "/></g></g><g style="fill:#000000;fill-opacity:1;"><g transform="translate(227.931643, 160.874987)"><path style="stroke:none" d="M 8.09375 0.25 C 6.664062 0.25 5.269531 0.078125 3.90625 -0.265625 C 2.539062 -0.617188 1.453125 -1.0625 0.640625 -1.59375 L 2.296875 -5.1875 C 3.066406 -4.695312 3.992188 -4.296875 5.078125 -3.984375 C 6.171875 -3.671875 7.238281 -3.515625 8.28125 -3.515625 C 10.394531 -3.515625 11.453125 -4.039062 11.453125 -5.09375 C 11.453125 -5.582031 11.164062 -5.929688 10.59375 -6.140625 C 10.019531 -6.359375 9.132812 -6.539062 7.9375 -6.6875 C 6.53125 -6.90625 5.367188 -7.148438 4.453125 -7.421875 C 3.535156 -7.703125 2.738281 -8.191406 2.0625 -8.890625 C 1.394531 -9.597656 1.0625 -10.601562 1.0625 -11.90625 C 1.0625 -12.988281 1.375 -13.953125 2 -14.796875 C 2.625 -15.640625 3.539062 -16.296875 4.75 -16.765625 C 5.957031 -17.234375 7.382812 -17.46875 9.03125 -17.46875 C 10.238281 -17.46875 11.445312 -17.332031 12.65625 -17.0625 C 13.863281 -16.800781 14.859375 -16.4375 15.640625 -15.96875 L 13.984375 -12.421875 C 12.472656 -13.273438 10.820312 -13.703125 9.03125 -13.703125 C 7.957031 -13.703125 7.15625 -13.550781 6.625 -13.25 C 6.09375 -12.945312 5.828125 -12.5625 5.828125 -12.09375 C 5.828125 -11.5625 6.113281 -11.1875 6.6875 -10.96875 C 7.257812 -10.757812 8.175781 -10.5625 9.4375 -10.375 C 10.84375 -10.132812 11.992188 -9.878906 12.890625 -9.609375 C 13.785156 -9.347656 14.5625 -8.863281 15.21875 -8.15625 C 15.882812 -7.457031 16.21875 -6.476562 16.21875 -5.21875 C 16.21875 -4.144531 15.894531 -3.191406 15.25 -2.359375 C 14.613281 -1.535156 13.679688 -0.894531 12.453125 -0.4375 C 11.234375 0.0195312 9.78125 0.25 8.09375 0.25 Z M 8.09375 0.25 "/></g></g></g></svg>