<svg xmlns="http://www.w3.org/2000/svg" xmlns:xlink="http://www.w3.org/1999/xlink" width="400" zoomAndPan="magnify" viewBox="0 0 300 299.999988" height="400" preserveAspectRatio="xMidYMid meet" version="1.2"><defs><clipPath id="45207b3fbe"><path d="M 117 137 L 216.097656 137 L 216.097656 216.097656 L 117 216.097656 Z M 117 137 "/></clipPath><clipPath id="49eccacfee"><path d="M 84.097656 84.097656 L 159 84.097656 L 159 184 L 84.097656 184 Z M 84.097656 84.097656 "/></clipPath></defs><g id="442b71645a"><g clip-rule="nonzero" clip-path="url(#45207b3fbe)"><path style=" stroke:none;fill-rule:nonzero;fill:#38004d;fill-opacity:1;" d="M 211.972656 216.097656 L 121.222656 216.097656 C 120.953125 216.097656 120.683594 216.070312 120.417969 216.019531 C 120.152344 215.964844 119.894531 215.886719 119.644531 215.785156 C 119.394531 215.679688 119.15625 215.554688 118.929688 215.402344 C 118.707031 215.253906 118.496094 215.082031 118.304688 214.890625 C 118.113281 214.699219 117.945312 214.488281 117.792969 214.265625 C 117.644531 214.039062 117.515625 213.800781 117.410156 213.550781 C 117.308594 213.300781 117.230469 213.042969 117.175781 212.777344 C 117.125 212.511719 117.097656 212.242188 117.097656 211.972656 L 117.097656 141.847656 C 117.097656 141.578125 117.125 141.308594 117.175781 141.042969 C 117.230469 140.777344 117.308594 140.519531 117.410156 140.269531 C 117.515625 140.019531 117.644531 139.78125 117.792969 139.554688 C 117.945312 139.332031 118.113281 139.121094 118.304688 138.929688 C 118.496094 138.738281 118.707031 138.570312 118.929688 138.417969 C 119.15625 138.269531 119.394531 138.140625 119.644531 138.035156 C 119.894531 137.933594 120.152344 137.855469 120.417969 137.800781 C 120.683594 137.75 120.953125 137.722656 121.222656 137.722656 L 211.972656 137.722656 C 212.242188 137.722656 212.511719 137.75 212.777344 137.800781 C 213.042969 137.855469 213.300781 137.933594 213.550781 138.035156 C 213.800781 138.140625 214.039062 138.269531 214.265625 138.417969 C 214.488281 138.570312 214.699219 138.738281 214.890625 138.929688 C 215.082031 139.121094 215.253906 139.332031 215.402344 139.554688 C 215.554688 139.78125 215.679688 140.019531 215.785156 140.269531 C 215.886719 140.519531 215.964844 140.777344 216.019531 141.042969 C 216.070312 141.308594 216.097656 141.578125 216.097656 141.847656 L 216.097656 211.972656 C 216.097656 212.242188 216.070312 212.511719 216.019531 212.777344 C 215.964844 213.042969 215.886719 213.300781 215.785156 213.550781 C 215.679688 213.800781 215.554688 214.039062 215.402344 214.265625 C 215.253906 214.488281 215.082031 214.699219 214.890625 214.890625 C 214.699219 215.082031 214.488281 215.253906 214.265625 215.402344 C 214.039062 215.554688 213.800781 215.679688 213.550781 215.785156 C 213.300781 215.886719 213.042969 215.964844 212.777344 216.019531 C 212.511719 216.070312 212.242188 216.097656 211.972656 216.097656 Z M 125.347656 207.847656 L 207.847656 207.847656 L 207.847656 145.972656 L 125.347656 145.972656 Z M 125.347656 207.847656 "/></g><g clip-rule="nonzero" clip-path="url(#49eccacfee)"><path style=" stroke:none;fill-rule:nonzero;fill:#38004d;fill-opacity:1;" d="M 121.222656 183.097656 L 100.597656 183.097656 C 100.058594 183.097656 99.519531 183.070312 98.980469 183.019531 C 98.441406 182.964844 97.910156 182.886719 97.378906 182.78125 C 96.847656 182.675781 96.324219 182.542969 95.808594 182.386719 C 95.292969 182.230469 94.78125 182.050781 94.285156 181.84375 C 93.785156 181.636719 93.296875 181.40625 92.820312 181.148438 C 92.34375 180.894531 91.878906 180.617188 91.429688 180.316406 C 90.980469 180.015625 90.546875 179.695312 90.128906 179.351562 C 89.710938 179.011719 89.3125 178.648438 88.929688 178.265625 C 88.546875 177.882812 88.1875 177.484375 87.84375 177.066406 C 87.5 176.648438 87.179688 176.214844 86.878906 175.765625 C 86.578125 175.316406 86.300781 174.851562 86.046875 174.375 C 85.792969 173.898438 85.5625 173.410156 85.355469 172.914062 C 85.148438 172.414062 84.964844 171.90625 84.808594 171.386719 C 84.652344 170.871094 84.519531 170.347656 84.414062 169.816406 C 84.308594 169.285156 84.230469 168.753906 84.175781 168.214844 C 84.125 167.675781 84.097656 167.136719 84.097656 166.597656 L 84.097656 100.597656 C 84.097656 100.058594 84.125 99.519531 84.175781 98.980469 C 84.230469 98.441406 84.308594 97.910156 84.414062 97.378906 C 84.519531 96.847656 84.652344 96.324219 84.808594 95.808594 C 84.964844 95.292969 85.148438 94.78125 85.355469 94.285156 C 85.5625 93.785156 85.792969 93.296875 86.046875 92.820312 C 86.300781 92.34375 86.578125 91.878906 86.878906 91.429688 C 87.179688 90.980469 87.5 90.546875 87.84375 90.128906 C 88.1875 89.710938 88.546875 89.3125 88.929688 88.929688 C 89.3125 88.546875 89.710938 88.1875 90.128906 87.84375 C 90.546875 87.5 90.980469 87.179688 91.429688 86.878906 C 91.878906 86.578125 92.34375 86.300781 92.820312 86.046875 C 93.296875 85.792969 93.785156 85.5625 94.285156 85.355469 C 94.78125 85.148438 95.292969 84.964844 95.808594 84.808594 C 96.324219 84.652344 96.847656 84.519531 97.378906 84.414062 C 97.910156 84.308594 98.441406 84.230469 98.980469 84.175781 C 99.519531 84.125 100.058594 84.097656 100.597656 84.097656 L 141.847656 84.097656 C 142.386719 84.097656 142.925781 84.125 143.464844 84.175781 C 144.003906 84.230469 144.535156 84.308594 145.066406 84.414062 C 145.597656 84.519531 146.121094 84.652344 146.636719 84.808594 C 147.15625 84.964844 147.664062 85.148438 148.164062 85.355469 C 148.660156 85.5625 149.148438 85.792969 149.625 86.046875 C 150.101562 86.300781 150.566406 86.578125 151.015625 86.878906 C 151.464844 87.179688 151.898438 87.5 152.316406 87.84375 C 152.734375 88.1875 153.132812 88.546875 153.515625 88.929688 C 153.898438 89.3125 154.261719 89.710938 154.601562 90.128906 C 154.945312 90.546875 155.265625 90.980469 155.566406 91.429688 C 155.867188 91.878906 156.144531 92.34375 156.398438 92.820312 C 156.65625 93.296875 156.886719 93.785156 157.09375 94.285156 C 157.300781 94.78125 157.480469 95.292969 157.636719 95.808594 C 157.792969 96.324219 157.925781 96.847656 158.03125 97.378906 C 158.136719 97.910156 158.214844 98.441406 158.269531 98.980469 C 158.320312 99.519531 158.347656 100.058594 158.347656 100.597656 L 158.347656 125.347656 C 158.347656 125.617188 158.320312 125.886719 158.269531 126.152344 C 158.214844 126.417969 158.136719 126.675781 158.035156 126.925781 C 157.929688 127.175781 157.804688 127.414062 157.652344 127.640625 C 157.503906 127.863281 157.332031 128.074219 157.140625 128.265625 C 156.949219 128.457031 156.738281 128.628906 156.515625 128.777344 C 156.289062 128.929688 156.050781 129.054688 155.800781 129.160156 C 155.550781 129.261719 155.292969 129.339844 155.027344 129.394531 C 154.761719 129.445312 154.492188 129.472656 154.222656 129.472656 C 153.953125 129.472656 153.683594 129.445312 153.417969 129.394531 C 153.152344 129.339844 152.894531 129.261719 152.644531 129.160156 C 152.394531 129.054688 152.15625 128.929688 151.929688 128.777344 C 151.707031 128.628906 151.496094 128.457031 151.304688 128.265625 C 151.113281 128.074219 150.945312 127.863281 150.792969 127.640625 C 150.644531 127.414062 150.515625 127.175781 150.410156 126.925781 C 150.308594 126.675781 150.230469 126.417969 150.175781 126.152344 C 150.125 125.886719 150.097656 125.617188 150.097656 125.347656 L 150.097656 100.597656 C 150.097656 100.054688 150.046875 99.519531 149.941406 98.988281 C 149.832031 98.457031 149.675781 97.941406 149.46875 97.441406 C 149.261719 96.941406 149.007812 96.464844 148.707031 96.015625 C 148.40625 95.5625 148.066406 95.148438 147.683594 94.765625 C 147.296875 94.382812 146.882812 94.039062 146.429688 93.738281 C 145.980469 93.4375 145.503906 93.183594 145.003906 92.976562 C 144.503906 92.769531 143.988281 92.613281 143.457031 92.507812 C 142.925781 92.402344 142.390625 92.347656 141.847656 92.347656 L 100.597656 92.347656 C 100.054688 92.347656 99.519531 92.402344 98.988281 92.507812 C 98.457031 92.613281 97.941406 92.769531 97.441406 92.976562 C 96.941406 93.183594 96.464844 93.4375 96.015625 93.738281 C 95.5625 94.039062 95.148438 94.382812 94.765625 94.765625 C 94.382812 95.148438 94.039062 95.5625 93.738281 96.015625 C 93.4375 96.464844 93.183594 96.941406 92.976562 97.441406 C 92.769531 97.941406 92.613281 98.457031 92.507812 98.988281 C 92.402344 99.519531 92.347656 100.054688 92.347656 100.597656 L 92.347656 166.597656 C 92.347656 167.140625 92.402344 167.675781 92.507812 168.207031 C 92.613281 168.738281 92.769531 169.253906 92.976562 169.753906 C 93.183594 170.253906 93.4375 170.730469 93.738281 171.179688 C 94.039062 171.632812 94.382812 172.046875 94.765625 172.433594 C 95.148438 172.816406 95.5625 173.15625 96.015625 173.457031 C 96.464844 173.757812 96.941406 174.011719 97.441406 174.21875 C 97.941406 174.425781 98.457031 174.582031 98.988281 174.691406 C 99.519531 174.796875 100.054688 174.847656 100.597656 174.847656 L 121.222656 174.847656 C 121.492188 174.847656 121.761719 174.875 122.027344 174.925781 C 122.292969 174.980469 122.550781 175.058594 122.800781 175.160156 C 123.050781 175.265625 123.289062 175.394531 123.515625 175.542969 C 123.738281 175.695312 123.949219 175.863281 124.140625 176.054688 C 124.332031 176.246094 124.503906 176.457031 124.652344 176.679688 C 124.804688 176.90625 124.929688 177.144531 125.035156 177.394531 C 125.136719 177.644531 125.214844 177.902344 125.269531 178.167969 C 125.320312 178.433594 125.347656 178.703125 125.347656 178.972656 C 125.347656 179.242188 125.320312 179.511719 125.269531 179.777344 C 125.214844 180.042969 125.136719 180.300781 125.035156 180.550781 C 124.929688 180.800781 124.804688 181.039062 124.652344 181.265625 C 124.503906 181.488281 124.332031 181.699219 124.140625 181.890625 C 123.949219 182.082031 123.738281 182.253906 123.515625 182.402344 C 123.289062 182.554688 123.050781 182.679688 122.800781 182.785156 C 122.550781 182.886719 122.292969 182.964844 122.027344 183.019531 C 121.761719 183.070312 121.492188 183.097656 121.222656 183.097656 Z M 121.222656 183.097656 "/></g><path style=" stroke:none;fill-rule:nonzero;fill:#38004d;fill-opacity:1;" d="M 112.972656 129.472656 C 112.160156 129.472656 111.355469 129.394531 110.558594 129.234375 C 109.761719 129.078125 108.988281 128.84375 108.238281 128.53125 C 107.488281 128.21875 106.773438 127.839844 106.097656 127.386719 C 105.421875 126.9375 104.796875 126.421875 104.222656 125.847656 C 103.648438 125.273438 103.136719 124.648438 102.683594 123.972656 C 102.230469 123.296875 101.851562 122.585938 101.539062 121.832031 C 101.230469 121.082031 100.996094 120.308594 100.835938 119.511719 C 100.675781 118.714844 100.597656 117.910156 100.597656 117.097656 L 100.597656 104.722656 C 100.597656 104.453125 100.625 104.183594 100.675781 103.917969 C 100.730469 103.652344 100.808594 103.394531 100.910156 103.144531 C 101.015625 102.894531 101.144531 102.65625 101.292969 102.429688 C 101.445312 102.207031 101.613281 101.996094 101.804688 101.804688 C 101.996094 101.613281 102.207031 101.445312 102.429688 101.292969 C 102.65625 101.144531 102.894531 101.015625 103.144531 100.910156 C 103.394531 100.808594 103.652344 100.730469 103.917969 100.675781 C 104.183594 100.625 104.453125 100.597656 104.722656 100.597656 C 104.992188 100.597656 105.261719 100.625 105.527344 100.675781 C 105.792969 100.730469 106.050781 100.808594 106.300781 100.910156 C 106.550781 101.015625 106.789062 101.144531 107.015625 101.292969 C 107.238281 101.445312 107.449219 101.613281 107.640625 101.804688 C 107.832031 101.996094 108.003906 102.207031 108.152344 102.429688 C 108.304688 102.65625 108.429688 102.894531 108.535156 103.144531 C 108.636719 103.394531 108.714844 103.652344 108.769531 103.917969 C 108.820312 104.183594 108.847656 104.453125 108.847656 104.722656 L 108.847656 117.097656 C 108.847656 117.367188 108.875 117.636719 108.925781 117.902344 C 108.980469 118.167969 109.058594 118.425781 109.160156 118.675781 C 109.265625 118.925781 109.394531 119.164062 109.542969 119.390625 C 109.695312 119.613281 109.863281 119.824219 110.054688 120.015625 C 110.246094 120.207031 110.457031 120.378906 110.679688 120.527344 C 110.90625 120.679688 111.144531 120.804688 111.394531 120.910156 C 111.644531 121.011719 111.902344 121.089844 112.167969 121.144531 C 112.433594 121.195312 112.703125 121.222656 112.972656 121.222656 C 113.242188 121.222656 113.511719 121.195312 113.777344 121.144531 C 114.042969 121.089844 114.300781 121.011719 114.550781 120.910156 C 114.800781 120.804688 115.039062 120.679688 115.265625 120.527344 C 115.488281 120.378906 115.699219 120.207031 115.890625 120.015625 C 116.082031 119.824219 116.253906 119.613281 116.402344 119.390625 C 116.554688 119.164062 116.679688 118.925781 116.785156 118.675781 C 116.886719 118.425781 116.964844 118.167969 117.019531 117.902344 C 117.070312 117.636719 117.097656 117.367188 117.097656 117.097656 L 117.097656 104.722656 C 117.097656 104.453125 117.125 104.183594 117.175781 103.917969 C 117.230469 103.652344 117.308594 103.394531 117.410156 103.144531 C 117.515625 102.894531 117.644531 102.65625 117.792969 102.429688 C 117.945312 102.207031 118.113281 101.996094 118.304688 101.804688 C 118.496094 101.613281 118.707031 101.445312 118.929688 101.292969 C 119.15625 101.144531 119.394531 101.015625 119.644531 100.910156 C 119.894531 100.808594 120.152344 100.730469 120.417969 100.675781 C 120.683594 100.625 120.953125 100.597656 121.222656 100.597656 C 121.492188 100.597656 121.761719 100.625 122.027344 100.675781 C 122.292969 100.730469 122.550781 100.808594 122.800781 100.910156 C 123.050781 101.015625 123.289062 101.144531 123.515625 101.292969 C 123.738281 101.445312 123.949219 101.613281 124.140625 101.804688 C 124.332031 101.996094 124.503906 102.207031 124.652344 102.429688 C 124.804688 102.65625 124.929688 102.894531 125.035156 103.144531 C 125.136719 103.394531 125.214844 103.652344 125.269531 103.917969 C 125.320312 104.183594 125.347656 104.453125 125.347656 104.722656 L 125.347656 117.097656 C 125.347656 117.910156 125.269531 118.714844 125.109375 119.511719 C 124.953125 120.308594 124.71875 121.082031 124.40625 121.832031 C 124.09375 122.585938 123.714844 123.296875 123.261719 123.972656 C 122.8125 124.648438 122.296875 125.273438 121.722656 125.847656 C 121.148438 126.421875 120.523438 126.9375 119.847656 127.386719 C 119.171875 127.839844 118.460938 128.21875 117.707031 128.53125 C 116.957031 128.84375 116.183594 129.078125 115.386719 129.234375 C 114.589844 129.394531 113.785156 129.472656 112.972656 129.472656 Z M 112.972656 129.472656 "/><path style=" stroke:none;fill-rule:nonzero;fill:#9f85ec;fill-opacity:1;" d="M 145.972656 183.097656 C 145.160156 183.097656 144.355469 183.019531 143.558594 182.859375 C 142.761719 182.703125 141.988281 182.46875 141.238281 182.15625 C 140.488281 181.84375 139.773438 181.464844 139.097656 181.011719 C 138.421875 180.5625 137.796875 180.046875 137.222656 179.472656 C 136.648438 178.898438 136.136719 178.273438 135.683594 177.597656 C 135.230469 176.921875 134.851562 176.210938 134.539062 175.457031 C 134.230469 174.707031 133.996094 173.933594 133.835938 173.136719 C 133.675781 172.339844 133.597656 171.535156 133.597656 170.722656 L 133.597656 158.347656 C 133.597656 158.078125 133.625 157.808594 133.675781 157.542969 C 133.730469 157.277344 133.808594 157.019531 133.910156 156.769531 C 134.015625 156.519531 134.144531 156.28125 134.292969 156.054688 C 134.445312 155.832031 134.613281 155.621094 134.804688 155.429688 C 134.996094 155.238281 135.207031 155.070312 135.429688 154.917969 C 135.65625 154.769531 135.894531 154.640625 136.144531 154.535156 C 136.394531 154.433594 136.652344 154.355469 136.917969 154.300781 C 137.183594 154.25 137.453125 154.222656 137.722656 154.222656 C 137.992188 154.222656 138.261719 154.25 138.527344 154.300781 C 138.792969 154.355469 139.050781 154.433594 139.300781 154.535156 C 139.550781 154.640625 139.789062 154.769531 140.015625 154.917969 C 140.238281 155.070312 140.449219 155.238281 140.640625 155.429688 C 140.832031 155.621094 141.003906 155.832031 141.152344 156.054688 C 141.304688 156.28125 141.429688 156.519531 141.535156 156.769531 C 141.636719 157.019531 141.714844 157.277344 141.769531 157.542969 C 141.820312 157.808594 141.847656 158.078125 141.847656 158.347656 L 141.847656 170.722656 C 141.847656 170.992188 141.875 171.261719 141.925781 171.527344 C 141.980469 171.792969 142.058594 172.050781 142.160156 172.300781 C 142.265625 172.550781 142.394531 172.789062 142.542969 173.015625 C 142.695312 173.238281 142.863281 173.449219 143.054688 173.640625 C 143.246094 173.832031 143.457031 174.003906 143.679688 174.152344 C 143.90625 174.304688 144.144531 174.429688 144.394531 174.535156 C 144.644531 174.636719 144.902344 174.714844 145.167969 174.769531 C 145.433594 174.820312 145.703125 174.847656 145.972656 174.847656 C 146.242188 174.847656 146.511719 174.820312 146.777344 174.769531 C 147.042969 174.714844 147.300781 174.636719 147.550781 174.535156 C 147.800781 174.429688 148.039062 174.304688 148.265625 174.152344 C 148.488281 174.003906 148.699219 173.832031 148.890625 173.640625 C 149.082031 173.449219 149.253906 173.238281 149.402344 173.015625 C 149.554688 172.789062 149.679688 172.550781 149.785156 172.300781 C 149.886719 172.050781 149.964844 171.792969 150.019531 171.527344 C 150.070312 171.261719 150.097656 170.992188 150.097656 170.722656 L 150.097656 158.347656 C 150.097656 158.078125 150.125 157.808594 150.175781 157.542969 C 150.230469 157.277344 150.308594 157.019531 150.410156 156.769531 C 150.515625 156.519531 150.644531 156.28125 150.792969 156.054688 C 150.945312 155.832031 151.113281 155.621094 151.304688 155.429688 C 151.496094 155.238281 151.707031 155.070312 151.929688 154.917969 C 152.15625 154.769531 152.394531 154.640625 152.644531 154.535156 C 152.894531 154.433594 153.152344 154.355469 153.417969 154.300781 C 153.683594 154.25 153.953125 154.222656 154.222656 154.222656 C 154.492188 154.222656 154.761719 154.25 155.027344 154.300781 C 155.292969 154.355469 155.550781 154.433594 155.800781 154.535156 C 156.050781 154.640625 156.289062 154.769531 156.515625 154.917969 C 156.738281 155.070312 156.949219 155.238281 157.140625 155.429688 C 157.332031 155.621094 157.503906 155.832031 157.652344 156.054688 C 157.804688 156.28125 157.929688 156.519531 158.035156 156.769531 C 158.136719 157.019531 158.214844 157.277344 158.269531 157.542969 C 158.320312 157.808594 158.347656 158.078125 158.347656 158.347656 L 158.347656 170.722656 C 158.347656 171.535156 158.269531 172.339844 158.109375 173.136719 C 157.953125 173.933594 157.71875 174.707031 157.40625 175.457031 C 157.09375 176.210938 156.714844 176.921875 156.261719 177.597656 C 155.8125 178.273438 155.296875 178.898438 154.722656 179.472656 C 154.148438 180.046875 153.523438 180.5625 152.847656 181.011719 C 152.171875 181.464844 151.460938 181.84375 150.707031 182.15625 C 149.957031 182.46875 149.183594 182.703125 148.386719 182.859375 C 147.589844 183.019531 146.785156 183.097656 145.972656 183.097656 Z M 145.972656 183.097656 "/><path style=" stroke:none;fill-rule:nonzero;fill:#38004d;fill-opacity:1;" d="M 137.722656 129.472656 C 137.453125 129.472656 137.183594 129.445312 136.917969 129.394531 C 136.652344 129.339844 136.394531 129.261719 136.144531 129.160156 C 135.894531 129.054688 135.65625 128.929688 135.429688 128.777344 C 135.207031 128.628906 134.996094 128.457031 134.804688 128.265625 C 134.613281 128.074219 134.445312 127.863281 134.292969 127.640625 C 134.144531 127.414062 134.015625 127.175781 133.910156 126.925781 C 133.808594 126.675781 133.730469 126.417969 133.675781 126.152344 C 133.625 125.886719 133.597656 125.617188 133.597656 125.347656 L 133.597656 104.722656 C 133.597656 104.453125 133.625 104.183594 133.675781 103.917969 C 133.730469 103.652344 133.808594 103.394531 133.910156 103.144531 C 134.015625 102.894531 134.144531 102.65625 134.292969 102.429688 C 134.445312 102.207031 134.613281 101.996094 134.804688 101.804688 C 134.996094 101.613281 135.207031 101.445312 135.429688 101.292969 C 135.65625 101.144531 135.894531 101.015625 136.144531 100.910156 C 136.394531 100.808594 136.652344 100.730469 136.917969 100.675781 C 137.183594 100.625 137.453125 100.597656 137.722656 100.597656 C 137.992188 100.597656 138.261719 100.625 138.527344 100.675781 C 138.792969 100.730469 139.050781 100.808594 139.300781 100.910156 C 139.550781 101.015625 139.789062 101.144531 140.015625 101.292969 C 140.238281 101.445312 140.449219 101.613281 140.640625 101.804688 C 140.832031 101.996094 141.003906 102.207031 141.152344 102.429688 C 141.304688 102.65625 141.429688 102.894531 141.535156 103.144531 C 141.636719 103.394531 141.714844 103.652344 141.769531 103.917969 C 141.820312 104.183594 141.847656 104.453125 141.847656 104.722656 L 141.847656 125.347656 C 141.847656 125.617188 141.820312 125.886719 141.769531 126.152344 C 141.714844 126.417969 141.636719 126.675781 141.535156 126.925781 C 141.429688 127.175781 141.304688 127.414062 141.152344 127.640625 C 141.003906 127.863281 140.832031 128.074219 140.640625 128.265625 C 140.449219 128.457031 140.238281 128.628906 140.015625 128.777344 C 139.789062 128.929688 139.550781 129.054688 139.300781 129.160156 C 139.050781 129.261719 138.792969 129.339844 138.527344 129.394531 C 138.261719 129.445312 137.992188 129.472656 137.722656 129.472656 Z M 137.722656 129.472656 "/><path style=" stroke:none;fill-rule:nonzero;fill:#9f85ec;fill-opacity:1;" d="M 183.097656 183.097656 C 182.46875 183.09375 181.875 182.957031 181.308594 182.679688 C 180.746094 182.40625 180.269531 182.023438 179.878906 181.53125 L 163.378906 160.90625 C 163.09375 160.476562 162.894531 160.007812 162.785156 159.503906 C 162.675781 159 162.660156 158.492188 162.742188 157.980469 C 162.820312 157.46875 162.992188 156.992188 163.253906 156.542969 C 163.511719 156.097656 163.84375 155.714844 164.25 155.394531 C 164.652344 155.070312 165.101562 154.835938 165.597656 154.679688 C 166.089844 154.527344 166.59375 154.472656 167.109375 154.507812 C 167.625 154.542969 168.117188 154.671875 168.582031 154.894531 C 169.050781 155.117188 169.460938 155.414062 169.816406 155.789062 L 186.316406 176.414062 C 186.804688 177.035156 187.09375 177.734375 187.179688 178.519531 C 187.265625 179.304688 187.136719 180.050781 186.796875 180.761719 C 186.453125 181.472656 185.949219 182.039062 185.28125 182.460938 C 184.613281 182.882812 183.886719 183.09375 183.097656 183.097656 Z M 183.097656 183.097656 "/><path style=" stroke:none;fill-rule:nonzero;fill:#9f85ec;fill-opacity:1;" d="M 166.597656 183.097656 C 165.808594 183.09375 165.082031 182.882812 164.414062 182.460938 C 163.746094 182.039062 163.242188 181.472656 162.902344 180.761719 C 162.558594 180.050781 162.429688 179.304688 162.515625 178.519531 C 162.605469 177.734375 162.890625 177.035156 163.378906 176.414062 L 179.878906 155.789062 C 180.039062 155.550781 180.21875 155.332031 180.421875 155.132812 C 180.625 154.933594 180.847656 154.753906 181.089844 154.601562 C 181.328125 154.449219 181.582031 154.320312 181.851562 154.21875 C 182.117188 154.117188 182.390625 154.042969 182.675781 154 C 182.957031 153.953125 183.238281 153.941406 183.523438 153.953125 C 183.808594 153.96875 184.089844 154.011719 184.367188 154.085938 C 184.644531 154.15625 184.910156 154.257812 185.164062 154.386719 C 185.417969 154.515625 185.660156 154.667969 185.882812 154.84375 C 186.105469 155.023438 186.308594 155.222656 186.492188 155.441406 C 186.671875 155.660156 186.832031 155.898438 186.964844 156.148438 C 187.097656 156.402344 187.203125 156.667969 187.28125 156.941406 C 187.359375 157.214844 187.410156 157.496094 187.429688 157.78125 C 187.449219 158.066406 187.441406 158.347656 187.402344 158.632812 C 187.363281 158.914062 187.296875 159.191406 187.199219 159.460938 C 187.105469 159.730469 186.984375 159.984375 186.832031 160.230469 C 186.683594 160.472656 186.511719 160.699219 186.316406 160.90625 L 169.816406 181.53125 C 169.425781 182.023438 168.949219 182.40625 168.386719 182.679688 C 167.820312 182.957031 167.226562 183.09375 166.597656 183.097656 Z M 166.597656 183.097656 "/><path style=" stroke:none;fill-rule:nonzero;fill:#38004d;fill-opacity:1;" d="M 145.972656 199.597656 L 137.722656 199.597656 C 137.453125 199.597656 137.183594 199.570312 136.917969 199.519531 C 136.652344 199.464844 136.394531 199.386719 136.144531 199.285156 C 135.894531 199.179688 135.65625 199.054688 135.429688 198.902344 C 135.207031 198.753906 134.996094 198.582031 134.804688 198.390625 C 134.613281 198.199219 134.445312 197.988281 134.292969 197.765625 C 134.144531 197.539062 134.015625 197.300781 133.910156 197.050781 C 133.808594 196.800781 133.730469 196.542969 133.675781 196.277344 C 133.625 196.011719 133.597656 195.742188 133.597656 195.472656 C 133.597656 195.203125 133.625 194.933594 133.675781 194.667969 C 133.730469 194.402344 133.808594 194.144531 133.910156 193.894531 C 134.015625 193.644531 134.144531 193.40625 134.292969 193.179688 C 134.445312 192.957031 134.613281 192.746094 134.804688 192.554688 C 134.996094 192.363281 135.207031 192.195312 135.429688 192.042969 C 135.65625 191.894531 135.894531 191.765625 136.144531 191.660156 C 136.394531 191.558594 136.652344 191.480469 136.917969 191.425781 C 137.183594 191.375 137.453125 191.347656 137.722656 191.347656 L 145.972656 191.347656 C 146.242188 191.347656 146.511719 191.375 146.777344 191.425781 C 147.042969 191.480469 147.300781 191.558594 147.550781 191.660156 C 147.800781 191.765625 148.039062 191.894531 148.265625 192.042969 C 148.488281 192.195312 148.699219 192.363281 148.890625 192.554688 C 149.082031 192.746094 149.253906 192.957031 149.402344 193.179688 C 149.554688 193.40625 149.679688 193.644531 149.785156 193.894531 C 149.886719 194.144531 149.964844 194.402344 150.019531 194.667969 C 150.070312 194.933594 150.097656 195.203125 150.097656 195.472656 C 150.097656 195.742188 150.070312 196.011719 150.019531 196.277344 C 149.964844 196.542969 149.886719 196.800781 149.785156 197.050781 C 149.679688 197.300781 149.554688 197.539062 149.402344 197.765625 C 149.253906 197.988281 149.082031 198.199219 148.890625 198.390625 C 148.699219 198.582031 148.488281 198.753906 148.265625 198.902344 C 148.039062 199.054688 147.800781 199.179688 147.550781 199.285156 C 147.300781 199.386719 147.042969 199.464844 146.777344 199.519531 C 146.511719 199.570312 146.242188 199.597656 145.972656 199.597656 Z M 145.972656 199.597656 "/><path style=" stroke:none;fill-rule:nonzero;fill:#38004d;fill-opacity:1;" d="M 195.472656 199.597656 L 162.472656 199.597656 C 162.203125 199.597656 161.933594 199.570312 161.667969 199.519531 C 161.402344 199.464844 161.144531 199.386719 160.894531 199.285156 C 160.644531 199.179688 160.40625 199.054688 160.179688 198.902344 C 159.957031 198.753906 159.746094 198.582031 159.554688 198.390625 C 159.363281 198.199219 159.195312 197.988281 159.042969 197.765625 C 158.894531 197.539062 158.765625 197.300781 158.660156 197.050781 C 158.558594 196.800781 158.480469 196.542969 158.425781 196.277344 C 158.375 196.011719 158.347656 195.742188 158.347656 195.472656 C 158.347656 195.203125 158.375 194.933594 158.425781 194.667969 C 158.480469 194.402344 158.558594 194.144531 158.660156 193.894531 C 158.765625 193.644531 158.894531 193.40625 159.042969 193.179688 C 159.195312 192.957031 159.363281 192.746094 159.554688 192.554688 C 159.746094 192.363281 159.957031 192.195312 160.179688 192.042969 C 160.40625 191.894531 160.644531 191.765625 160.894531 191.660156 C 161.144531 191.558594 161.402344 191.480469 161.667969 191.425781 C 161.933594 191.375 162.203125 191.347656 162.472656 191.347656 L 195.472656 191.347656 C 195.742188 191.347656 196.011719 191.375 196.277344 191.425781 C 196.542969 191.480469 196.800781 191.558594 197.050781 191.660156 C 197.300781 191.765625 197.539062 191.894531 197.765625 192.042969 C 197.988281 192.195312 198.199219 192.363281 198.390625 192.554688 C 198.582031 192.746094 198.753906 192.957031 198.902344 193.179688 C 199.054688 193.40625 199.179688 193.644531 199.285156 193.894531 C 199.386719 194.144531 199.464844 194.402344 199.519531 194.667969 C 199.570312 194.933594 199.597656 195.203125 199.597656 195.472656 C 199.597656 195.742188 199.570312 196.011719 199.519531 196.277344 C 199.464844 196.542969 199.386719 196.800781 199.285156 197.050781 C 199.179688 197.300781 199.054688 197.539062 198.902344 197.765625 C 198.753906 197.988281 198.582031 198.199219 198.390625 198.390625 C 198.199219 198.582031 197.988281 198.753906 197.765625 198.902344 C 197.539062 199.054688 197.300781 199.179688 197.050781 199.285156 C 196.800781 199.386719 196.542969 199.464844 196.277344 199.519531 C 196.011719 199.570312 195.742188 199.597656 195.472656 199.597656 Z M 195.472656 199.597656 "/></g></svg>