<svg xmlns="http://www.w3.org/2000/svg" xmlns:xlink="http://www.w3.org/1999/xlink" width="400" zoomAndPan="magnify" viewBox="0 0 300 299.999988" height="400" preserveAspectRatio="xMidYMid meet" version="1.2"><defs><clipPath id="8b16f6acbc"><path d="M 110 135 L 229.558594 135 L 229.558594 229.558594 L 110 229.558594 Z M 110 135 "/></clipPath><clipPath id="9de757d311"><path d="M 70.558594 70.558594 L 160 70.558594 L 160 190 L 70.558594 190 Z M 70.558594 70.558594 "/></clipPath></defs><g id="46f4f36271"><g clip-rule="nonzero" clip-path="url(#8b16f6acbc)"><path style=" stroke:none;fill-rule:nonzero;fill:#000000;fill-opacity:1;" d="M 224.476562 229.441406 L 115.246094 229.441406 C 114.917969 229.441406 114.59375 229.410156 114.277344 229.347656 C 113.957031 229.28125 113.644531 229.1875 113.34375 229.0625 C 113.042969 228.9375 112.757812 228.785156 112.484375 228.605469 C 112.214844 228.421875 111.964844 228.21875 111.734375 227.988281 C 111.503906 227.757812 111.296875 227.503906 111.117188 227.234375 C 110.933594 226.964844 110.78125 226.675781 110.65625 226.375 C 110.53125 226.074219 110.4375 225.765625 110.375 225.445312 C 110.3125 225.125 110.277344 224.800781 110.277344 224.476562 L 110.277344 140.070312 C 110.277344 139.742188 110.3125 139.421875 110.375 139.101562 C 110.4375 138.78125 110.53125 138.472656 110.65625 138.167969 C 110.78125 137.867188 110.933594 137.582031 111.117188 137.3125 C 111.296875 137.039062 111.503906 136.789062 111.734375 136.558594 C 111.964844 136.328125 112.214844 136.121094 112.484375 135.941406 C 112.757812 135.761719 113.042969 135.605469 113.34375 135.484375 C 113.644531 135.359375 113.957031 135.261719 114.277344 135.199219 C 114.59375 135.136719 114.917969 135.105469 115.246094 135.105469 L 224.476562 135.105469 C 224.800781 135.105469 225.125 135.136719 225.445312 135.199219 C 225.765625 135.261719 226.074219 135.359375 226.375 135.484375 C 226.675781 135.605469 226.964844 135.761719 227.234375 135.941406 C 227.503906 136.121094 227.757812 136.328125 227.988281 136.558594 C 228.21875 136.789062 228.421875 137.039062 228.605469 137.3125 C 228.785156 137.582031 228.9375 137.867188 229.0625 138.167969 C 229.1875 138.472656 229.28125 138.78125 229.347656 139.101562 C 229.410156 139.421875 229.441406 139.742188 229.441406 140.070312 L 229.441406 224.476562 C 229.441406 224.800781 229.410156 225.125 229.347656 225.445312 C 229.28125 225.765625 229.1875 226.074219 229.0625 226.375 C 228.9375 226.675781 228.785156 226.964844 228.605469 227.234375 C 228.421875 227.503906 228.21875 227.757812 227.988281 227.988281 C 227.757812 228.21875 227.503906 228.421875 227.234375 228.605469 C 226.964844 228.785156 226.675781 228.9375 226.375 229.0625 C 226.074219 229.1875 225.765625 229.28125 225.445312 229.347656 C 225.125 229.410156 224.800781 229.441406 224.476562 229.441406 Z M 120.210938 219.511719 L 219.511719 219.511719 L 219.511719 145.035156 L 120.210938 145.035156 Z M 120.210938 219.511719 "/></g><g clip-rule="nonzero" clip-path="url(#9de757d311)"><path style=" stroke:none;fill-rule:nonzero;fill:#000000;fill-opacity:1;" d="M 115.246094 189.71875 L 90.417969 189.71875 C 89.769531 189.71875 89.121094 189.6875 88.472656 189.625 C 87.824219 189.5625 87.183594 189.464844 86.542969 189.339844 C 85.90625 189.210938 85.277344 189.054688 84.652344 188.867188 C 84.03125 188.675781 83.417969 188.457031 82.820312 188.207031 C 82.21875 187.960938 81.628906 187.683594 81.054688 187.375 C 80.484375 187.070312 79.925781 186.734375 79.386719 186.375 C 78.84375 186.011719 78.320312 185.625 77.820312 185.210938 C 77.316406 184.800781 76.835938 184.363281 76.375 183.902344 C 75.914062 183.445312 75.480469 182.960938 75.066406 182.460938 C 74.652344 181.957031 74.265625 181.433594 73.90625 180.894531 C 73.542969 180.351562 73.210938 179.796875 72.902344 179.222656 C 72.597656 178.648438 72.320312 178.0625 72.070312 177.460938 C 71.820312 176.859375 71.601562 176.246094 71.414062 175.625 C 71.226562 175.003906 71.066406 174.371094 70.941406 173.734375 C 70.8125 173.097656 70.71875 172.453125 70.652344 171.808594 C 70.589844 171.160156 70.558594 170.511719 70.558594 169.859375 L 70.558594 90.417969 C 70.558594 89.769531 70.589844 89.121094 70.652344 88.472656 C 70.71875 87.824219 70.8125 87.183594 70.941406 86.542969 C 71.066406 85.90625 71.226562 85.277344 71.414062 84.652344 C 71.601562 84.03125 71.820312 83.417969 72.070312 82.820312 C 72.320312 82.21875 72.597656 81.628906 72.902344 81.054688 C 73.210938 80.484375 73.542969 79.925781 73.90625 79.386719 C 74.265625 78.84375 74.652344 78.320312 75.066406 77.820312 C 75.480469 77.316406 75.914062 76.835938 76.375 76.375 C 76.835938 75.914062 77.316406 75.480469 77.820312 75.066406 C 78.320312 74.652344 78.84375 74.265625 79.386719 73.90625 C 79.925781 73.542969 80.484375 73.210938 81.054688 72.902344 C 81.628906 72.597656 82.21875 72.320312 82.820312 72.070312 C 83.417969 71.820312 84.03125 71.601562 84.652344 71.414062 C 85.277344 71.226562 85.90625 71.066406 86.542969 70.941406 C 87.183594 70.8125 87.824219 70.71875 88.472656 70.652344 C 89.121094 70.589844 89.769531 70.558594 90.417969 70.558594 L 140.070312 70.558594 C 140.71875 70.558594 141.367188 70.589844 142.015625 70.652344 C 142.664062 70.71875 143.304688 70.8125 143.945312 70.941406 C 144.582031 71.066406 145.210938 71.226562 145.835938 71.414062 C 146.457031 71.601562 147.070312 71.820312 147.667969 72.070312 C 148.269531 72.320312 148.859375 72.597656 149.433594 72.902344 C 150.003906 73.210938 150.5625 73.542969 151.101562 73.90625 C 151.644531 74.265625 152.167969 74.652344 152.667969 75.066406 C 153.171875 75.480469 153.652344 75.914062 154.113281 76.375 C 154.574219 76.835938 155.007812 77.316406 155.421875 77.820312 C 155.835938 78.320312 156.222656 78.84375 156.582031 79.386719 C 156.945312 79.925781 157.277344 80.484375 157.585938 81.054688 C 157.890625 81.628906 158.167969 82.21875 158.417969 82.820312 C 158.667969 83.417969 158.886719 84.03125 159.074219 84.652344 C 159.261719 85.277344 159.421875 85.90625 159.546875 86.542969 C 159.675781 87.183594 159.769531 87.824219 159.835938 88.472656 C 159.898438 89.121094 159.929688 89.769531 159.929688 90.417969 L 159.929688 120.210938 C 159.929688 120.535156 159.898438 120.859375 159.835938 121.179688 C 159.769531 121.496094 159.675781 121.808594 159.550781 122.109375 C 159.425781 122.410156 159.273438 122.695312 159.09375 122.96875 C 158.910156 123.238281 158.707031 123.488281 158.476562 123.71875 C 158.246094 123.949219 157.996094 124.15625 157.722656 124.335938 C 157.453125 124.519531 157.167969 124.671875 156.863281 124.796875 C 156.5625 124.921875 156.253906 125.015625 155.933594 125.078125 C 155.613281 125.140625 155.289062 125.175781 154.964844 125.175781 C 154.640625 125.175781 154.316406 125.140625 153.996094 125.078125 C 153.675781 125.015625 153.367188 124.921875 153.066406 124.796875 C 152.761719 124.671875 152.476562 124.519531 152.207031 124.335938 C 151.933594 124.15625 151.683594 123.949219 151.453125 123.71875 C 151.222656 123.488281 151.019531 123.238281 150.835938 122.96875 C 150.65625 122.695312 150.503906 122.410156 150.378906 122.109375 C 150.253906 121.808594 150.160156 121.496094 150.09375 121.179688 C 150.03125 120.859375 150 120.535156 150 120.210938 L 150 90.417969 C 150 89.765625 149.9375 89.121094 149.808594 88.480469 C 149.683594 87.84375 149.492188 87.222656 149.242188 86.617188 C 148.996094 86.015625 148.6875 85.445312 148.328125 84.902344 C 147.964844 84.359375 147.550781 83.859375 147.089844 83.398438 C 146.628906 82.9375 146.128906 82.523438 145.585938 82.160156 C 145.042969 81.800781 144.472656 81.492188 143.871094 81.246094 C 143.265625 80.996094 142.644531 80.804688 142.007812 80.679688 C 141.367188 80.550781 140.722656 80.488281 140.070312 80.488281 L 90.417969 80.488281 C 89.765625 80.488281 89.121094 80.550781 88.480469 80.679688 C 87.84375 80.804688 87.222656 80.996094 86.617188 81.246094 C 86.015625 81.492188 85.445312 81.800781 84.902344 82.160156 C 84.359375 82.523438 83.859375 82.9375 83.398438 83.398438 C 82.9375 83.859375 82.523438 84.359375 82.160156 84.902344 C 81.800781 85.445312 81.492188 86.015625 81.246094 86.617188 C 80.996094 87.222656 80.804688 87.84375 80.679688 88.480469 C 80.550781 89.121094 80.488281 89.765625 80.488281 90.417969 L 80.488281 169.859375 C 80.488281 170.511719 80.550781 171.15625 80.679688 171.796875 C 80.804688 172.4375 80.996094 173.058594 81.246094 173.660156 C 81.492188 174.261719 81.800781 174.835938 82.160156 175.378906 C 82.523438 175.917969 82.9375 176.421875 83.398438 176.882812 C 83.859375 177.34375 84.359375 177.753906 84.902344 178.117188 C 85.445312 178.480469 86.015625 178.785156 86.617188 179.035156 C 87.222656 179.285156 87.84375 179.472656 88.480469 179.597656 C 89.121094 179.726562 89.765625 179.789062 90.417969 179.789062 L 115.246094 179.789062 C 115.570312 179.789062 115.894531 179.820312 116.210938 179.886719 C 116.53125 179.949219 116.84375 180.042969 117.144531 180.167969 C 117.445312 180.292969 117.730469 180.445312 118.003906 180.628906 C 118.273438 180.808594 118.523438 181.015625 118.753906 181.246094 C 118.984375 181.476562 119.191406 181.726562 119.371094 181.996094 C 119.554688 182.269531 119.707031 182.554688 119.832031 182.855469 C 119.957031 183.15625 120.050781 183.46875 120.113281 183.785156 C 120.175781 184.105469 120.210938 184.429688 120.210938 184.753906 C 120.210938 185.082031 120.175781 185.402344 120.113281 185.722656 C 120.050781 186.042969 119.957031 186.355469 119.832031 186.65625 C 119.707031 186.957031 119.554688 187.242188 119.371094 187.515625 C 119.191406 187.785156 118.984375 188.035156 118.753906 188.265625 C 118.523438 188.496094 118.273438 188.703125 118.003906 188.882812 C 117.730469 189.066406 117.445312 189.21875 117.144531 189.34375 C 116.84375 189.46875 116.53125 189.5625 116.210938 189.625 C 115.894531 189.6875 115.570312 189.71875 115.246094 189.71875 Z M 115.246094 189.71875 "/></g><path style=" stroke:none;fill-rule:nonzero;fill:#000000;fill-opacity:1;" d="M 105.3125 125.175781 C 104.335938 125.175781 103.367188 125.078125 102.40625 124.886719 C 101.449219 124.699219 100.515625 124.414062 99.613281 124.039062 C 98.710938 123.667969 97.851562 123.207031 97.039062 122.664062 C 96.226562 122.121094 95.472656 121.503906 94.78125 120.8125 C 94.089844 120.121094 93.472656 119.367188 92.929688 118.554688 C 92.386719 117.742188 91.925781 116.882812 91.550781 115.980469 C 91.179688 115.074219 90.894531 114.144531 90.703125 113.183594 C 90.515625 112.226562 90.417969 111.257812 90.417969 110.277344 L 90.417969 95.382812 C 90.417969 95.058594 90.449219 94.734375 90.515625 94.414062 C 90.578125 94.09375 90.671875 93.785156 90.796875 93.484375 C 90.921875 93.183594 91.074219 92.894531 91.253906 92.625 C 91.4375 92.355469 91.640625 92.101562 91.871094 91.871094 C 92.101562 91.640625 92.355469 91.4375 92.625 91.253906 C 92.894531 91.074219 93.183594 90.921875 93.484375 90.796875 C 93.785156 90.671875 94.09375 90.578125 94.414062 90.515625 C 94.734375 90.449219 95.058594 90.417969 95.382812 90.417969 C 95.710938 90.417969 96.03125 90.449219 96.351562 90.515625 C 96.671875 90.578125 96.984375 90.671875 97.285156 90.796875 C 97.585938 90.921875 97.871094 91.074219 98.140625 91.253906 C 98.414062 91.4375 98.664062 91.640625 98.894531 91.871094 C 99.125 92.101562 99.332031 92.355469 99.511719 92.625 C 99.691406 92.894531 99.847656 93.183594 99.972656 93.484375 C 100.097656 93.785156 100.191406 94.09375 100.253906 94.414062 C 100.316406 94.734375 100.347656 95.058594 100.347656 95.382812 L 100.347656 110.277344 C 100.347656 110.605469 100.378906 110.929688 100.445312 111.246094 C 100.507812 111.566406 100.601562 111.878906 100.726562 112.179688 C 100.851562 112.480469 101.003906 112.765625 101.1875 113.039062 C 101.367188 113.308594 101.574219 113.558594 101.804688 113.789062 C 102.035156 114.019531 102.285156 114.226562 102.554688 114.40625 C 102.828125 114.589844 103.113281 114.742188 103.414062 114.867188 C 103.714844 114.992188 104.027344 115.085938 104.34375 115.148438 C 104.664062 115.210938 104.988281 115.246094 105.3125 115.246094 C 105.640625 115.246094 105.960938 115.210938 106.28125 115.148438 C 106.601562 115.085938 106.914062 114.992188 107.214844 114.867188 C 107.515625 114.742188 107.800781 114.589844 108.074219 114.40625 C 108.34375 114.226562 108.59375 114.019531 108.824219 113.789062 C 109.054688 113.558594 109.261719 113.308594 109.441406 113.039062 C 109.625 112.765625 109.777344 112.480469 109.902344 112.179688 C 110.027344 111.878906 110.121094 111.566406 110.183594 111.246094 C 110.246094 110.929688 110.277344 110.605469 110.277344 110.277344 L 110.277344 95.382812 C 110.277344 95.058594 110.3125 94.734375 110.375 94.414062 C 110.4375 94.09375 110.53125 93.785156 110.65625 93.484375 C 110.78125 93.183594 110.933594 92.894531 111.117188 92.625 C 111.296875 92.355469 111.503906 92.101562 111.734375 91.871094 C 111.964844 91.640625 112.214844 91.4375 112.484375 91.253906 C 112.757812 91.074219 113.042969 90.921875 113.34375 90.796875 C 113.644531 90.671875 113.957031 90.578125 114.277344 90.515625 C 114.59375 90.449219 114.917969 90.417969 115.246094 90.417969 C 115.570312 90.417969 115.894531 90.449219 116.210938 90.515625 C 116.53125 90.578125 116.84375 90.671875 117.144531 90.796875 C 117.445312 90.921875 117.730469 91.074219 118.003906 91.253906 C 118.273438 91.4375 118.523438 91.640625 118.753906 91.871094 C 118.984375 92.101562 119.191406 92.355469 119.371094 92.625 C 119.554688 92.894531 119.707031 93.183594 119.832031 93.484375 C 119.957031 93.785156 120.050781 94.09375 120.113281 94.414062 C 120.175781 94.734375 120.210938 95.058594 120.210938 95.382812 L 120.210938 110.277344 C 120.210938 111.257812 120.113281 112.226562 119.921875 113.183594 C 119.730469 114.144531 119.449219 115.074219 119.074219 115.980469 C 118.699219 116.882812 118.242188 117.742188 117.699219 118.554688 C 117.15625 119.367188 116.539062 120.121094 115.847656 120.8125 C 115.15625 121.503906 114.402344 122.121094 113.589844 122.664062 C 112.777344 123.207031 111.917969 123.667969 111.015625 124.039062 C 110.109375 124.414062 109.179688 124.699219 108.21875 124.886719 C 107.261719 125.078125 106.292969 125.175781 105.3125 125.175781 Z M 105.3125 125.175781 "/><path style=" stroke:none;fill-rule:nonzero;fill:#000000;fill-opacity:1;" d="M 145.035156 189.71875 C 144.058594 189.71875 143.089844 189.625 142.128906 189.433594 C 141.167969 189.242188 140.238281 188.960938 139.335938 188.585938 C 138.429688 188.210938 137.574219 187.753906 136.757812 187.210938 C 135.945312 186.667969 135.195312 186.050781 134.503906 185.359375 C 133.8125 184.667969 133.191406 183.914062 132.648438 183.101562 C 132.105469 182.289062 131.648438 181.429688 131.273438 180.523438 C 130.898438 179.621094 130.617188 178.691406 130.425781 177.730469 C 130.234375 176.773438 130.140625 175.804688 130.140625 174.824219 L 130.140625 159.929688 C 130.140625 159.605469 130.171875 159.28125 130.234375 158.960938 C 130.296875 158.640625 130.394531 158.332031 130.515625 158.03125 C 130.640625 157.730469 130.796875 157.441406 130.976562 157.171875 C 131.15625 156.902344 131.363281 156.648438 131.59375 156.417969 C 131.824219 156.1875 132.074219 155.984375 132.347656 155.800781 C 132.617188 155.621094 132.902344 155.46875 133.203125 155.34375 C 133.503906 155.21875 133.816406 155.125 134.136719 155.058594 C 134.457031 154.996094 134.777344 154.964844 135.105469 154.964844 C 135.429688 154.964844 135.753906 154.996094 136.074219 155.058594 C 136.394531 155.125 136.703125 155.21875 137.003906 155.34375 C 137.304688 155.46875 137.59375 155.621094 137.863281 155.800781 C 138.132812 155.984375 138.386719 156.1875 138.617188 156.417969 C 138.847656 156.648438 139.050781 156.902344 139.234375 157.171875 C 139.414062 157.441406 139.566406 157.730469 139.691406 158.03125 C 139.816406 158.332031 139.910156 158.640625 139.972656 158.960938 C 140.039062 159.28125 140.070312 159.605469 140.070312 159.929688 L 140.070312 174.824219 C 140.070312 175.152344 140.101562 175.472656 140.164062 175.792969 C 140.230469 176.113281 140.324219 176.425781 140.449219 176.726562 C 140.574219 177.027344 140.726562 177.3125 140.90625 177.582031 C 141.085938 177.855469 141.292969 178.105469 141.523438 178.335938 C 141.753906 178.566406 142.003906 178.773438 142.277344 178.953125 C 142.546875 179.132812 142.832031 179.289062 143.132812 179.414062 C 143.4375 179.535156 143.746094 179.632812 144.066406 179.695312 C 144.386719 179.757812 144.707031 179.789062 145.035156 179.789062 C 145.359375 179.789062 145.683594 179.757812 146.003906 179.695312 C 146.324219 179.632812 146.632812 179.535156 146.933594 179.414062 C 147.234375 179.289062 147.523438 179.132812 147.792969 178.953125 C 148.0625 178.773438 148.316406 178.566406 148.546875 178.335938 C 148.777344 178.105469 148.980469 177.855469 149.164062 177.582031 C 149.34375 177.3125 149.496094 177.027344 149.621094 176.726562 C 149.746094 176.425781 149.839844 176.113281 149.90625 175.792969 C 149.96875 175.472656 150 175.152344 150 174.824219 L 150 159.929688 C 150 159.605469 150.03125 159.28125 150.09375 158.960938 C 150.160156 158.640625 150.253906 158.332031 150.378906 158.03125 C 150.503906 157.730469 150.65625 157.441406 150.835938 157.171875 C 151.019531 156.902344 151.222656 156.648438 151.453125 156.417969 C 151.683594 156.1875 151.933594 155.984375 152.207031 155.800781 C 152.476562 155.621094 152.761719 155.46875 153.066406 155.34375 C 153.367188 155.21875 153.675781 155.125 153.996094 155.058594 C 154.316406 154.996094 154.640625 154.964844 154.964844 154.964844 C 155.289062 154.964844 155.613281 154.996094 155.933594 155.058594 C 156.253906 155.125 156.5625 155.21875 156.863281 155.34375 C 157.167969 155.46875 157.453125 155.621094 157.722656 155.800781 C 157.996094 155.984375 158.246094 156.1875 158.476562 156.417969 C 158.707031 156.648438 158.910156 156.902344 159.09375 157.171875 C 159.273438 157.441406 159.425781 157.730469 159.550781 158.03125 C 159.675781 158.332031 159.769531 158.640625 159.835938 158.960938 C 159.898438 159.28125 159.929688 159.605469 159.929688 159.929688 L 159.929688 174.824219 C 159.929688 175.804688 159.835938 176.773438 159.644531 177.730469 C 159.453125 178.691406 159.171875 179.621094 158.796875 180.523438 C 158.421875 181.429688 157.964844 182.289062 157.417969 183.101562 C 156.875 183.914062 156.257812 184.667969 155.566406 185.359375 C 154.875 186.050781 154.125 186.667969 153.308594 187.210938 C 152.496094 187.753906 151.636719 188.210938 150.734375 188.585938 C 149.832031 188.960938 148.898438 189.242188 147.941406 189.433594 C 146.980469 189.625 146.011719 189.71875 145.035156 189.71875 Z M 145.035156 189.71875 "/><path style=" stroke:none;fill-rule:nonzero;fill:#000000;fill-opacity:1;" d="M 135.105469 125.175781 C 134.777344 125.175781 134.457031 125.140625 134.136719 125.078125 C 133.816406 125.015625 133.503906 124.921875 133.203125 124.796875 C 132.902344 124.671875 132.617188 124.519531 132.347656 124.335938 C 132.074219 124.15625 131.824219 123.949219 131.59375 123.71875 C 131.363281 123.488281 131.15625 123.238281 130.976562 122.96875 C 130.796875 122.695312 130.640625 122.410156 130.515625 122.109375 C 130.394531 121.808594 130.296875 121.496094 130.234375 121.179688 C 130.171875 120.859375 130.140625 120.535156 130.140625 120.210938 L 130.140625 95.382812 C 130.140625 95.058594 130.171875 94.734375 130.234375 94.414062 C 130.296875 94.09375 130.394531 93.785156 130.515625 93.484375 C 130.640625 93.183594 130.796875 92.894531 130.976562 92.625 C 131.15625 92.355469 131.363281 92.101562 131.59375 91.871094 C 131.824219 91.640625 132.074219 91.4375 132.347656 91.253906 C 132.617188 91.074219 132.902344 90.921875 133.203125 90.796875 C 133.503906 90.671875 133.816406 90.578125 134.136719 90.515625 C 134.457031 90.449219 134.777344 90.417969 135.105469 90.417969 C 135.429688 90.417969 135.753906 90.449219 136.074219 90.515625 C 136.394531 90.578125 136.703125 90.671875 137.003906 90.796875 C 137.304688 90.921875 137.59375 91.074219 137.863281 91.253906 C 138.132812 91.4375 138.386719 91.640625 138.617188 91.871094 C 138.847656 92.101562 139.050781 92.355469 139.234375 92.625 C 139.414062 92.894531 139.566406 93.183594 139.691406 93.484375 C 139.816406 93.785156 139.910156 94.09375 139.972656 94.414062 C 140.039062 94.734375 140.070312 95.058594 140.070312 95.382812 L 140.070312 120.210938 C 140.070312 120.535156 140.039062 120.859375 139.972656 121.179688 C 139.910156 121.496094 139.816406 121.808594 139.691406 122.109375 C 139.566406 122.410156 139.414062 122.695312 139.234375 122.96875 C 139.050781 123.238281 138.847656 123.488281 138.617188 123.71875 C 138.386719 123.949219 138.132812 124.15625 137.863281 124.335938 C 137.59375 124.519531 137.304688 124.671875 137.003906 124.796875 C 136.703125 124.921875 136.394531 125.015625 136.074219 125.078125 C 135.753906 125.140625 135.429688 125.175781 135.105469 125.175781 Z M 135.105469 125.175781 "/><path style=" stroke:none;fill-rule:nonzero;fill:#000000;fill-opacity:1;" d="M 189.71875 189.71875 C 188.964844 189.71875 188.246094 189.550781 187.570312 189.21875 C 186.890625 188.886719 186.316406 188.425781 185.847656 187.832031 L 165.988281 163.007812 C 165.644531 162.492188 165.40625 161.925781 165.273438 161.320312 C 165.140625 160.710938 165.121094 160.101562 165.21875 159.488281 C 165.316406 158.871094 165.519531 158.296875 165.832031 157.757812 C 166.144531 157.222656 166.546875 156.761719 167.03125 156.371094 C 167.519531 155.984375 168.058594 155.699219 168.65625 155.515625 C 169.25 155.332031 169.855469 155.261719 170.476562 155.308594 C 171.097656 155.351562 171.6875 155.507812 172.25 155.773438 C 172.8125 156.039062 173.304688 156.398438 173.734375 156.851562 L 193.59375 181.675781 C 193.882812 182.042969 194.113281 182.441406 194.292969 182.871094 C 194.46875 183.300781 194.582031 183.746094 194.632812 184.210938 C 194.683594 184.671875 194.671875 185.132812 194.589844 185.59375 C 194.511719 186.050781 194.375 186.488281 194.171875 186.910156 C 193.96875 187.328125 193.714844 187.710938 193.402344 188.058594 C 193.09375 188.40625 192.742188 188.703125 192.347656 188.953125 C 191.957031 189.203125 191.535156 189.390625 191.089844 189.523438 C 190.640625 189.652344 190.1875 189.71875 189.71875 189.71875 Z M 189.71875 189.71875 "/><path style=" stroke:none;fill-rule:nonzero;fill:#000000;fill-opacity:1;" d="M 169.859375 189.71875 C 169.394531 189.71875 168.9375 189.652344 168.492188 189.523438 C 168.046875 189.390625 167.625 189.203125 167.230469 188.953125 C 166.839844 188.703125 166.488281 188.40625 166.175781 188.058594 C 165.867188 187.710938 165.609375 187.328125 165.410156 186.910156 C 165.207031 186.488281 165.066406 186.050781 164.988281 185.59375 C 164.910156 185.132812 164.898438 184.671875 164.949219 184.210938 C 165 183.746094 165.113281 183.300781 165.289062 182.871094 C 165.464844 182.441406 165.699219 182.042969 165.988281 181.675781 L 185.847656 156.851562 C 186.039062 156.566406 186.253906 156.300781 186.5 156.058594 C 186.746094 155.820312 187.011719 155.605469 187.300781 155.421875 C 187.59375 155.234375 187.898438 155.082031 188.21875 154.957031 C 188.539062 154.835938 188.871094 154.75 189.210938 154.695312 C 189.550781 154.640625 189.890625 154.625 190.234375 154.640625 C 190.578125 154.660156 190.914062 154.710938 191.246094 154.800781 C 191.582031 154.886719 191.898438 155.007812 192.207031 155.160156 C 192.515625 155.316406 192.804688 155.5 193.070312 155.714844 C 193.339844 155.925781 193.585938 156.167969 193.804688 156.429688 C 194.023438 156.695312 194.214844 156.980469 194.375 157.285156 C 194.535156 157.589844 194.664062 157.90625 194.757812 158.234375 C 194.851562 158.566406 194.910156 158.902344 194.933594 159.246094 C 194.960938 159.589844 194.949219 159.929688 194.902344 160.273438 C 194.855469 160.613281 194.773438 160.945312 194.660156 161.269531 C 194.542969 161.59375 194.394531 161.902344 194.214844 162.195312 C 194.035156 162.488281 193.828125 162.757812 193.59375 163.007812 L 173.734375 187.832031 C 173.265625 188.425781 172.691406 188.886719 172.011719 189.21875 C 171.332031 189.550781 170.617188 189.71875 169.859375 189.71875 Z M 169.859375 189.71875 "/><path style=" stroke:none;fill-rule:nonzero;fill:#000000;fill-opacity:1;" d="M 145.035156 209.582031 L 135.105469 209.582031 C 134.777344 209.582031 134.457031 209.550781 134.136719 209.484375 C 133.816406 209.421875 133.503906 209.328125 133.203125 209.203125 C 132.902344 209.078125 132.617188 208.925781 132.347656 208.742188 C 132.074219 208.5625 131.824219 208.355469 131.59375 208.125 C 131.363281 207.894531 131.15625 207.644531 130.976562 207.375 C 130.796875 207.101562 130.640625 206.816406 130.515625 206.515625 C 130.394531 206.214844 130.296875 205.902344 130.234375 205.585938 C 130.171875 205.265625 130.140625 204.941406 130.140625 204.617188 C 130.140625 204.289062 130.171875 203.96875 130.234375 203.648438 C 130.296875 203.328125 130.394531 203.015625 130.515625 202.714844 C 130.640625 202.414062 130.796875 202.128906 130.976562 201.855469 C 131.15625 201.585938 131.363281 201.335938 131.59375 201.105469 C 131.824219 200.875 132.074219 200.667969 132.347656 200.488281 C 132.617188 200.304688 132.902344 200.152344 133.203125 200.027344 C 133.503906 199.902344 133.816406 199.808594 134.136719 199.746094 C 134.457031 199.683594 134.777344 199.652344 135.105469 199.652344 L 145.035156 199.652344 C 145.359375 199.652344 145.683594 199.683594 146.003906 199.746094 C 146.324219 199.808594 146.632812 199.902344 146.933594 200.027344 C 147.234375 200.152344 147.523438 200.304688 147.792969 200.488281 C 148.0625 200.667969 148.316406 200.875 148.546875 201.105469 C 148.777344 201.335938 148.980469 201.585938 149.164062 201.855469 C 149.34375 202.128906 149.496094 202.414062 149.621094 202.714844 C 149.746094 203.015625 149.839844 203.328125 149.90625 203.648438 C 149.96875 203.96875 150 204.289062 150 204.617188 C 150 204.941406 149.96875 205.265625 149.90625 205.585938 C 149.839844 205.902344 149.746094 206.214844 149.621094 206.515625 C 149.496094 206.816406 149.34375 207.101562 149.164062 207.375 C 148.980469 207.644531 148.777344 207.894531 148.546875 208.125 C 148.316406 208.355469 148.0625 208.5625 147.792969 208.742188 C 147.523438 208.925781 147.234375 209.078125 146.933594 209.203125 C 146.632812 209.328125 146.324219 209.421875 146.003906 209.484375 C 145.683594 209.550781 145.359375 209.582031 145.035156 209.582031 Z M 145.035156 209.582031 "/><path style=" stroke:none;fill-rule:nonzero;fill:#000000;fill-opacity:1;" d="M 204.617188 209.582031 L 164.894531 209.582031 C 164.570312 209.582031 164.246094 209.550781 163.925781 209.484375 C 163.605469 209.421875 163.296875 209.328125 162.996094 209.203125 C 162.695312 209.078125 162.40625 208.925781 162.136719 208.742188 C 161.867188 208.5625 161.613281 208.355469 161.382812 208.125 C 161.152344 207.894531 160.949219 207.644531 160.765625 207.375 C 160.585938 207.101562 160.433594 206.816406 160.308594 206.515625 C 160.183594 206.214844 160.089844 205.902344 160.023438 205.585938 C 159.960938 205.265625 159.929688 204.941406 159.929688 204.617188 C 159.929688 204.289062 159.960938 203.96875 160.023438 203.648438 C 160.089844 203.328125 160.183594 203.015625 160.308594 202.714844 C 160.433594 202.414062 160.585938 202.128906 160.765625 201.855469 C 160.949219 201.585938 161.152344 201.335938 161.382812 201.105469 C 161.613281 200.875 161.867188 200.667969 162.136719 200.488281 C 162.40625 200.304688 162.695312 200.152344 162.996094 200.027344 C 163.296875 199.902344 163.605469 199.808594 163.925781 199.746094 C 164.246094 199.683594 164.570312 199.652344 164.894531 199.652344 L 204.617188 199.652344 C 204.941406 199.652344 205.265625 199.683594 205.585938 199.746094 C 205.902344 199.808594 206.214844 199.902344 206.515625 200.027344 C 206.816406 200.152344 207.101562 200.304688 207.375 200.488281 C 207.644531 200.667969 207.894531 200.875 208.125 201.105469 C 208.355469 201.335938 208.5625 201.585938 208.742188 201.855469 C 208.925781 202.128906 209.078125 202.414062 209.203125 202.714844 C 209.328125 203.015625 209.421875 203.328125 209.484375 203.648438 C 209.550781 203.96875 209.582031 204.289062 209.582031 204.617188 C 209.582031 204.941406 209.550781 205.265625 209.484375 205.585938 C 209.421875 205.902344 209.328125 206.214844 209.203125 206.515625 C 209.078125 206.816406 208.925781 207.101562 208.742188 207.375 C 208.5625 207.644531 208.355469 207.894531 208.125 208.125 C 207.894531 208.355469 207.644531 208.5625 207.375 208.742188 C 207.101562 208.925781 206.816406 209.078125 206.515625 209.203125 C 206.214844 209.328125 205.902344 209.421875 205.585938 209.484375 C 205.265625 209.550781 204.941406 209.582031 204.617188 209.582031 Z M 204.617188 209.582031 "/></g></svg>