<svg xmlns="http://www.w3.org/2000/svg" xmlns:xlink="http://www.w3.org/1999/xlink" width="400" zoomAndPan="magnify" viewBox="0 0 300 299.999988" height="400" preserveAspectRatio="xMidYMid meet" version="1.2"><defs><clipPath id="8e0fe16996"><path d="M 84.097656 84.097656 L 159 84.097656 L 159 183 L 84.097656 183 Z M 84.097656 84.097656 "/></clipPath></defs><g id="d47da66426"><path style=" stroke:none;fill-rule:nonzero;fill:#727171;fill-opacity:1;" d="M 211.78125 215.898438 L 121.167969 215.898438 C 120.898438 215.898438 120.628906 215.871094 120.363281 215.820312 C 120.097656 215.765625 119.839844 215.6875 119.589844 215.585938 C 119.339844 215.480469 119.105469 215.355469 118.878906 215.203125 C 118.652344 215.054688 118.445312 214.882812 118.253906 214.691406 C 118.0625 214.5 117.894531 214.292969 117.742188 214.066406 C 117.59375 213.84375 117.464844 213.605469 117.363281 213.355469 C 117.257812 213.105469 117.179688 212.847656 117.128906 212.582031 C 117.074219 212.316406 117.046875 212.050781 117.046875 211.78125 L 117.046875 141.761719 C 117.046875 141.492188 117.074219 141.222656 117.128906 140.957031 C 117.179688 140.691406 117.257812 140.433594 117.363281 140.183594 C 117.464844 139.933594 117.59375 139.699219 117.742188 139.472656 C 117.894531 139.246094 118.0625 139.039062 118.253906 138.847656 C 118.445312 138.65625 118.652344 138.488281 118.878906 138.335938 C 119.105469 138.1875 119.339844 138.058594 119.589844 137.957031 C 119.839844 137.851562 120.097656 137.773438 120.363281 137.722656 C 120.628906 137.667969 120.898438 137.640625 121.167969 137.640625 L 211.78125 137.640625 C 212.050781 137.640625 212.320312 137.667969 212.582031 137.722656 C 212.847656 137.773438 213.105469 137.851562 213.355469 137.957031 C 213.605469 138.058594 213.84375 138.1875 214.066406 138.335938 C 214.292969 138.488281 214.5 138.65625 214.691406 138.847656 C 214.882812 139.039062 215.054688 139.246094 215.203125 139.472656 C 215.355469 139.699219 215.480469 139.933594 215.585938 140.183594 C 215.6875 140.433594 215.765625 140.691406 215.820312 140.957031 C 215.871094 141.222656 215.898438 141.492188 215.898438 141.761719 L 215.898438 211.78125 C 215.898438 212.050781 215.871094 212.316406 215.820312 212.582031 C 215.765625 212.847656 215.6875 213.105469 215.585938 213.355469 C 215.480469 213.605469 215.355469 213.84375 215.203125 214.066406 C 215.054688 214.292969 214.882812 214.5 214.691406 214.691406 C 214.5 214.882812 214.292969 215.054688 214.066406 215.203125 C 213.84375 215.355469 213.605469 215.480469 213.355469 215.585938 C 213.105469 215.6875 212.847656 215.765625 212.582031 215.820312 C 212.316406 215.871094 212.050781 215.898438 211.78125 215.898438 Z M 125.285156 207.660156 L 207.660156 207.660156 L 207.660156 145.878906 L 125.285156 145.878906 Z M 125.285156 207.660156 "/><g clip-rule="nonzero" clip-path="url(#8e0fe16996)"><path style=" stroke:none;fill-rule:nonzero;fill:#727171;fill-opacity:1;" d="M 121.167969 182.949219 L 100.574219 182.949219 C 100.035156 182.949219 99.496094 182.921875 98.957031 182.871094 C 98.421875 182.816406 97.886719 182.738281 97.359375 182.632812 C 96.828125 182.527344 96.308594 182.394531 95.789062 182.238281 C 95.273438 182.082031 94.765625 181.902344 94.269531 181.695312 C 93.769531 181.488281 93.28125 181.257812 92.808594 181.003906 C 92.332031 180.75 91.867188 180.472656 91.421875 180.171875 C 90.972656 179.871094 90.539062 179.550781 90.121094 179.207031 C 89.703125 178.867188 89.304688 178.503906 88.921875 178.125 C 88.542969 177.742188 88.179688 177.34375 87.835938 176.925781 C 87.496094 176.507812 87.175781 176.074219 86.875 175.625 C 86.574219 175.179688 86.296875 174.714844 86.042969 174.238281 C 85.789062 173.765625 85.558594 173.277344 85.351562 172.777344 C 85.144531 172.28125 84.964844 171.773438 84.808594 171.257812 C 84.652344 170.738281 84.519531 170.21875 84.414062 169.6875 C 84.308594 169.160156 84.230469 168.625 84.175781 168.089844 C 84.125 167.550781 84.097656 167.011719 84.097656 166.472656 L 84.097656 100.574219 C 84.097656 100.035156 84.125 99.496094 84.175781 98.957031 C 84.230469 98.421875 84.308594 97.886719 84.414062 97.359375 C 84.519531 96.828125 84.652344 96.308594 84.808594 95.789062 C 84.964844 95.273438 85.144531 94.765625 85.351562 94.269531 C 85.558594 93.769531 85.789062 93.28125 86.042969 92.808594 C 86.296875 92.332031 86.574219 91.867188 86.875 91.421875 C 87.175781 90.972656 87.496094 90.539062 87.835938 90.121094 C 88.179688 89.703125 88.542969 89.304688 88.921875 88.921875 C 89.304688 88.542969 89.703125 88.179688 90.121094 87.835938 C 90.539062 87.496094 90.972656 87.175781 91.421875 86.875 C 91.867188 86.574219 92.332031 86.296875 92.808594 86.042969 C 93.28125 85.789062 93.769531 85.558594 94.269531 85.351562 C 94.765625 85.144531 95.273438 84.964844 95.789062 84.808594 C 96.308594 84.652344 96.828125 84.519531 97.359375 84.414062 C 97.886719 84.308594 98.421875 84.230469 98.957031 84.175781 C 99.496094 84.125 100.035156 84.097656 100.574219 84.097656 L 141.761719 84.097656 C 142.300781 84.097656 142.839844 84.125 143.375 84.175781 C 143.914062 84.230469 144.445312 84.308594 144.976562 84.414062 C 145.503906 84.519531 146.027344 84.652344 146.542969 84.808594 C 147.058594 84.964844 147.566406 85.144531 148.066406 85.351562 C 148.5625 85.558594 149.050781 85.789062 149.527344 86.042969 C 150.003906 86.296875 150.464844 86.574219 150.914062 86.875 C 151.363281 87.175781 151.796875 87.496094 152.210938 87.835938 C 152.628906 88.179688 153.027344 88.542969 153.410156 88.921875 C 153.792969 89.304688 154.152344 89.703125 154.496094 90.121094 C 154.839844 90.539062 155.160156 90.972656 155.460938 91.421875 C 155.757812 91.867188 156.035156 92.332031 156.289062 92.808594 C 156.546875 93.28125 156.777344 93.769531 156.980469 94.269531 C 157.1875 94.765625 157.371094 95.273438 157.527344 95.789062 C 157.683594 96.308594 157.8125 96.828125 157.917969 97.359375 C 158.023438 97.886719 158.105469 98.421875 158.15625 98.957031 C 158.210938 99.496094 158.234375 100.035156 158.234375 100.574219 L 158.234375 125.285156 C 158.234375 125.554688 158.210938 125.824219 158.15625 126.089844 C 158.105469 126.355469 158.027344 126.613281 157.921875 126.863281 C 157.820312 127.113281 157.691406 127.347656 157.542969 127.574219 C 157.390625 127.800781 157.222656 128.007812 157.03125 128.199219 C 156.839844 128.390625 156.628906 128.558594 156.40625 128.710938 C 156.179688 128.859375 155.941406 128.988281 155.695312 129.089844 C 155.445312 129.195312 155.1875 129.273438 154.921875 129.324219 C 154.65625 129.378906 154.386719 129.40625 154.117188 129.40625 C 153.847656 129.40625 153.578125 129.378906 153.3125 129.324219 C 153.046875 129.273438 152.789062 129.195312 152.542969 129.089844 C 152.292969 128.988281 152.054688 128.859375 151.828125 128.710938 C 151.605469 128.558594 151.394531 128.390625 151.203125 128.199219 C 151.011719 128.007812 150.84375 127.800781 150.691406 127.574219 C 150.542969 127.347656 150.414062 127.113281 150.3125 126.863281 C 150.207031 126.613281 150.128906 126.355469 150.078125 126.089844 C 150.023438 125.824219 150 125.554688 150 125.285156 L 150 100.574219 C 150 100.03125 149.945312 99.496094 149.839844 98.964844 C 149.734375 98.4375 149.578125 97.921875 149.371094 97.421875 C 149.164062 96.921875 148.910156 96.445312 148.609375 95.996094 C 148.308594 95.546875 147.96875 95.128906 147.585938 94.75 C 147.203125 94.367188 146.789062 94.023438 146.335938 93.722656 C 145.886719 93.421875 145.414062 93.167969 144.914062 92.960938 C 144.414062 92.753906 143.898438 92.597656 143.367188 92.492188 C 142.835938 92.386719 142.300781 92.335938 141.761719 92.335938 L 100.574219 92.335938 C 100.03125 92.335938 99.496094 92.386719 98.964844 92.492188 C 98.4375 92.597656 97.921875 92.753906 97.421875 92.960938 C 96.921875 93.167969 96.445312 93.421875 95.996094 93.722656 C 95.546875 94.023438 95.128906 94.367188 94.75 94.75 C 94.367188 95.128906 94.023438 95.546875 93.722656 95.996094 C 93.421875 96.445312 93.167969 96.921875 92.960938 97.421875 C 92.753906 97.921875 92.597656 98.4375 92.492188 98.964844 C 92.386719 99.496094 92.335938 100.03125 92.335938 100.574219 L 92.335938 166.472656 C 92.335938 167.015625 92.386719 167.550781 92.492188 168.082031 C 92.597656 168.609375 92.753906 169.125 92.960938 169.625 C 93.167969 170.125 93.421875 170.601562 93.722656 171.050781 C 94.023438 171.5 94.367188 171.914062 94.75 172.296875 C 95.128906 172.679688 95.546875 173.023438 95.996094 173.324219 C 96.445312 173.625 96.921875 173.878906 97.421875 174.085938 C 97.921875 174.292969 98.4375 174.449219 98.964844 174.554688 C 99.496094 174.660156 100.03125 174.710938 100.574219 174.710938 L 121.167969 174.710938 C 121.4375 174.710938 121.707031 174.738281 121.96875 174.789062 C 122.234375 174.84375 122.492188 174.921875 122.742188 175.023438 C 122.992188 175.128906 123.230469 175.253906 123.457031 175.40625 C 123.679688 175.554688 123.886719 175.726562 124.078125 175.917969 C 124.269531 176.109375 124.441406 176.316406 124.589844 176.542969 C 124.742188 176.765625 124.867188 177.003906 124.972656 177.253906 C 125.074219 177.503906 125.152344 177.761719 125.207031 178.027344 C 125.257812 178.292969 125.285156 178.558594 125.285156 178.828125 C 125.285156 179.101562 125.257812 179.367188 125.207031 179.632812 C 125.152344 179.898438 125.074219 180.15625 124.972656 180.40625 C 124.867188 180.65625 124.742188 180.894531 124.589844 181.117188 C 124.441406 181.34375 124.269531 181.550781 124.078125 181.742188 C 123.886719 181.933594 123.679688 182.105469 123.457031 182.253906 C 123.230469 182.40625 122.992188 182.53125 122.742188 182.636719 C 122.492188 182.738281 122.234375 182.816406 121.96875 182.871094 C 121.707031 182.921875 121.4375 182.949219 121.167969 182.949219 Z M 121.167969 182.949219 "/></g><path style=" stroke:none;fill-rule:nonzero;fill:#727171;fill-opacity:1;" d="M 112.929688 129.40625 C 112.117188 129.40625 111.316406 129.324219 110.519531 129.167969 C 109.722656 129.007812 108.949219 128.773438 108.199219 128.464844 C 107.453125 128.152344 106.738281 127.773438 106.066406 127.320312 C 105.390625 126.871094 104.765625 126.359375 104.191406 125.785156 C 103.617188 125.210938 103.105469 124.585938 102.65625 123.914062 C 102.203125 123.238281 101.824219 122.527344 101.515625 121.777344 C 101.203125 121.027344 100.96875 120.253906 100.8125 119.457031 C 100.652344 118.664062 100.574219 117.859375 100.574219 117.046875 L 100.574219 104.691406 C 100.574219 104.421875 100.597656 104.152344 100.652344 103.886719 C 100.703125 103.625 100.78125 103.367188 100.886719 103.117188 C 100.988281 102.867188 101.117188 102.628906 101.265625 102.402344 C 101.417969 102.179688 101.589844 101.972656 101.78125 101.78125 C 101.972656 101.589844 102.179688 101.417969 102.402344 101.265625 C 102.628906 101.117188 102.867188 100.988281 103.117188 100.886719 C 103.367188 100.78125 103.625 100.703125 103.886719 100.652344 C 104.152344 100.597656 104.421875 100.574219 104.691406 100.574219 C 104.960938 100.574219 105.230469 100.597656 105.496094 100.652344 C 105.761719 100.703125 106.019531 100.78125 106.269531 100.886719 C 106.519531 100.988281 106.753906 101.117188 106.980469 101.265625 C 107.203125 101.417969 107.414062 101.589844 107.605469 101.78125 C 107.796875 101.972656 107.964844 102.179688 108.117188 102.402344 C 108.265625 102.628906 108.394531 102.867188 108.496094 103.117188 C 108.601562 103.367188 108.679688 103.625 108.730469 103.886719 C 108.785156 104.152344 108.8125 104.421875 108.8125 104.691406 L 108.8125 117.046875 C 108.8125 117.320312 108.835938 117.585938 108.890625 117.851562 C 108.941406 118.117188 109.019531 118.375 109.125 118.625 C 109.226562 118.875 109.355469 119.113281 109.503906 119.335938 C 109.65625 119.5625 109.824219 119.769531 110.015625 119.960938 C 110.207031 120.152344 110.417969 120.324219 110.640625 120.472656 C 110.867188 120.625 111.101562 120.75 111.351562 120.851562 C 111.601562 120.957031 111.859375 121.035156 112.125 121.089844 C 112.390625 121.140625 112.660156 121.167969 112.929688 121.167969 C 113.199219 121.167969 113.46875 121.140625 113.734375 121.089844 C 114 121.035156 114.253906 120.957031 114.503906 120.851562 C 114.753906 120.75 114.992188 120.625 115.21875 120.472656 C 115.441406 120.324219 115.652344 120.152344 115.84375 119.960938 C 116.03125 119.769531 116.203125 119.5625 116.355469 119.335938 C 116.503906 119.113281 116.632812 118.875 116.734375 118.625 C 116.839844 118.375 116.917969 118.117188 116.96875 117.851562 C 117.023438 117.585938 117.046875 117.320312 117.046875 117.046875 L 117.046875 104.691406 C 117.046875 104.421875 117.074219 104.152344 117.128906 103.886719 C 117.179688 103.625 117.257812 103.367188 117.363281 103.117188 C 117.464844 102.867188 117.59375 102.628906 117.742188 102.402344 C 117.894531 102.179688 118.0625 101.972656 118.253906 101.78125 C 118.445312 101.589844 118.652344 101.417969 118.878906 101.265625 C 119.105469 101.117188 119.339844 100.988281 119.589844 100.886719 C 119.839844 100.78125 120.097656 100.703125 120.363281 100.652344 C 120.628906 100.597656 120.898438 100.574219 121.167969 100.574219 C 121.4375 100.574219 121.707031 100.597656 121.96875 100.652344 C 122.234375 100.703125 122.492188 100.78125 122.742188 100.886719 C 122.992188 100.988281 123.230469 101.117188 123.457031 101.265625 C 123.679688 101.417969 123.886719 101.589844 124.078125 101.78125 C 124.269531 101.972656 124.441406 102.179688 124.589844 102.402344 C 124.742188 102.628906 124.867188 102.867188 124.972656 103.117188 C 125.074219 103.367188 125.152344 103.625 125.207031 103.886719 C 125.257812 104.152344 125.285156 104.421875 125.285156 104.691406 L 125.285156 117.046875 C 125.285156 117.859375 125.207031 118.664062 125.046875 119.457031 C 124.890625 120.253906 124.65625 121.027344 124.34375 121.777344 C 124.035156 122.527344 123.652344 123.238281 123.203125 123.914062 C 122.753906 124.585938 122.242188 125.210938 121.667969 125.785156 C 121.09375 126.359375 120.46875 126.871094 119.792969 127.320312 C 119.121094 127.773438 118.40625 128.152344 117.65625 128.464844 C 116.910156 128.773438 116.136719 129.007812 115.339844 129.167969 C 114.542969 129.324219 113.742188 129.40625 112.929688 129.40625 Z M 112.929688 129.40625 "/><path style=" stroke:none;fill-rule:nonzero;fill:#727171;fill-opacity:1;" d="M 145.878906 182.949219 C 145.066406 182.949219 144.265625 182.871094 143.46875 182.710938 C 142.671875 182.554688 141.902344 182.320312 141.152344 182.007812 C 140.402344 181.699219 139.691406 181.316406 139.015625 180.867188 C 138.339844 180.414062 137.714844 179.902344 137.140625 179.328125 C 136.570312 178.757812 136.054688 178.132812 135.605469 177.457031 C 135.15625 176.78125 134.773438 176.070312 134.464844 175.320312 C 134.152344 174.570312 133.917969 173.796875 133.761719 173.003906 C 133.601562 172.207031 133.523438 171.402344 133.523438 170.59375 L 133.523438 158.234375 C 133.523438 157.964844 133.550781 157.699219 133.601562 157.433594 C 133.65625 157.167969 133.734375 156.910156 133.835938 156.660156 C 133.941406 156.410156 134.066406 156.171875 134.21875 155.949219 C 134.367188 155.722656 134.539062 155.515625 134.730469 155.324219 C 134.921875 155.132812 135.128906 154.960938 135.355469 154.8125 C 135.578125 154.660156 135.816406 154.535156 136.066406 154.429688 C 136.316406 154.328125 136.574219 154.25 136.839844 154.195312 C 137.105469 154.144531 137.371094 154.117188 137.640625 154.117188 C 137.914062 154.117188 138.179688 154.144531 138.445312 154.195312 C 138.710938 154.25 138.96875 154.328125 139.21875 154.429688 C 139.46875 154.535156 139.707031 154.660156 139.929688 154.8125 C 140.15625 154.960938 140.363281 155.132812 140.554688 155.324219 C 140.746094 155.515625 140.917969 155.722656 141.066406 155.949219 C 141.21875 156.171875 141.34375 156.410156 141.449219 156.660156 C 141.550781 156.910156 141.628906 157.167969 141.683594 157.433594 C 141.734375 157.699219 141.761719 157.964844 141.761719 158.234375 L 141.761719 170.59375 C 141.761719 170.863281 141.789062 171.128906 141.839844 171.394531 C 141.894531 171.660156 141.972656 171.917969 142.074219 172.167969 C 142.179688 172.417969 142.304688 172.65625 142.453125 172.878906 C 142.605469 173.105469 142.777344 173.3125 142.96875 173.503906 C 143.160156 173.695312 143.367188 173.867188 143.589844 174.015625 C 143.816406 174.167969 144.054688 174.292969 144.304688 174.398438 C 144.554688 174.5 144.8125 174.578125 145.074219 174.632812 C 145.339844 174.683594 145.609375 174.710938 145.878906 174.710938 C 146.148438 174.710938 146.417969 174.683594 146.683594 174.632812 C 146.949219 174.578125 147.207031 174.5 147.457031 174.398438 C 147.707031 174.292969 147.941406 174.167969 148.167969 174.015625 C 148.394531 173.867188 148.601562 173.695312 148.792969 173.503906 C 148.984375 173.3125 149.152344 173.105469 149.304688 172.878906 C 149.453125 172.65625 149.582031 172.417969 149.683594 172.167969 C 149.789062 171.917969 149.867188 171.660156 149.917969 171.394531 C 149.972656 171.128906 150 170.863281 150 170.59375 L 150 158.234375 C 150 157.964844 150.023438 157.699219 150.078125 157.433594 C 150.128906 157.167969 150.207031 156.910156 150.3125 156.660156 C 150.414062 156.410156 150.542969 156.171875 150.691406 155.949219 C 150.84375 155.722656 151.011719 155.515625 151.203125 155.324219 C 151.394531 155.132812 151.605469 154.960938 151.828125 154.8125 C 152.054688 154.660156 152.292969 154.535156 152.542969 154.429688 C 152.789062 154.328125 153.046875 154.25 153.3125 154.195312 C 153.578125 154.144531 153.847656 154.117188 154.117188 154.117188 C 154.386719 154.117188 154.65625 154.144531 154.921875 154.195312 C 155.1875 154.25 155.445312 154.328125 155.695312 154.429688 C 155.941406 154.535156 156.179688 154.660156 156.40625 154.8125 C 156.628906 154.960938 156.839844 155.132812 157.03125 155.324219 C 157.222656 155.515625 157.390625 155.722656 157.542969 155.949219 C 157.691406 156.171875 157.820312 156.410156 157.921875 156.660156 C 158.027344 156.910156 158.105469 157.167969 158.15625 157.433594 C 158.210938 157.699219 158.234375 157.964844 158.234375 158.234375 L 158.234375 170.59375 C 158.234375 171.402344 158.15625 172.207031 158 173.003906 C 157.839844 173.796875 157.605469 174.570312 157.296875 175.320312 C 156.984375 176.070312 156.605469 176.78125 156.152344 177.457031 C 155.703125 178.132812 155.191406 178.757812 154.617188 179.328125 C 154.042969 179.902344 153.417969 180.414062 152.746094 180.867188 C 152.070312 181.316406 151.359375 181.699219 150.609375 182.007812 C 149.859375 182.320312 149.085938 182.554688 148.289062 182.710938 C 147.496094 182.871094 146.691406 182.949219 145.878906 182.949219 Z M 145.878906 182.949219 "/><path style=" stroke:none;fill-rule:nonzero;fill:#727171;fill-opacity:1;" d="M 137.640625 129.40625 C 137.371094 129.40625 137.105469 129.378906 136.839844 129.324219 C 136.574219 129.273438 136.316406 129.195312 136.066406 129.089844 C 135.816406 128.988281 135.578125 128.859375 135.355469 128.710938 C 135.128906 128.558594 134.921875 128.390625 134.730469 128.199219 C 134.539062 128.007812 134.367188 127.800781 134.21875 127.574219 C 134.066406 127.347656 133.941406 127.113281 133.835938 126.863281 C 133.734375 126.613281 133.65625 126.355469 133.601562 126.089844 C 133.550781 125.824219 133.523438 125.554688 133.523438 125.285156 L 133.523438 104.691406 C 133.523438 104.421875 133.550781 104.152344 133.601562 103.886719 C 133.65625 103.625 133.734375 103.367188 133.835938 103.117188 C 133.941406 102.867188 134.066406 102.628906 134.21875 102.402344 C 134.367188 102.179688 134.539062 101.972656 134.730469 101.78125 C 134.921875 101.589844 135.128906 101.417969 135.355469 101.265625 C 135.578125 101.117188 135.816406 100.988281 136.066406 100.886719 C 136.316406 100.78125 136.574219 100.703125 136.839844 100.652344 C 137.105469 100.597656 137.371094 100.574219 137.640625 100.574219 C 137.914062 100.574219 138.179688 100.597656 138.445312 100.652344 C 138.710938 100.703125 138.96875 100.78125 139.21875 100.886719 C 139.46875 100.988281 139.707031 101.117188 139.929688 101.265625 C 140.15625 101.417969 140.363281 101.589844 140.554688 101.78125 C 140.746094 101.972656 140.917969 102.179688 141.066406 102.402344 C 141.21875 102.628906 141.34375 102.867188 141.449219 103.117188 C 141.550781 103.367188 141.628906 103.625 141.683594 103.886719 C 141.734375 104.152344 141.761719 104.421875 141.761719 104.691406 L 141.761719 125.285156 C 141.761719 125.554688 141.734375 125.824219 141.683594 126.089844 C 141.628906 126.355469 141.550781 126.613281 141.449219 126.863281 C 141.34375 127.113281 141.21875 127.347656 141.066406 127.574219 C 140.917969 127.800781 140.746094 128.007812 140.554688 128.199219 C 140.363281 128.390625 140.15625 128.558594 139.929688 128.710938 C 139.707031 128.859375 139.46875 128.988281 139.21875 129.089844 C 138.96875 129.195312 138.710938 129.273438 138.445312 129.324219 C 138.179688 129.378906 137.914062 129.40625 137.640625 129.40625 Z M 137.640625 129.40625 "/><path style=" stroke:none;fill-rule:nonzero;fill:#727171;fill-opacity:1;" d="M 182.949219 182.949219 C 182.320312 182.945312 181.726562 182.808594 181.164062 182.53125 C 180.601562 182.257812 180.125 181.875 179.734375 181.382812 L 163.261719 160.789062 C 162.976562 160.359375 162.777344 159.894531 162.667969 159.390625 C 162.558594 158.886719 162.542969 158.378906 162.621094 157.867188 C 162.703125 157.359375 162.871094 156.882812 163.132812 156.433594 C 163.390625 155.988281 163.722656 155.605469 164.128906 155.285156 C 164.53125 154.964844 164.980469 154.726562 165.472656 154.574219 C 165.964844 154.421875 166.46875 154.363281 166.984375 154.402344 C 167.5 154.4375 167.988281 154.566406 168.457031 154.789062 C 168.921875 155.007812 169.332031 155.308594 169.6875 155.683594 L 186.160156 176.277344 C 186.648438 176.894531 186.9375 177.59375 187.023438 178.378906 C 187.109375 179.160156 186.984375 179.90625 186.640625 180.617188 C 186.300781 181.328125 185.796875 181.890625 185.128906 182.3125 C 184.464844 182.734375 183.738281 182.945312 182.949219 182.949219 Z M 182.949219 182.949219 "/><path style=" stroke:none;fill-rule:nonzero;fill:#727171;fill-opacity:1;" d="M 166.472656 182.949219 C 165.6875 182.945312 164.960938 182.734375 164.292969 182.3125 C 163.628906 181.890625 163.125 181.328125 162.78125 180.617188 C 162.441406 179.90625 162.3125 179.160156 162.398438 178.378906 C 162.484375 177.59375 162.773438 176.894531 163.261719 176.277344 L 179.734375 155.683594 C 179.894531 155.445312 180.074219 155.226562 180.277344 155.027344 C 180.480469 154.824219 180.703125 154.648438 180.941406 154.496094 C 181.183594 154.339844 181.4375 154.214844 181.703125 154.113281 C 181.96875 154.011719 182.242188 153.9375 182.523438 153.894531 C 182.808594 153.847656 183.089844 153.835938 183.375 153.847656 C 183.660156 153.863281 183.941406 153.90625 184.214844 153.980469 C 184.492188 154.050781 184.757812 154.152344 185.011719 154.28125 C 185.265625 154.40625 185.503906 154.5625 185.730469 154.738281 C 185.953125 154.914062 186.15625 155.113281 186.335938 155.332031 C 186.519531 155.554688 186.675781 155.789062 186.808594 156.042969 C 186.941406 156.292969 187.046875 156.558594 187.125 156.832031 C 187.203125 157.105469 187.253906 157.382812 187.273438 157.667969 C 187.292969 157.953125 187.285156 158.238281 187.246094 158.519531 C 187.207031 158.800781 187.140625 159.078125 187.046875 159.347656 C 186.949219 159.613281 186.828125 159.871094 186.679688 160.113281 C 186.53125 160.355469 186.355469 160.582031 186.160156 160.789062 L 169.6875 181.382812 C 169.296875 181.875 168.820312 182.257812 168.257812 182.53125 C 167.695312 182.808594 167.101562 182.945312 166.472656 182.949219 Z M 166.472656 182.949219 "/><path style=" stroke:none;fill-rule:nonzero;fill:#727171;fill-opacity:1;" d="M 145.878906 199.421875 L 137.640625 199.421875 C 137.371094 199.421875 137.105469 199.398438 136.839844 199.34375 C 136.574219 199.292969 136.316406 199.214844 136.066406 199.109375 C 135.816406 199.007812 135.578125 198.878906 135.355469 198.730469 C 135.128906 198.578125 134.921875 198.410156 134.730469 198.21875 C 134.539062 198.027344 134.367188 197.816406 134.21875 197.59375 C 134.066406 197.367188 133.941406 197.132812 133.835938 196.882812 C 133.734375 196.632812 133.65625 196.375 133.601562 196.109375 C 133.550781 195.84375 133.523438 195.574219 133.523438 195.304688 C 133.523438 195.035156 133.550781 194.765625 133.601562 194.5 C 133.65625 194.234375 133.734375 193.980469 133.835938 193.730469 C 133.941406 193.480469 134.066406 193.242188 134.21875 193.015625 C 134.367188 192.792969 134.539062 192.582031 134.730469 192.390625 C 134.921875 192.203125 135.128906 192.03125 135.355469 191.878906 C 135.578125 191.730469 135.816406 191.601562 136.066406 191.5 C 136.316406 191.394531 136.574219 191.316406 136.839844 191.265625 C 137.105469 191.210938 137.371094 191.1875 137.640625 191.1875 L 145.878906 191.1875 C 146.148438 191.1875 146.417969 191.210938 146.683594 191.265625 C 146.949219 191.316406 147.207031 191.394531 147.457031 191.5 C 147.707031 191.601562 147.941406 191.730469 148.167969 191.878906 C 148.394531 192.03125 148.601562 192.203125 148.792969 192.390625 C 148.984375 192.582031 149.152344 192.792969 149.304688 193.015625 C 149.453125 193.242188 149.582031 193.480469 149.683594 193.730469 C 149.789062 193.980469 149.867188 194.234375 149.917969 194.5 C 149.972656 194.765625 150 195.035156 150 195.304688 C 150 195.574219 149.972656 195.84375 149.917969 196.109375 C 149.867188 196.375 149.789062 196.632812 149.683594 196.882812 C 149.582031 197.132812 149.453125 197.367188 149.304688 197.59375 C 149.152344 197.816406 148.984375 198.027344 148.792969 198.21875 C 148.601562 198.410156 148.394531 198.578125 148.167969 198.730469 C 147.941406 198.878906 147.707031 199.007812 147.457031 199.109375 C 147.207031 199.214844 146.949219 199.292969 146.683594 199.34375 C 146.417969 199.398438 146.148438 199.421875 145.878906 199.421875 Z M 145.878906 199.421875 "/><path style=" stroke:none;fill-rule:nonzero;fill:#727171;fill-opacity:1;" d="M 195.304688 199.421875 L 162.355469 199.421875 C 162.085938 199.421875 161.816406 199.398438 161.550781 199.34375 C 161.285156 199.292969 161.027344 199.214844 160.777344 199.109375 C 160.527344 199.007812 160.292969 198.878906 160.066406 198.730469 C 159.839844 198.578125 159.632812 198.410156 159.441406 198.21875 C 159.25 198.027344 159.082031 197.816406 158.929688 197.59375 C 158.78125 197.367188 158.652344 197.132812 158.550781 196.882812 C 158.445312 196.632812 158.367188 196.375 158.316406 196.109375 C 158.261719 195.84375 158.234375 195.574219 158.234375 195.304688 C 158.234375 195.035156 158.261719 194.765625 158.316406 194.5 C 158.367188 194.234375 158.445312 193.980469 158.550781 193.730469 C 158.652344 193.480469 158.78125 193.242188 158.929688 193.015625 C 159.082031 192.792969 159.25 192.582031 159.441406 192.390625 C 159.632812 192.203125 159.839844 192.03125 160.066406 191.878906 C 160.292969 191.730469 160.527344 191.601562 160.777344 191.5 C 161.027344 191.394531 161.285156 191.316406 161.550781 191.265625 C 161.816406 191.210938 162.085938 191.1875 162.355469 191.1875 L 195.304688 191.1875 C 195.574219 191.1875 195.84375 191.210938 196.109375 191.265625 C 196.375 191.316406 196.632812 191.394531 196.882812 191.5 C 197.132812 191.601562 197.367188 191.730469 197.59375 191.878906 C 197.816406 192.03125 198.027344 192.203125 198.21875 192.390625 C 198.410156 192.582031 198.578125 192.792969 198.730469 193.015625 C 198.878906 193.242188 199.007812 193.480469 199.109375 193.730469 C 199.214844 193.980469 199.292969 194.234375 199.34375 194.5 C 199.398438 194.765625 199.421875 195.035156 199.421875 195.304688 C 199.421875 195.574219 199.398438 195.84375 199.34375 196.109375 C 199.292969 196.375 199.214844 196.632812 199.109375 196.882812 C 199.007812 197.132812 198.878906 197.367188 198.730469 197.59375 C 198.578125 197.816406 198.410156 198.027344 198.21875 198.21875 C 198.027344 198.410156 197.816406 198.578125 197.59375 198.730469 C 197.367188 198.878906 197.132812 199.007812 196.882812 199.109375 C 196.632812 199.214844 196.375 199.292969 196.109375 199.34375 C 195.84375 199.398438 195.574219 199.421875 195.304688 199.421875 Z M 195.304688 199.421875 "/></g></svg>