<svg xmlns="http://www.w3.org/2000/svg" xmlns:xlink="http://www.w3.org/1999/xlink" width="400" zoomAndPan="magnify" viewBox="0 0 300 299.999988" height="400" preserveAspectRatio="xMidYMid meet" version="1.2"><defs><clipPath id="9e146ff32a"><path d="M 35 76 L 265 76 L 265 224.769531 L 35 224.769531 Z M 35 76 "/></clipPath></defs><g id="0e51850d54"><g clip-rule="nonzero" clip-path="url(#9e146ff32a)"><path style=" stroke:none;fill-rule:nonzero;fill:#ff0068;fill-opacity:1;" d="M 84.355469 199.847656 C 82.253906 199.847656 80.160156 199.046875 78.554688 197.441406 L 37.527344 156.417969 C 34.324219 153.210938 34.324219 148.019531 37.527344 144.8125 L 78.554688 103.789062 C 81.757812 100.582031 86.953125 100.582031 90.15625 103.789062 C 93.363281 106.992188 93.363281 112.1875 90.15625 115.390625 L 54.933594 150.613281 L 90.15625 185.839844 C 93.363281 189.042969 93.363281 194.238281 90.15625 197.441406 C 88.554688 199.046875 86.457031 199.847656 84.355469 199.847656 Z M 125.382812 224.460938 C 124.425781 224.460938 123.449219 224.292969 122.503906 223.9375 C 118.261719 222.34375 116.105469 217.613281 117.699219 213.371094 L 166.929688 82.089844 C 168.523438 77.84375 173.25 75.699219 177.492188 77.289062 C 181.734375 78.882812 183.890625 83.609375 182.296875 87.851562 L 133.066406 219.136719 C 131.828125 222.429688 128.707031 224.460938 125.382812 224.460938 Z M 215.640625 199.847656 C 213.539062 199.847656 211.441406 199.046875 209.839844 197.441406 C 206.632812 194.238281 206.632812 189.042969 209.839844 185.839844 L 245.0625 150.613281 L 209.839844 115.390625 C 206.632812 112.1875 206.632812 106.992188 209.839844 103.789062 C 213.042969 100.582031 218.238281 100.582031 221.441406 103.789062 L 262.464844 144.8125 C 265.671875 148.019531 265.671875 153.210938 262.464844 156.417969 L 221.441406 197.441406 C 219.835938 199.046875 217.738281 199.847656 215.640625 199.847656 Z M 215.640625 199.847656 "/></g></g></svg>