<svg xmlns="http://www.w3.org/2000/svg" xmlns:xlink="http://www.w3.org/1999/xlink" width="900" zoomAndPan="magnify" viewBox="0 0 675 675.000002" height="900" preserveAspectRatio="xMidYMid meet" version="1.2"><defs><clipPath id="4b3737bd45"><path d="M 236.398438 235.902344 L 438.601562 235.902344 L 438.601562 438.101562 L 236.398438 438.101562 Z M 236.398438 235.902344 "/></clipPath><clipPath id="e144ff9a17"><path d="M 267.851562 235.902344 L 407.148438 235.902344 C 424.519531 235.902344 438.601562 249.984375 438.601562 267.355469 L 438.601562 406.648438 C 438.601562 424.019531 424.519531 438.101562 407.148438 438.101562 L 267.851562 438.101562 C 250.480469 438.101562 236.398438 424.019531 236.398438 406.648438 L 236.398438 267.355469 C 236.398438 249.984375 250.480469 235.902344 267.851562 235.902344 Z M 267.851562 235.902344 "/></clipPath></defs><g id="74971521d7"><path style=" stroke:none;fill-rule:nonzero;fill:#781d42;fill-opacity:1;" d="M 45.675781 162.125 C 28.851562 216.003906 39.082031 277.160156 72.046875 323.085938 C 99.328125 360.824219 143.433594 396.519531 135.703125 442.214844 C 128.882812 481.773438 83.640625 509.285156 84.550781 549.296875 C 85.460938 585.902344 125.019531 609.542969 161.394531 615.683594 C 213.683594 624.324219 269.386719 610.679688 311.445312 578.625 C 344.863281 553.164062 373.28125 515.648438 415.113281 510.421875 C 455.582031 505.648438 495.140625 534.066406 535.382812 526.789062 C 573.804688 519.96875 599.039062 482.457031 609.953125 445.398438 C 631.097656 371.964844 611.316406 290.347656 566.757812 228.054688 C 522.195312 165.761719 454.902344 121.65625 382.832031 94.828125 C 315.082031 70.046875 234.375 53.222656 162.304688 50.949219 C 106.832031 49.359375 60.453125 114.152344 45.675781 162.125 Z M 45.675781 162.125 "/><g clip-rule="nonzero" clip-path="url(#4b3737bd45)"><g clip-rule="nonzero" clip-path="url(#e144ff9a17)"><path style=" stroke:none;fill-rule:nonzero;fill:#781d42;fill-opacity:1;" d="M 236.398438 235.902344 L 438.601562 235.902344 L 438.601562 438.101562 L 236.398438 438.101562 Z M 236.398438 235.902344 "/></g></g></g></svg>